<svg width="18" height="18" viewBox="0 0 18 18" fill="none" xmlns="http://www.w3.org/2000/svg">
<path d="M16.5 4.29L13.05 1.395L12.0825 2.5425L15.5325 5.4375L16.5 4.29ZM5.91 2.5425L4.95 1.395L1.5 4.2825L2.4675 5.43L5.91 2.5425ZM9.375 6H8.25V10.5L11.8125 12.6375L12.375 11.715L9.375 9.9375V6ZM9 3C5.2725 3 2.25 6.02251 2.25 9.75C2.25 13.4775 5.265 16.5 9 16.5C12.7275 16.5 15.75 13.4775 15.75 9.75C15.75 6.02251 12.7275 3 9 3ZM9 15C6.0975 15 3.75 12.6525 3.75 9.75C3.75 6.84751 6.0975 4.5 9 4.5C11.9025 4.5 14.25 6.84751 14.25 9.75C14.25 12.6525 11.9025 15 9 15Z" fill="black" fill-opacity="0.54"/>
</svg>
