<svg width="22" height="13" viewBox="0 0 22 13" fill="none" xmlns="http://www.w3.org/2000/svg">
<path d="M18.0807 1.27147C16.0899 0.451564 13.4568 0 10.6667 0C7.87649 0 5.24345 0.451564 3.25262 1.27147C1.15512 2.13527 0 3.30884 0 4.57599V7.77918C0 9.04632 1.15512 10.2199 3.25262 11.0837C5.24345 11.9036 7.87649 12.3552 10.6667 12.3552C13.4568 12.3552 16.0899 11.9036 18.0807 11.0837C20.1782 10.2199 21.3333 9.04632 21.3333 7.77918V4.57599C21.3333 3.30884 20.1782 2.13527 18.0807 1.27147ZM3.93858 2.05622C5.72524 1.32043 8.11462 0.915197 10.6667 0.915197C13.2187 0.915197 15.6081 1.32043 17.3947 2.05622C19.0748 2.74814 20 3.643 20 4.57599C20 5.50897 19.0748 6.40384 17.3947 7.09575C15.6081 7.83154 13.2187 8.23678 10.6667 8.23678C8.11462 8.23678 5.72524 7.83154 3.93858 7.09575C2.25858 6.40384 1.33333 5.50897 1.33333 4.57599C1.33333 3.643 2.25858 2.74814 3.93858 2.05622ZM16 8.5486V10.7732C15.1809 11.0014 14.2827 11.1739 13.3333 11.2863V9.01006C14.2692 8.90844 15.1654 8.75349 16 8.5486ZM7.99999 9.01003V11.2863C7.05066 11.1739 6.15249 11.0013 5.33333 10.7731V8.54857C6.16795 8.75349 7.06408 8.90844 7.99999 9.01003ZM1.33333 7.77918V6.81347C1.839 7.20378 2.48191 7.5631 3.25262 7.88051C3.49262 7.97935 3.7422 8.0727 4.00004 8.1607V10.3236C3.97962 10.3153 3.95887 10.3073 3.93862 10.2989C2.25858 9.60703 1.33333 8.71216 1.33333 7.77918ZM9.33332 11.4022V9.11702C9.77237 9.14008 10.2174 9.15194 10.6667 9.15194C11.1159 9.15194 11.5609 9.14008 12 9.11702V11.4022C11.5622 11.4271 11.117 11.44 10.6667 11.44C10.2163 11.44 9.77116 11.4271 9.33332 11.4022ZM20 7.77918C20 8.71216 19.0748 9.60703 17.3947 10.2989C17.3745 10.3073 17.3537 10.3154 17.3333 10.3236V8.1607C17.5912 8.0727 17.8407 7.97935 18.0807 7.88051C18.8514 7.5631 19.4943 7.20378 20 6.81347V7.77918H20Z" fill="#4F4F4F"/>
</svg>
