<svg width="36" height="36" viewBox="0 0 36 36" fill="none" xmlns="http://www.w3.org/2000/svg">
<rect x="0.5" y="0.5" width="34.2572" height="34.2572" rx="4.5" fill="#F5F5F5" stroke="#1E3444"/>
<g clip-path="url(#clip0)">
<path d="M19.2753 25.2932H13.5568C12.2361 25.2932 11.1616 24.2187 11.1616 22.898V14.7843C11.1616 13.4636 12.2361 12.3891 13.5568 12.3891H19.2753C20.5961 12.3891 21.6705 13.4636 21.6705 14.7843V22.898C21.6705 24.2187 20.5961 25.2932 19.2753 25.2932ZM13.5568 13.5867C12.8965 13.5867 12.3592 14.124 12.3592 14.7843V22.898C12.3592 23.5583 12.8965 24.0956 13.5568 24.0956H19.2753C19.9356 24.0956 20.4729 23.5583 20.4729 22.898V14.7843C20.4729 14.124 19.9356 13.5867 19.2753 13.5867H13.5568ZM24.0657 21.401V12.3592C24.0657 11.0384 22.9912 9.96399 21.6705 9.96399H15.0239C14.6931 9.96399 14.4251 10.232 14.4251 10.5628C14.4251 10.8935 14.6931 11.1616 15.0239 11.1616H21.6705C22.3308 11.1616 22.8681 11.6989 22.8681 12.3592V21.401C22.8681 21.7317 23.1362 21.9998 23.4669 21.9998C23.7976 21.9998 24.0657 21.7317 24.0657 21.401Z" fill="#1E3444"/>
</g>
<defs>
<clipPath id="clip0">
<rect width="15.3292" height="15.3292" fill="white" transform="translate(9.96387 9.96399)"/>
</clipPath>
</defs>
</svg>
