<svg width="144" height="144" viewBox="0 0 144 144" fill="none" xmlns="http://www.w3.org/2000/svg">
<path d="M74.4 31.2H69.6V36H74.4V31.2Z" fill="#1E3444"/>
<path d="M55.2 50.3999H50.4V55.1999H55.2V50.3999Z" fill="#1E3444"/>
<path d="M45.6 50.3999H40.8V55.1999H45.6V50.3999Z" fill="#1E3444"/>
<path d="M36 50.3999H31.2V55.1999H36V50.3999Z" fill="#1E3444"/>
<path d="M55.2 60H50.4V64.8H55.2V60Z" fill="#1E3444"/>
<path d="M45.6 60H40.8V64.8H45.6V60Z" fill="#1E3444"/>
<path d="M36 60H31.2V64.8H36V60Z" fill="#1E3444"/>
<path d="M55.2 69.6001H50.4V74.4001H55.2V69.6001Z" fill="#1E3444"/>
<path d="M45.6 69.6001H40.8V74.4001H45.6V69.6001Z" fill="#1E3444"/>
<path d="M36 69.6001H31.2V74.4001H36V69.6001Z" fill="#1E3444"/>
<path d="M55.2 79.2H50.4V83.9999H55.2V79.2Z" fill="#1E3444"/>
<path d="M45.6 79.2H40.8V83.9999H45.6V79.2Z" fill="#1E3444"/>
<path d="M36 79.2H31.2V83.9999H36V79.2Z" fill="#1E3444"/>
<path d="M83.9999 31.2H79.2V36H83.9999V31.2Z" fill="#1E3444"/>
<path d="M74.4 40.8H69.6V45.6H74.4V40.8Z" fill="#1E3444"/>
<path d="M83.9999 40.8H79.2V45.6H83.9999V40.8Z" fill="#1E3444"/>
<path d="M74.4 50.3999H69.6V55.1999H74.4V50.3999Z" fill="#1E3444"/>
<path d="M83.9999 50.3999H79.2V55.1999H83.9999V50.3999Z" fill="#1E3444"/>
<path d="M74.4 60H69.6V64.8H74.4V60Z" fill="#1E3444"/>
<path d="M83.9999 60H79.2V64.8H83.9999V60Z" fill="#1E3444"/>
<path d="M74.4 69.6001H69.6V74.4001H74.4V69.6001Z" fill="#1E3444"/>
<path d="M83.9999 69.6001H79.2V74.4001H83.9999V69.6001Z" fill="#1E3444"/>
<path d="M112.8 60H108V64.8H112.8V60Z" fill="#1E3444"/>
<path d="M103.2 60H98.4V64.8H103.2V60Z" fill="#1E3444"/>
<path d="M112.8 69.6001H108V74.4001H112.8V69.6001Z" fill="#1E3444"/>
<path d="M103.2 69.6001H98.4V74.4001H103.2V69.6001Z" fill="#1E3444"/>
<path d="M112.8 79.2H108V83.9999H112.8V79.2Z" fill="#1E3444"/>
<path d="M103.2 79.2H98.4V83.9999H103.2V79.2Z" fill="#1E3444"/>
<path d="M112.8 88.8H108V93.6H112.8V88.8Z" fill="#1E3444"/>
<path d="M103.2 88.8H98.4V93.6H103.2V88.8Z" fill="#1E3444"/>
<path d="M141.6 131.714V74.4C141.6 73.0728 140.525 72 139.2 72H122.4V52.8C122.4 51.4728 121.325 50.4 120 50.4H93.6V24C93.6 23.2872 93.2832 22.6128 92.736 22.1544L79.2 10.8744V0H74.4V10.8744L60.864 22.1544C60.3168 22.6128 60 23.2872 60 24V40.8H24C22.6752 40.8 21.6 41.8728 21.6 43.2V84H4.8C3.4752 84 2.4 85.0728 2.4 86.4V131.714C0.84 135.638 0 139.754 0 144H2.4H4.8H64.8C68.7696 144 72 140.77 72 136.8C72 132.83 68.7696 129.6 64.8 129.6H43.2C41.8776 129.6 40.8 128.525 40.8 127.2C40.8 125.875 41.8776 124.8 43.2 124.8H52.8C56.7696 124.8 60 121.57 60 117.6C60 113.63 56.7696 110.4 52.8 110.4H29.928C35.2104 107.65 41.028 105.439 47.2536 103.848C47.2992 103.836 47.3424 103.826 47.388 103.814C52.248 102.581 57.348 101.71 62.616 101.234C64.9728 101.021 67.296 100.896 69.5976 100.841C69.8184 100.836 70.0416 100.834 70.2624 100.829C72.3504 100.79 74.4144 100.819 76.464 100.906C76.8168 100.92 77.1672 100.939 77.52 100.958C79.5816 101.069 81.6264 101.232 83.6544 101.465C83.82 101.484 83.9856 101.503 84.1512 101.522C86.3688 101.789 88.5696 102.12 90.756 102.53C91.8336 102.732 92.8968 102.962 93.9552 103.2H86.4C82.4304 103.2 79.2 106.43 79.2 110.4C79.2 114.37 82.4304 117.6 86.4 117.6H100.8C102.122 117.6 103.2 118.675 103.2 120C103.2 121.325 102.122 122.4 100.8 122.4H93.6C89.6304 122.4 86.4 125.63 86.4 129.6C86.4 133.57 89.6304 136.8 93.6 136.8H138.25C138.864 139.142 139.2 141.547 139.2 144H144C144 139.754 143.16 135.638 141.6 131.714ZM7.2 88.8H21.6V109.682C16.5144 112.997 12.2808 116.798 8.8968 120.914C8.7504 121.092 8.6088 121.27 8.4648 121.447C8.0472 121.97 7.5888 122.479 7.2 123.012V88.8V88.8ZM52.8 115.2C54.1224 115.2 55.2 116.275 55.2 117.6C55.2 118.925 54.1224 120 52.8 120H43.2C39.2304 120 36 123.23 36 127.2C36 131.17 39.2304 134.4 43.2 134.4H64.8C66.1224 134.4 67.2 135.475 67.2 136.8C67.2 138.125 66.1224 139.2 64.8 139.2H5.2248C5.58 137.138 6.1536 135.12 6.9456 133.157C6.9672 133.114 7.0008 133.08 7.02 133.034C9.7344 126.425 14.892 120.314 22.0344 115.2H52.8ZM60 96.672C59.8392 96.6888 59.6832 96.7176 59.5224 96.7368C58.392 96.8688 57.2712 97.0176 56.1624 97.1856C55.6896 97.2552 55.2168 97.3272 54.7464 97.404C53.9472 97.536 53.1576 97.68 52.368 97.8288C42.8856 99.6024 34.0752 102.629 26.4 106.819V86.4V45.6H60V96.672ZM88.8 52.8V97.32C88.5168 97.2744 88.2288 97.2432 87.9432 97.2024C87.072 97.0704 86.196 96.948 85.3152 96.8376C84.888 96.7848 84.4584 96.732 84.0312 96.684C83.1144 96.5808 82.1928 96.492 81.2664 96.4128C80.856 96.3768 80.448 96.3384 80.0352 96.3072C79.0632 96.2352 78.084 96.18 77.1 96.1344C76.7376 96.1176 76.3752 96.0936 76.0128 96.0792C74.6856 96.0288 73.3488 96 72 96C69.5688 96 67.1688 96.084 64.8 96.24V43.2V25.1256L76.8 15.1248L88.8 25.1256V52.8ZM93.6 98.2008V55.2H117.6V74.4V106.822C116.952 106.469 116.251 106.166 115.586 105.828C115.114 105.588 114.634 105.353 114.151 105.12C112.925 104.53 111.682 103.963 110.402 103.426V103.2H109.872C109.133 102.893 108.382 102.6 107.623 102.312C106.747 101.981 105.869 101.657 104.974 101.35C103.642 100.889 102.288 100.457 100.908 100.051C100.368 99.8928 99.8304 99.7368 99.2856 99.588C97.584 99.1224 95.8488 98.6976 94.0848 98.3184C93.9216 98.2824 93.7632 98.2344 93.6 98.2008ZM93.6 132C92.2776 132 91.2 130.925 91.2 129.6C91.2 128.275 92.2776 127.2 93.6 127.2H100.8C104.77 127.2 108 123.97 108 120C108 116.03 104.77 112.8 100.8 112.8H86.4C85.0776 112.8 84 111.725 84 110.4C84 109.075 85.0776 108 86.4 108H109.006C112.469 109.478 115.733 111.161 118.73 113.035C127.154 118.294 133.25 124.838 136.498 132H93.6ZM136.8 123.012C136.411 122.479 135.95 121.97 135.533 121.447C135.391 121.27 135.25 121.092 135.103 120.917C131.719 116.801 127.483 112.999 122.398 109.682V76.8H136.8V123.012Z" fill="#1E3444"/>
<path d="M129.6 21.6001C124.51 21.6001 119.863 24.3505 117.307 28.6009C115.315 27.1777 112.927 26.4001 110.4 26.4001C103.783 26.4001 98.4 31.7833 98.4 38.4001C98.4 39.3433 98.5368 40.3249 98.8176 41.4049C99.0912 42.4609 100.046 43.2001 101.141 43.2001H140.59C141.542 43.2001 142.406 42.6361 142.79 41.7601C143.592 39.9193 144 37.9801 144 36.0001C144 28.0585 137.542 21.6001 129.6 21.6001ZM138.89 38.4001H103.2C103.2 34.4305 106.43 31.2001 110.4 31.2001C112.69 31.2001 114.794 32.2753 116.177 34.1497C116.719 34.8865 117.626 35.2489 118.536 35.0905C119.436 34.9273 120.166 34.2649 120.418 33.3865C121.589 29.2729 125.364 26.4001 129.6 26.4001C134.894 26.4001 139.2 30.7057 139.2 36.0001C139.2 36.8113 139.097 37.6153 138.89 38.4001Z" fill="#1E3444"/>
<path d="M33.6 4.8C31.0728 4.8 28.6848 5.5776 26.6928 7.0008C24.1368 2.7504 19.4904 0 14.4 0C6.4584 0 0 6.4584 0 14.4C0 16.3824 0.408 18.3216 1.2144 20.1624C1.5984 21.036 2.46 21.6 3.4128 21.6H42.8592C43.9536 21.6 44.9088 20.8608 45.1824 19.8048C45.4632 18.7248 45.6 17.7432 45.6 16.8C45.6 10.1832 40.2168 4.8 33.6 4.8ZM5.1096 16.8C4.9032 16.0152 4.8 15.2136 4.8 14.4C4.8 9.1056 9.1056 4.8 14.4 4.8C18.636 4.8 22.4112 7.6728 23.5824 11.7864C23.8344 12.6648 24.564 13.3272 25.464 13.4904C26.3664 13.656 27.2808 13.2888 27.8232 12.5496C29.2056 10.6752 31.3104 9.6 33.6 9.6C37.5696 9.6 40.8 12.8304 40.8 16.8H5.1096Z" fill="#1E3444"/>
</svg>
