<svg width="17" height="17" viewBox="0 0 17 17" fill="none" xmlns="http://www.w3.org/2000/svg">
<path d="M8.49487 6.35779C7.73541 6.35779 7.19727 6.9742 7.19727 7.73292V12.4084C7.19727 13.1679 7.73541 13.7832 8.49487 13.7832C9.25397 13.7832 9.79173 13.1679 9.79173 12.4084V7.73292C9.79173 6.97345 9.25397 6.35779 8.49487 6.35779Z" fill="#C4C4C4"/>
<path d="M8.49981 2.7832C7.71525 2.7832 7.07861 3.41946 7.07861 4.20439C7.07861 4.98895 7.71525 5.62484 8.49981 5.62484C9.28361 5.62484 9.92025 4.98895 9.92025 4.20439C9.92025 3.41946 9.28361 2.7832 8.49981 2.7832Z" fill="#C4C4C4"/>
<path d="M8.50019 0C3.81269 0 0 3.81344 0 8.49981C0 13.1869 3.81306 16.9996 8.50019 16.9996C13.1873 16.9996 16.9996 13.1862 16.9996 8.49981C16.9996 3.81344 13.1873 0 8.50019 0ZM8.50019 15.147C4.83505 15.147 1.85335 12.165 1.85335 8.49981C1.85335 4.83467 4.83505 1.85298 8.50019 1.85298C12.165 1.85298 15.1463 4.83467 15.1463 8.49981C15.1463 12.165 12.165 15.147 8.50019 15.147Z" fill="#C4C4C4"/>
</svg>
