<svg width="84" height="83" viewBox="0 0 84 83" fill="none" xmlns="http://www.w3.org/2000/svg">
<path d="M83.9833 31.1135C83.9746 31.017 83.9554 30.9217 83.9259 30.8293C83.9067 30.7468 83.88 30.6662 83.8462 30.5885C83.8069 30.5125 83.76 30.4406 83.7062 30.3742C83.6522 30.2953 83.5897 30.2226 83.52 30.1571C83.4975 30.1376 83.4878 30.1109 83.464 30.0913L69.9996 19.6343V8.79641C69.9996 6.47678 68.119 4.5962 65.7993 4.5962H50.6267L44.5517 -0.120674C43.0509 -1.29116 40.9464 -1.29116 39.4456 -0.120674L33.3693 4.5962H18.1967C15.877 4.5962 13.9965 6.47661 13.9965 8.79641V19.6344L0.536263 30.0915C0.512473 30.1112 0.502629 30.1378 0.480315 30.1573C0.410585 30.2226 0.348074 30.2954 0.294095 30.3744C0.24028 30.4408 0.193355 30.5125 0.154143 30.5886C0.12018 30.6662 0.0936004 30.747 0.0744041 30.8295C0.0451995 30.9205 0.0260033 31.0144 0.0169794 31.1096C0.0169794 31.1389 0.000244141 31.1642 0.000244141 31.1936V78.7999C0.00221299 79.6904 0.290321 80.5567 0.822075 81.2709C0.830442 81.2836 0.831919 81.299 0.841599 81.3102C0.851443 81.3213 0.872444 81.3339 0.88639 81.3494C1.67295 82.3843 2.89626 82.9945 4.19619 83.0001H79.8C81.105 82.9961 82.3334 82.383 83.121 81.3425C83.1321 81.3285 83.149 81.3243 83.1587 81.3103C83.1685 81.2964 83.1699 81.2837 83.1784 81.2711C83.7101 80.5567 83.9982 79.6905 84.0002 78.8V31.1975C84 31.1681 83.9848 31.1429 83.9833 31.1135ZM41.1579 2.08854C41.6468 1.70002 42.3392 1.70002 42.8281 2.08854L46.058 4.59604H37.9377L41.1579 2.08854ZM4.54894 80.2001L41.1581 51.7631C41.6473 51.3753 42.3392 51.3753 42.8283 51.7631L79.4471 80.2001H4.54894ZM81.2 78.0173L44.5517 49.5537C43.0506 48.3843 40.9467 48.3843 39.4456 49.5537L2.79601 78.0173V33.3298L25.739 51.1457C26.3503 51.6197 27.2301 51.5085 27.7041 50.8972C28.1781 50.2858 28.0668 49.4061 27.4555 48.9321L4.14713 30.8334L13.9966 23.1792V33.9975C13.9966 34.7708 14.6235 35.3975 15.3966 35.3975C16.1699 35.3975 16.7967 34.7706 16.7967 33.9975V8.79625C16.7967 8.02298 17.4234 7.39623 18.1967 7.39623H65.799C66.5723 7.39623 67.199 8.02298 67.199 8.79625V33.9975C67.199 34.7708 67.8258 35.3975 68.5991 35.3975C69.3723 35.3975 69.9991 34.7706 69.9991 33.9975V23.1792L79.8486 30.8334L56.4997 48.9644C56.098 49.2688 55.8908 49.7656 55.9574 50.2652C56.024 50.7648 56.354 51.19 56.8214 51.3785C57.2888 51.5671 57.8216 51.4899 58.2162 51.1764L81.1997 33.3298V78.0173H81.2Z" fill="#BA8E4D"/>
</svg>
