<svg width="445" height="358" viewBox="0 0 445 358" fill="none" xmlns="http://www.w3.org/2000/svg">
<path d="M165 228.373H151.9V251.373H120.2V228.373H72.7002V204.773L122.2 132.373H151.9V204.373H165V228.373ZM120.2 204.373V190.573C120.2 187.973 120.3 184.473 120.5 180.073C120.7 175.673 120.8 173.373 120.9 173.073H120C118.2 177.273 116.1 181.173 113.7 184.773L100.5 204.373H120.2Z" fill="#EA6852"/>
<path d="M259.4 192.074C259.4 213.174 255.9 228.574 248.8 238.374C241.7 248.174 230.9 253.074 216.4 253.074C202.2 253.074 191.5 247.974 184.2 237.674C177 227.474 173.4 212.174 173.4 192.074C173.4 170.874 176.9 155.374 184 145.474C191.1 135.574 201.9 130.674 216.4 130.674C230.6 130.674 241.3 135.774 248.5 146.074C255.8 156.374 259.4 171.774 259.4 192.074ZM205.4 192.074C205.4 205.574 206.2 214.774 207.9 219.874C209.6 224.874 212.4 227.474 216.4 227.474C220.4 227.474 223.3 224.874 224.9 219.674C226.6 214.474 227.4 205.274 227.4 192.174C227.4 178.974 226.6 169.774 224.9 164.474C223.2 159.174 220.4 156.574 216.4 156.574C212.4 156.574 209.6 159.174 207.9 164.274C206.3 169.174 205.4 178.474 205.4 192.074Z" fill="#EA6852"/>
<path d="M360.501 228.373H347.401V251.373H315.601V228.373H268.101V204.773L317.601 132.373H347.301V204.373H360.401V228.373H360.501ZM315.601 204.373V190.573C315.601 187.973 315.701 184.473 315.901 180.073C316.101 175.673 316.201 173.373 316.301 173.073H315.401C313.601 177.273 311.501 181.173 309.101 184.773L295.901 204.373H315.601Z" fill="#EA6852"/>
<path d="M25 158.775H73.1" stroke="black" stroke-width="2.1628" stroke-miterlimit="10" stroke-linecap="round" stroke-linejoin="round"/>
<path d="M84.5996 158.775H94.8996" stroke="black" stroke-width="2.1628" stroke-miterlimit="10" stroke-linecap="round" stroke-linejoin="round"/>
<path d="M16.2002 145.275H102.4" stroke="black" stroke-width="2.1628" stroke-miterlimit="10" stroke-linecap="round" stroke-linejoin="round"/>
<path d="M9.1 145.275H2" stroke="black" stroke-width="2.1628" stroke-miterlimit="10" stroke-linecap="round" stroke-linejoin="round"/>
<path d="M16.2002 132.375H44.8002" stroke="black" stroke-width="2.1628" stroke-miterlimit="10" stroke-linecap="round" stroke-linejoin="round"/>
<path d="M52.5 132.375H112.6" stroke="black" stroke-width="2.1628" stroke-miterlimit="10" stroke-linecap="round" stroke-linejoin="round"/>
<path d="M365.2 266.275H416.7" stroke="black" stroke-width="2.1628" stroke-miterlimit="10" stroke-linecap="round" stroke-linejoin="round"/>
<path d="M425.101 266.275H432.501" stroke="black" stroke-width="2.1628" stroke-miterlimit="10" stroke-linecap="round" stroke-linejoin="round"/>
<path d="M375.5 252.775H443" stroke="black" stroke-width="2.1628" stroke-miterlimit="10" stroke-linecap="round" stroke-linejoin="round"/>
<path d="M370.4 252.775H365.2" stroke="black" stroke-width="2.1628" stroke-miterlimit="10" stroke-linecap="round" stroke-linejoin="round"/>
<path d="M365.2 239.875H396.2" stroke="black" stroke-width="2.1628" stroke-miterlimit="10" stroke-linecap="round" stroke-linejoin="round"/>
<path d="M401.8 239.875H425.1" stroke="black" stroke-width="2.1628" stroke-miterlimit="10" stroke-linecap="round" stroke-linejoin="round"/>
<path d="M171.2 227.975H158.1V250.975H126.3V227.975H78.7998V204.375L128.3 131.975H158V203.975H171.2V227.975ZM126.3 203.975V190.175C126.3 187.575 126.4 184.075 126.6 179.675C126.8 175.275 126.9 172.975 127 172.675H126.2C124.4 176.875 122.3 180.775 119.9 184.375L106.7 203.975H126.3Z" stroke="black" stroke-width="3.2675" stroke-miterlimit="10"/>
<path d="M265.6 191.675C265.6 212.775 262.1 228.175 255 237.975C247.9 247.775 237.1 252.675 222.6 252.675C208.4 252.675 197.7 247.575 190.4 237.275C183.2 227.075 179.6 211.775 179.6 191.675C179.6 170.475 183.1 154.975 190.2 145.075C197.3 135.175 208.1 130.275 222.6 130.275C236.8 130.275 247.5 135.375 254.7 145.675C262 155.975 265.6 171.275 265.6 191.675ZM211.6 191.675C211.6 205.175 212.4 214.375 214.1 219.475C215.8 224.475 218.6 227.075 222.6 227.075C226.6 227.075 229.5 224.475 231.1 219.275C232.8 214.075 233.6 204.875 233.6 191.775C233.6 178.575 232.8 169.375 231.1 164.075C229.4 158.775 226.6 156.175 222.6 156.175C218.6 156.175 215.8 158.775 214.1 163.875C212.4 168.675 211.6 178.075 211.6 191.675Z" stroke="black" stroke-width="3.2675" stroke-miterlimit="10"/>
<path d="M366.7 227.975H353.6V250.975H321.8V227.975H274.3V204.375L323.8 131.975H353.5V203.975H366.6V227.975H366.7ZM321.8 203.975V190.175C321.8 187.575 321.9 184.075 322.1 179.675C322.3 175.275 322.4 172.975 322.5 172.675H321.6C319.8 176.875 317.7 180.775 315.3 184.375L302.2 203.975H321.8Z" stroke="black" stroke-width="3.2675" stroke-miterlimit="10"/>
<path d="M177.594 288.771H166.137V298.14H179.446V300.99H162.651V274.554H179.264V277.422H166.137V285.92H177.594V288.771ZM193.481 290.296H187.271V300.99H183.767V274.554H192.519C195.497 274.554 197.784 275.232 199.382 276.587C200.992 277.943 201.797 279.916 201.797 282.506C201.797 284.153 201.349 285.587 200.453 286.81C199.57 288.032 198.335 288.946 196.749 289.551L202.959 300.772V300.99H199.219L193.481 290.296ZM187.271 287.445H192.628C194.359 287.445 195.733 286.997 196.749 286.102C197.778 285.206 198.293 284.007 198.293 282.506C198.293 280.872 197.802 279.619 196.822 278.748C195.854 277.876 194.449 277.435 192.61 277.422H187.271V287.445ZM216.395 290.296H210.186V300.99H206.681V274.554H215.433C218.411 274.554 220.698 275.232 222.296 276.587C223.906 277.943 224.711 279.916 224.711 282.506C224.711 284.153 224.263 285.587 223.368 286.81C222.484 288.032 221.249 288.946 219.663 289.551L225.873 300.772V300.99H222.133L216.395 290.296ZM210.186 287.445H215.542C217.273 287.445 218.647 286.997 219.663 286.102C220.692 285.206 221.207 284.007 221.207 282.506C221.207 280.872 220.717 279.619 219.736 278.748C218.768 277.876 217.364 277.435 215.524 277.422H210.186V287.445ZM249.949 288.625C249.949 291.216 249.514 293.479 248.642 295.416C247.77 297.341 246.536 298.811 244.938 299.828C243.34 300.845 241.476 301.353 239.346 301.353C237.264 301.353 235.418 300.845 233.808 299.828C232.198 298.799 230.945 297.341 230.049 295.452C229.166 293.552 228.712 291.355 228.688 288.861V286.955C228.688 284.413 229.129 282.167 230.013 280.219C230.897 278.27 232.143 276.781 233.753 275.752C235.375 274.711 237.227 274.191 239.309 274.191C241.428 274.191 243.292 274.705 244.902 275.734C246.524 276.751 247.77 278.233 248.642 280.182C249.514 282.119 249.949 284.377 249.949 286.955V288.625ZM246.481 286.919C246.481 283.783 245.852 281.381 244.593 279.71C243.334 278.028 241.573 277.186 239.309 277.186C237.106 277.186 235.369 278.028 234.098 279.71C232.839 281.381 232.192 283.705 232.155 286.683V288.625C232.155 291.664 232.791 294.054 234.062 295.797C235.345 297.528 237.106 298.394 239.346 298.394C241.597 298.394 243.34 297.577 244.575 295.943C245.81 294.296 246.445 291.942 246.481 288.88V286.919ZM264.874 290.296H258.665V300.99H255.16V274.554H263.912C266.89 274.554 269.178 275.232 270.775 276.587C272.385 277.943 273.19 279.916 273.19 282.506C273.19 284.153 272.742 285.587 271.847 286.81C270.963 288.032 269.728 288.946 268.143 289.551L274.352 300.772V300.99H270.612L264.874 290.296ZM258.665 287.445H264.021C265.752 287.445 267.126 286.997 268.143 286.102C269.172 285.206 269.686 284.007 269.686 282.506C269.686 280.872 269.196 279.619 268.215 278.748C267.247 277.876 265.843 277.435 264.003 277.422H258.665V287.445Z" fill="black"/>
<path d="M387.7 155.875V144.875" stroke="black" stroke-width="2.1628" stroke-miterlimit="10" stroke-linecap="round" stroke-linejoin="round"/>
<path d="M380 159.075L372.2 151.275" stroke="black" stroke-width="2.1628" stroke-miterlimit="10" stroke-linecap="round" stroke-linejoin="round"/>
<path d="M376.8 166.775H365.8" stroke="black" stroke-width="2.1628" stroke-miterlimit="10" stroke-linecap="round" stroke-linejoin="round"/>
<path d="M380 174.475L372.2 182.275" stroke="black" stroke-width="2.1628" stroke-miterlimit="10" stroke-linecap="round" stroke-linejoin="round"/>
<path d="M387.7 177.676V188.676" stroke="black" stroke-width="2.1628" stroke-miterlimit="10" stroke-linecap="round" stroke-linejoin="round"/>
<path d="M395.399 174.475L403.199 182.275" stroke="black" stroke-width="2.1628" stroke-miterlimit="10" stroke-linecap="round" stroke-linejoin="round"/>
<path d="M398.6 166.775H409.6" stroke="black" stroke-width="2.1628" stroke-miterlimit="10" stroke-linecap="round" stroke-linejoin="round"/>
<path d="M395.399 159.075L403.199 151.275" stroke="black" stroke-width="2.1628" stroke-miterlimit="10" stroke-linecap="round" stroke-linejoin="round"/>
<path d="M41.5 210.875V202.875" stroke="black" stroke-width="2.1628" stroke-miterlimit="10" stroke-linecap="round" stroke-linejoin="round"/>
<path d="M35.8992 213.175L30.1992 207.475" stroke="black" stroke-width="2.1628" stroke-miterlimit="10" stroke-linecap="round" stroke-linejoin="round"/>
<path d="M33.5996 218.676H25.5996" stroke="black" stroke-width="2.1628" stroke-miterlimit="10" stroke-linecap="round" stroke-linejoin="round"/>
<path d="M35.8992 224.275L30.1992 229.975" stroke="black" stroke-width="2.1628" stroke-miterlimit="10" stroke-linecap="round" stroke-linejoin="round"/>
<path d="M41.5 226.574V234.574" stroke="black" stroke-width="2.1628" stroke-miterlimit="10" stroke-linecap="round" stroke-linejoin="round"/>
<path d="M47 224.275L52.7 229.975" stroke="black" stroke-width="2.1628" stroke-miterlimit="10" stroke-linecap="round" stroke-linejoin="round"/>
<path d="M49.2998 218.676H57.2998" stroke="black" stroke-width="2.1628" stroke-miterlimit="10" stroke-linecap="round" stroke-linejoin="round"/>
<path d="M47 213.175L52.7 207.475" stroke="black" stroke-width="2.1628" stroke-miterlimit="10" stroke-linecap="round" stroke-linejoin="round"/>
<path d="M257.4 46.0742V38.0742" stroke="black" stroke-width="2.1628" stroke-miterlimit="10" stroke-linecap="round" stroke-linejoin="round"/>
<path d="M251.8 48.3738L246.2 42.6738" stroke="black" stroke-width="2.1628" stroke-miterlimit="10" stroke-linecap="round" stroke-linejoin="round"/>
<path d="M249.5 53.875H241.5" stroke="black" stroke-width="2.1628" stroke-miterlimit="10" stroke-linecap="round" stroke-linejoin="round"/>
<path d="M251.8 59.4746L246.2 65.0746" stroke="black" stroke-width="2.1628" stroke-miterlimit="10" stroke-linecap="round" stroke-linejoin="round"/>
<path d="M257.4 61.7734V69.7734" stroke="black" stroke-width="2.1628" stroke-miterlimit="10" stroke-linecap="round" stroke-linejoin="round"/>
<path d="M263 59.4746L268.6 65.0746" stroke="black" stroke-width="2.1628" stroke-miterlimit="10" stroke-linecap="round" stroke-linejoin="round"/>
<path d="M265.3 53.875H273.2" stroke="black" stroke-width="2.1628" stroke-miterlimit="10" stroke-linecap="round" stroke-linejoin="round"/>
<path d="M263 48.3738L268.6 42.6738" stroke="black" stroke-width="2.1628" stroke-miterlimit="10" stroke-linecap="round" stroke-linejoin="round"/>
<path d="M354.9 267.674H81.0996V310.774H354.9V267.674Z" stroke="black" stroke-width="2.4187" stroke-miterlimit="10" stroke-linecap="round" stroke-linejoin="round"/>
<path d="M102.4 112.975V78.4746H281.9V155.175" stroke="black" stroke-width="2.1628" stroke-miterlimit="10" stroke-linecap="round" stroke-linejoin="round"/>
<path d="M218.6 53.875V97.175H337.7V116.775" stroke="black" stroke-width="2.1628" stroke-miterlimit="10" stroke-linecap="round" stroke-linejoin="round"/>
<path d="M106.7 117.275C106.7 119.675 104.8 121.575 102.4 121.575C99.9996 121.575 98.0996 119.675 98.0996 117.275C98.0996 114.875 99.9996 112.975 102.4 112.975C104.8 112.975 106.7 114.875 106.7 117.275Z" stroke="black" stroke-width="2.1628" stroke-miterlimit="10" stroke-linecap="round" stroke-linejoin="round"/>
<path d="M218.6 53.8754C220.975 53.8754 222.9 51.9502 222.9 49.5754C222.9 47.2006 220.975 45.2754 218.6 45.2754C216.225 45.2754 214.3 47.2006 214.3 49.5754C214.3 51.9502 216.225 53.8754 218.6 53.8754Z" stroke="black" stroke-width="2.1628" stroke-miterlimit="10" stroke-linecap="round" stroke-linejoin="round"/>
<path d="M341.9 121.575C341.9 123.975 340 125.875 337.6 125.875C335.2 125.875 333.3 123.975 333.3 121.575C333.3 119.175 335.2 117.275 337.6 117.275C340 117.275 341.9 119.175 341.9 121.575Z" stroke="black" stroke-width="2.1628" stroke-miterlimit="10" stroke-linecap="round" stroke-linejoin="round"/>
<path d="M286.2 160.175C286.2 162.575 284.3 164.475 281.9 164.475C279.5 164.475 277.6 162.575 277.6 160.175C277.6 157.775 279.5 155.875 281.9 155.875C284.3 155.875 286.2 157.775 286.2 160.175Z" stroke="black" stroke-width="2.1628" stroke-miterlimit="10" stroke-linecap="round" stroke-linejoin="round"/>
<path d="M74.5004 245.975L64.4004 256.075" stroke="black" stroke-width="2.1628" stroke-miterlimit="10" stroke-linecap="round" stroke-linejoin="round"/>
<path d="M64.4004 245.975L74.5004 256.075" stroke="black" stroke-width="2.1628" stroke-miterlimit="10" stroke-linecap="round" stroke-linejoin="round"/>
<path d="M79.6004 98.7754L69.4004 108.875" stroke="black" stroke-width="2.1628" stroke-miterlimit="10" stroke-linecap="round" stroke-linejoin="round"/>
<path d="M69.4004 98.7754L79.6004 108.875" stroke="black" stroke-width="2.1628" stroke-miterlimit="10" stroke-linecap="round" stroke-linejoin="round"/>
<path d="M408.3 213.674L398.1 223.774" stroke="black" stroke-width="2.1628" stroke-miterlimit="10" stroke-linecap="round" stroke-linejoin="round"/>
<path d="M398.1 213.674L408.3 223.774" stroke="black" stroke-width="2.1628" stroke-miterlimit="10" stroke-linecap="round" stroke-linejoin="round"/>
<path d="M120.7 40.975C117.5 40.975 114.5 42.175 112.2 44.075C109.9 36.975 103.2 31.875 95.4004 31.875C86.6004 31.875 79.3004 38.275 77.9004 46.675C77.0004 46.375 76.0004 46.275 75.0004 46.275C69.2004 46.275 64.4004 50.975 64.4004 56.875C64.4004 62.275 68.4004 66.675 73.6004 67.375V67.475H120.7C128 67.475 133.9 61.575 133.9 54.275C133.9 46.875 128 40.975 120.7 40.975Z" stroke="black" stroke-width="2.2614" stroke-miterlimit="10" stroke-linecap="round" stroke-linejoin="round"/>
<path d="M365.8 108.174C368.1 108.174 370.3 108.974 372 110.374C373.7 105.274 378.5 101.574 384.2 101.574C390.6 101.574 395.9 106.174 396.9 112.274C397.6 112.074 398.3 111.974 399 111.974C403.2 111.974 406.7 115.374 406.7 119.674C406.7 123.574 403.8 126.774 400 127.274V127.374H365.8C360.5 127.374 356.2 123.074 356.2 117.774C356.2 112.474 360.5 108.174 365.8 108.174Z" stroke="black" stroke-width="2.1628" stroke-miterlimit="10" stroke-linecap="round" stroke-linejoin="round"/>
<path d="M413 289.875C411 289.875 409.2 290.575 407.8 291.775C406.4 287.475 402.3 284.375 397.5 284.375C392.1 284.375 387.7 288.275 386.8 293.375C386.2 293.175 385.6 293.075 385 293.075C381.4 293.075 378.6 295.975 378.6 299.475C378.6 302.775 381 305.475 384.2 305.875V305.975H412.9C417.3 305.975 421 302.375 421 297.875C421 293.475 417.4 289.875 413 289.875Z" stroke="black" stroke-width="2.1628" stroke-miterlimit="10" stroke-linecap="round" stroke-linejoin="round"/>
<path d="M23.5001 272.875C25.8001 272.875 28.0001 273.675 29.7001 275.075C31.4001 269.975 36.2001 266.275 41.9001 266.275C48.3001 266.275 53.6001 270.875 54.6001 276.975C55.3001 276.775 56.0001 276.675 56.7001 276.675C60.9001 276.675 64.4001 280.075 64.4001 284.375C64.4001 288.275 61.5001 291.475 57.7001 291.975V292.075H23.5001C18.2001 292.075 13.9001 287.775 13.9001 282.475C13.8001 277.175 18.1001 272.875 23.5001 272.875Z" stroke="black" stroke-width="2.1628" stroke-miterlimit="10" stroke-linecap="round" stroke-linejoin="round"/>
<path d="M133.9 34.5746C133.9 34.5746 194.3 -14.7254 276.5 7.9746C362.8 31.7746 380 93.3746 380 93.3746" stroke="black" stroke-width="2.1628" stroke-miterlimit="10" stroke-linecap="round" stroke-linejoin="round" stroke-dasharray="3.27 3.27"/>
<path d="M42.5995 177.775C19.1995 181.375 7.39954 231.175 33.6995 250.875" stroke="black" stroke-width="2.0166" stroke-miterlimit="10" stroke-linecap="round" stroke-linejoin="round" stroke-dasharray="3.05 3.05"/>
<path d="M337.7 321.275C337.7 321.275 377.8 338.775 395.4 314.375" stroke="black" stroke-width="2.1628" stroke-miterlimit="10" stroke-linecap="round" stroke-linejoin="round" stroke-dasharray="3.27 3.27"/>
<path d="M146.7 121.574V96.1738" stroke="black" stroke-width="2.1628" stroke-miterlimit="10" stroke-linecap="round" stroke-linejoin="round"/>
<path d="M140.6 121.575V108.875" stroke="black" stroke-width="2.1628" stroke-miterlimit="10" stroke-linecap="round" stroke-linejoin="round"/>
<path d="M239.9 127.375V108.875" stroke="black" stroke-width="2.1628" stroke-miterlimit="10" stroke-linecap="round" stroke-linejoin="round"/>
<path d="M232.9 125.774V118.174" stroke="black" stroke-width="2.1628" stroke-miterlimit="10" stroke-linecap="round" stroke-linejoin="round"/>
<path d="M226.8 125.775V112.975" stroke="black" stroke-width="2.1628" stroke-miterlimit="10" stroke-linecap="round" stroke-linejoin="round"/>
<path d="M152.6 121.575V108.875" stroke="black" stroke-width="2.1628" stroke-miterlimit="10" stroke-linecap="round" stroke-linejoin="round"/>
<path d="M320.6 125.075V119.375" stroke="black" stroke-width="2.1628" stroke-miterlimit="10" stroke-linecap="round" stroke-linejoin="round"/>
<path d="M314.5 125.075V111.275" stroke="black" stroke-width="2.1628" stroke-miterlimit="10" stroke-linecap="round" stroke-linejoin="round"/>
<path d="M326.5 125.074V115.174" stroke="black" stroke-width="2.1628" stroke-miterlimit="10" stroke-linecap="round" stroke-linejoin="round"/>
</svg>
