<svg width="30" height="30" viewBox="0 0 30 30" fill="none" xmlns="http://www.w3.org/2000/svg">
<path d="M8.7355 15.3718C8.7355 14.5639 8.17455 14.0818 7.18463 14.0818C6.78082 14.0818 6.50723 14.1207 6.36377 14.1598V16.7538C6.53338 16.7923 6.74187 16.8055 7.02782 16.8055C8.08397 16.8055 8.7355 16.2713 8.7355 15.3718Z" fill="#828282"/>
<path d="M14.8626 14.1077C14.419 14.1077 14.1329 14.1467 13.9629 14.1858V19.9332C14.1326 19.9729 14.4064 19.9729 14.6541 19.9729C16.4524 19.9855 17.6254 18.9955 17.6254 16.897C17.6386 15.0717 16.5696 14.1077 14.8626 14.1077Z" fill="#828282"/>
<path d="M26.6028 10.7309H25.8824V7.25505C25.8824 7.23337 25.879 7.21153 25.8761 7.18958C25.875 7.05157 25.8311 6.916 25.7366 6.80859L19.9524 0.201198C19.9507 0.199509 19.949 0.19891 19.9478 0.197058C19.9133 0.158551 19.8731 0.126525 19.8307 0.0988016C19.8181 0.0903593 19.8054 0.0832787 19.7922 0.0759802C19.7554 0.0558822 19.7163 0.0392156 19.6761 0.0271786C19.6652 0.0241285 19.6554 0.0196623 19.6446 0.01683C19.6009 0.00648147 19.5555 0 19.5095 0H5.29427C4.64514 0 4.1178 0.52794 4.1178 1.17652V10.7306H3.3976C2.469 10.7306 1.71606 11.4832 1.71606 12.4121V21.1564C1.71606 22.0847 2.469 22.8378 3.3976 22.8378H4.11785V28.8235C4.11785 29.472 4.6452 30 5.29432 30H24.706C25.3546 30 25.8825 29.4721 25.8825 28.8235V22.8378H26.6029C27.5312 22.8378 28.2843 22.0847 28.2843 21.1564V12.4124C28.2842 11.4835 27.5311 10.7309 26.6028 10.7309ZM5.29427 1.17674H18.9213V7.19596C18.9213 7.52096 19.185 7.78419 19.5095 7.78419H24.706V10.7312H5.29427V1.17674ZM19.7364 16.8313C19.7364 18.513 19.1241 19.6725 18.2757 20.3897C17.3513 21.1586 15.9434 21.5234 14.2236 21.5234C13.1942 21.5234 12.4645 21.4582 11.9686 21.3933V12.765C12.6984 12.6479 13.6505 12.5827 14.654 12.5827C16.3214 12.5827 17.4034 12.8827 18.2509 13.5209C19.1629 14.1988 19.7364 15.2803 19.7364 16.8313ZM4.39558 21.4324V12.765C5.00783 12.6613 5.86845 12.5827 7.08054 12.5827C8.30553 12.5827 9.17895 12.8174 9.76522 13.2868C10.3258 13.7297 10.7029 14.4597 10.7029 15.32C10.7029 16.1805 10.4169 16.9103 9.89518 17.4052C9.21751 18.044 8.21408 18.3309 7.04078 18.3309C6.78054 18.3309 6.54514 18.3177 6.36349 18.2915V21.4326H4.39558V21.4324ZM24.706 28.505H5.29427V22.8378H24.706V28.505H24.706ZM26.4107 14.277H23.0344V16.2842H26.1886V17.9004H23.0344V21.4324H21.0413V12.6479H26.4107V14.277Z" fill="#828282"/>
</svg>
