<svg width="54" height="80" viewBox="0 0 54 80" fill="none" xmlns="http://www.w3.org/2000/svg">
<path d="M45.978 7.84904C40.906 2.81048 34.0698 -0.0141602 26.9474 -0.0141602C19.825 -0.0141602 12.9887 2.81048 7.91675 7.84904C5.40962 10.3103 3.41737 13.2529 2.05764 16.5029C0.6979 19.753 -0.00174984 23.2446 3.28648e-06 26.7716V53.2219C-0.00080387 56.7477 0.699304 60.238 2.05901 63.4867C3.41872 66.7355 5.41048 69.6768 7.91675 72.1373C12.9887 77.1759 19.825 80.0005 26.9474 80.0005C34.0698 80.0005 40.906 77.1759 45.978 72.1373C48.4843 69.6768 50.476 66.7355 51.8357 63.4867C53.1954 60.238 53.8956 56.7477 53.8947 53.2219V26.7716C53.8965 23.2446 53.1968 19.753 51.8371 16.5029C50.4774 13.2529 48.4851 10.3103 45.978 7.84904ZM45.1849 71.3524C43.2873 73.2395 41.1141 74.8228 38.7411 76.0474L44.321 68.4983H42.8269L36.4538 77.0606C35.5721 77.4114 34.6714 77.7116 33.7559 77.9596L38.3091 68.4983H36.9708L32.276 78.3093C31.6032 78.452 30.9234 78.5661 30.2295 78.6518L32.4813 68.4983H31.2492L28.969 78.7802C28.4804 78.823 27.9848 78.8444 27.4891 78.8515V68.4983H26.2782V78.8515C25.7754 78.8515 25.2798 78.8087 24.7841 78.773L22.511 68.4983H21.2789L23.5165 78.6375C22.8084 78.5447 22.1428 78.4234 21.4701 78.2807L16.8036 68.4983H15.4653L19.9547 77.9025C19.0312 77.6471 18.1232 77.3373 17.2356 76.975L10.9616 68.4983H9.46044L14.9554 75.919C12.6588 74.7163 10.5517 73.1774 8.70275 71.3524C4.98212 67.6865 2.47675 62.9515 1.52953 57.7955L6.02607 63.8676V63.3895H7.16614L1.2038 55.3481C1.14715 54.6346 1.11883 53.9211 1.11883 53.2076V38.4448L11.0679 59.3082H12.1017V59.2725C12.1513 59.1869 12.1938 59.0941 12.2363 59.0085L1.11883 35.6764V26.7716C1.12466 20.2093 3.66419 13.9067 8.19999 9.19759L16.4071 46.3007C16.5912 44.995 16.7115 43.6749 16.7682 42.3549L9.20552 8.18439C13.844 3.78179 19.9359 1.26544 26.3065 1.12053V6.31497H27.5174V1.1134C33.8756 1.24332 39.9625 3.73325 44.6113 8.10591L37.1407 41.9197C37.1807 43.2803 37.2917 44.6379 37.4735 45.9867L45.6381 9.11197C50.2171 13.8319 52.7793 20.1712 52.7759 26.7716V35.4694L41.5735 58.8943L41.7789 59.2868H42.7065L52.7688 38.2379V53.2219C52.7688 53.8926 52.7688 54.5561 52.6909 55.2126L46.6224 63.4038H47.8687V63.7463L52.4006 57.6528C51.4702 62.8652 48.9476 67.6547 45.1849 71.3524Z" fill="#2B2D31"/>
<path d="M38.7481 23.275C38.4158 22.0612 37.6843 20.9971 36.6733 20.2568H17.2214C16.2107 20.9987 15.4773 22.0619 15.1395 23.275H38.7481Z" fill="#2B2D31"/>
<path d="M43.4146 60.3496H10.4801V63.3678H43.4146V60.3496Z" fill="#2B2D31"/>
<path d="M38.5923 26.7072C38.6479 26.5698 38.6952 26.4293 38.7339 26.2862C38.8763 25.7875 38.9478 25.271 38.9464 24.7521C38.9536 24.619 38.9536 24.4856 38.9464 24.3525H14.9554C14.9554 24.481 14.9554 24.6165 14.9554 24.7521C14.9575 25.2708 15.0289 25.7868 15.1678 26.2862C15.2032 26.4003 15.2528 26.543 15.3094 26.7072C15.3803 26.8998 15.4581 27.1281 15.5502 27.3707H38.3586C38.4436 27.1139 38.5286 26.8998 38.5923 26.7072Z" fill="#2B2D31"/>
<path d="M46.8348 64.4453H7.05994V67.4706H46.8348V64.4453Z" fill="#2B2D31"/>
<path d="M38.9464 7.29932H35.0518V10.9525H38.9464V7.29932Z" fill="#2B2D31"/>
<path d="M34.9101 46.3788C32.9557 49.0973 31.2209 51.088 30.0737 52.4009C28.4238 54.2917 27.4395 55.255 26.0799 56.6392C25.3718 57.3527 24.5362 58.1804 23.4741 59.2792H32.2476C33.1257 58.2232 34.1312 56.9674 35.2076 55.4762C36.0573 54.3012 36.8669 53.0978 37.6364 51.8657C36.9323 49.4405 36.4581 46.9535 36.2202 44.438C35.8095 45.0802 35.3633 45.7295 34.9101 46.3788Z" fill="#2B2D31"/>
<path d="M17.2214 19.1794H36.6733C37.6831 18.435 38.4141 17.369 38.7481 16.1541H15.1395C15.4789 17.3684 16.2118 18.4334 17.2214 19.1794Z" fill="#2B2D31"/>
<path d="M14.9554 15.0767H38.9464C38.9536 14.9436 38.9536 14.8102 38.9464 14.6771C38.9464 14.5987 38.9464 14.5202 38.9464 14.4417V12.0371H14.9413V14.4417C14.9413 14.5202 14.9413 14.5987 14.9413 14.6771C14.9413 14.7556 14.9484 14.984 14.9554 15.0767Z" fill="#2B2D31"/>
<path d="M25.0957 10.9597H30.0595V7.29932H26.9509H26.9438H23.8281V10.9597H24.0122H25.0957Z" fill="#2B2D31"/>
<path d="M21.5551 7.29932H19.9264V10.9525H21.5551V7.29932Z" fill="#2B2D31"/>
<path d="M33.9613 7.29932H32.3397V10.9525H33.9613V7.29932Z" fill="#2B2D31"/>
<path d="M33.6426 59.2721H40.6034C39.5878 57.3279 38.7351 55.3016 38.0541 53.2144C37.4216 54.1943 36.7654 55.1456 36.0856 56.0684C35.2146 57.3028 34.3932 58.3517 33.6426 59.2721Z" fill="#2B2D31"/>
<path d="M18.843 7.29932H14.9413V10.9525H18.843V7.29932Z" fill="#2B2D31"/>
<path d="M22.0649 48.2054L22.773 47.4491C24.4371 45.6938 25.5418 44.595 26.519 43.6103C27.8644 42.2689 28.8416 41.2914 30.4702 39.4291C31.6032 38.1305 33.3027 36.1683 35.2359 33.4855C36.029 32.3819 36.7819 31.2545 37.4948 30.1034C37.6506 29.5468 37.8134 28.9974 37.9904 28.448H32.0777L31.0297 29.4969C30.0595 30.4744 28.9549 31.5732 27.305 33.3142L26.5969 34.0777C24.5954 36.0841 22.7043 38.1993 20.9319 40.4137C19.7306 41.9863 18.6103 43.62 17.5755 45.3085C17.0743 49.738 15.8367 54.0508 13.9145 58.0663C14.6793 56.8961 15.4865 55.7473 16.3362 54.6342C18.1266 52.3864 20.0391 50.2402 22.0649 48.2054Z" fill="#2B2D31"/>
<path d="M18.6022 30.3674C19.105 29.7109 19.6148 29.0902 20.1742 28.448H15.9255C16.3539 29.8028 16.7108 31.1794 16.9948 32.5722C17.5046 31.823 18.0428 31.088 18.6022 30.3674Z" fill="#2B2D31"/>
<path d="M36.1139 34.1063C34.1595 36.8319 32.4246 38.8155 31.2775 40.1355C29.6276 42.0264 28.6433 42.9896 27.2837 44.3738C26.3065 45.3442 25.2089 46.4502 23.5519 48.184L22.8438 48.9475C20.8426 50.9542 18.9515 53.0694 17.1789 55.2836C16.2017 56.5774 15.2764 57.907 14.4031 59.2722H21.9516C23.3678 57.7738 24.3946 56.7677 25.2868 55.8758C26.6322 54.5272 27.6024 53.5569 29.231 51.6874C30.9217 49.7897 32.5146 47.8059 34.0037 45.7438C34.7119 44.7306 35.42 43.6889 36.1281 42.6328C36.1186 42.0049 36.1139 41.377 36.1139 40.7491C36.1115 38.1993 36.3486 35.655 36.822 33.1501C36.5813 33.4712 36.3618 33.7923 36.1139 34.1063Z" fill="#2B2D31"/>
<path d="M20.0468 39.7646C21.8435 37.5202 23.7606 35.3765 25.7896 33.3429L26.4977 32.5795C28.1618 30.8313 29.2735 29.7254 30.2507 28.7479L30.534 28.4553H21.6188C20.8186 29.3472 20.1246 30.1535 19.459 31.024C18.6943 32.0229 17.9625 33.0456 17.2639 34.0921C17.6311 36.2943 17.8158 38.5234 17.8162 40.7564C17.8162 41.5128 17.8162 42.2548 17.7525 42.9969C18.4842 41.8933 19.2489 40.8159 20.0468 39.7646Z" fill="#2B2D31"/>
</svg>
