<svg width="184" height="54" viewBox="0 0 184 54" fill="none" xmlns="http://www.w3.org/2000/svg">
<g clip-path="url(#clip0)">
<path fill-rule="evenodd" clip-rule="evenodd" d="M37.8793 36.1884L55.4553 53.8723C55.5275 53.9454 55.6359 54 55.7442 54H58.4899C58.6345 54 58.815 53.9088 58.8872 53.7811C58.9778 53.6171 58.9415 53.4167 58.815 53.289L41.2393 35.6049C41.1668 35.532 41.0585 35.4774 40.9501 35.4774H38.2044C38.0601 35.4774 37.8793 35.5686 37.8071 35.696C37.7168 35.8604 37.7531 36.0607 37.8793 36.1884ZM26.7884 0C41.6004 0 53.6127 12.0871 53.6127 27C53.6127 31.7218 52.4026 36.1518 50.307 40.0169C50.2349 40.1626 50.0903 40.2355 49.9097 40.2355C49.8194 40.2355 49.7292 40.1809 49.6567 40.1081L48.2117 38.6495C48.0852 38.522 48.0493 38.3214 48.1396 38.1574C49.8735 34.821 50.849 31.0291 50.849 27C50.849 13.6367 40.0833 2.80757 26.8064 2.80757C13.5297 2.80757 2.76381 13.6367 2.76381 27C2.76381 40.3633 13.5297 51.1923 26.8064 51.1923C30.7984 51.1923 34.5739 50.2081 37.8974 48.476C38.0601 48.3849 38.2588 48.4215 38.3853 48.5489L39.8302 50.0075C39.9024 50.0804 39.9386 50.1715 39.9568 50.2627C39.9749 50.445 39.8846 50.5907 39.74 50.6636C35.9105 52.7969 31.5028 54 26.8245 54C12.0124 54 8.13993e-05 41.913 8.13993e-05 27C-0.0360459 12.0871 11.9582 0 26.7884 0ZM5.52753 27C5.52753 38.8135 15.047 48.4032 26.7884 48.4032C29.8954 48.4032 32.8397 47.7285 35.495 46.5254C35.6397 46.4525 35.7659 46.3247 35.7659 46.1607C35.7659 46.033 35.7299 45.9238 35.6397 45.8326L34.1403 44.3375C34.0138 44.21 33.8511 44.1735 33.6887 44.2463C31.5572 45.1216 29.2089 45.5954 26.7522 45.5954C16.5463 45.5954 8.27319 37.2641 8.27319 27C8.27319 16.736 16.5463 8.40446 26.7522 8.40446C29.2089 8.40446 31.539 8.87847 33.6887 9.75353C33.8511 9.82646 34.0138 9.79 34.1403 9.6624L35.6215 8.16747C35.7118 8.07631 35.7659 7.96692 35.7478 7.83929C35.7299 7.67523 35.6397 7.5476 35.5132 7.49291C32.8397 6.27143 29.8773 5.5969 26.7703 5.5969C15.047 5.5969 5.52753 15.1681 5.52753 27ZM30.0038 36.1884L47.5795 53.8723C47.6517 53.9454 47.7601 54 47.8685 54H50.6141C50.7587 54 50.9393 53.9088 51.0117 53.7811C51.102 53.6171 51.0658 53.4167 50.9393 53.289L33.3635 35.6049C33.2914 35.532 33.183 35.4774 33.0746 35.4774H30.329C30.1843 35.4774 30.0038 35.5686 29.9313 35.696C29.8592 35.8604 29.8773 36.0607 30.0038 36.1884Z" fill="url(#paint0_linear)"/>
<path fill-rule="evenodd" clip-rule="evenodd" d="M124.459 22.0645L126.615 19.0451C126.787 18.7838 127.132 18.7257 127.391 18.8999C129.03 20.0322 130.812 20.5838 132.882 20.5838C134.952 20.5838 136.217 19.887 136.217 18.7548C136.217 17.6225 135.154 17.0419 132.681 16.8096C127.161 16.287 124.689 14.3709 124.689 10.6257C124.689 6.67736 128.081 4.06445 133.199 4.06445C135.844 4.06445 138.431 4.76123 140.386 5.98058C140.674 6.15478 140.731 6.53219 140.559 6.79349L138.69 9.69671C138.517 9.958 138.173 10.0451 137.914 9.8709C136.591 9.08703 135.067 8.65155 133.486 8.65155C131.301 8.65155 129.979 9.31929 129.979 10.3935C129.979 11.4967 130.899 11.9903 133.458 12.2515C138.748 12.8032 141.565 15.0677 141.565 18.8128C141.565 22.7612 138.057 25.4322 132.911 25.4322C129.777 25.4322 126.701 24.5032 124.574 22.8774C124.315 22.7032 124.257 22.3257 124.459 22.0645ZM77.5962 26.7096L75.6125 24.6773C75.44 24.5031 75.21 24.4741 74.98 24.5612C73.5425 25.1418 71.875 25.4612 70.035 25.4612C63.2788 25.4612 58.9375 21.2805 58.9375 14.7773C58.9375 8.27407 63.2788 4.09346 70.035 4.09346C76.7913 4.09346 81.1325 8.27407 81.1325 14.7773C81.1325 17.0128 80.615 18.987 79.6663 20.5837C79.5225 20.816 79.58 21.1064 79.7525 21.2806L81.3625 22.9644C81.5925 23.1967 81.5925 23.545 81.3625 23.7773L78.4013 26.7386C78.2 26.9418 77.8262 26.9418 77.5962 26.7096ZM75.67 14.7483C75.67 11.2064 73.4563 8.91278 70.035 8.91278C66.6138 8.91278 64.4 11.2064 64.4 14.7483C64.4 18.2902 66.6138 20.5837 70.035 20.5837C73.4563 20.5837 75.67 18.2902 75.67 14.7483ZM83.6337 15.9677V5.16768C83.6337 4.84832 83.8925 4.58703 84.2087 4.58703H88.5212C88.8375 4.58703 89.0962 4.84832 89.0962 5.16768V15.9677C89.0962 18.8709 90.505 20.5548 93.035 20.5548C95.5075 20.5548 96.9737 18.8709 96.9737 15.9677V5.16768C96.9737 4.84832 97.2325 4.58703 97.5487 4.58703H101.861C102.177 4.58703 102.436 4.84832 102.436 5.16768V15.9677C102.436 21.9484 99.0725 25.3451 93.035 25.3451C86.9975 25.3451 83.6337 21.9484 83.6337 15.9677ZM122.188 24.329V20.9612C122.188 20.6419 121.929 20.3806 121.612 20.3806H112.01C111.694 20.3806 111.435 20.1193 111.435 19.7999V17.3322C111.435 17.0128 111.694 16.7515 112.01 16.7515H120.635C120.951 16.7515 121.21 16.4903 121.21 16.1709V13.0354C121.21 12.7161 120.951 12.4548 120.635 12.4548H112.01C111.694 12.4548 111.435 12.1935 111.435 11.8741V9.63865C111.435 9.31929 111.694 9.058 112.01 9.058H121.21C121.526 9.058 121.785 8.79671 121.785 8.47736V5.16768C121.785 4.84832 121.526 4.58703 121.21 4.58703H106.749C106.432 4.58703 106.174 4.84832 106.174 5.16768V24.329C106.174 24.6483 106.432 24.9096 106.749 24.9096H121.612C121.929 24.9096 122.188 24.6483 122.188 24.329ZM154.474 9.29029H159.246C159.563 9.29029 159.821 9.029 159.821 8.70964V5.16768C159.821 4.84832 159.563 4.58703 159.246 4.58703H143.089C142.772 4.58703 142.514 4.84832 142.514 5.16768V8.70964C142.514 9.029 142.772 9.29029 143.089 9.29029H147.861C148.177 9.29029 148.436 9.55158 148.436 9.87093V24.329C148.436 24.6483 148.695 24.9096 149.011 24.9096H153.324C153.64 24.9096 153.899 24.6483 153.899 24.329V9.87093C153.899 9.55158 154.157 9.29029 154.474 9.29029ZM58.9663 39.0774C58.9663 32.5741 63.4512 28.4225 69.8337 28.4225C72.7087 28.4225 75.095 29.3515 77.1362 31.2096C77.395 31.4419 77.395 31.8193 77.165 32.0515L74.6638 34.6354C74.4625 34.8386 74.1175 34.8677 73.8875 34.6935C72.7375 33.7354 71.4725 33.2999 69.9488 33.2999C66.6425 33.2999 64.4288 35.6225 64.4288 39.1064C64.4288 42.5903 66.6425 44.9128 69.9488 44.9128C71.6163 44.9128 73.1687 44.3612 74.405 43.3161C74.635 43.1128 75.0088 43.1419 75.21 43.3741L77.5388 46.1032C77.74 46.3354 77.7113 46.7128 77.4812 46.9161C75.325 48.8322 72.8238 49.7322 69.9488 49.7322C63.1925 49.7322 58.9663 45.4354 58.9663 39.0774ZM87.1987 42.6774H88.3487C88.5212 42.6774 88.6937 42.7645 88.8087 42.9096L93.15 48.9774C93.265 49.1225 93.4375 49.2096 93.61 49.2096H98.5263C99.015 49.2096 99.2737 48.658 98.9862 48.2806L94.6737 42.7064C94.4437 42.4161 94.53 42.0096 94.875 41.8354C97.2325 40.7032 98.4688 38.6128 98.4688 35.8838C98.4688 31.7612 95.5938 28.916 91.1375 28.916H81.7362C81.42 28.916 81.1612 29.1774 81.1612 29.4967V48.658C81.1612 48.9774 81.42 49.2386 81.7362 49.2386H86.0487C86.365 49.2386 86.6237 48.9774 86.6237 48.658V43.258C86.6237 42.9386 86.8825 42.6774 87.1987 42.6774ZM87.1413 33.5032H90.3038C92.115 33.5032 93.0925 34.3741 93.0925 35.9709C93.0925 37.5677 92.115 38.4386 90.3038 38.4386H87.1413C86.825 38.4386 86.5663 38.1774 86.5663 37.858V34.0838C86.5663 33.7645 86.825 33.5032 87.1413 33.5032ZM112.499 41.5451V48.658C112.499 48.9774 112.24 49.2386 111.924 49.2386H107.611C107.295 49.2386 107.036 48.9774 107.036 48.658V41.5741C107.036 41.458 107.007 41.3419 106.95 41.2548L99.705 29.8161C99.4462 29.4386 99.7337 28.916 100.194 28.916H105.167C105.369 28.916 105.57 29.0322 105.656 29.2064L109.336 35.4483C109.566 35.8257 110.084 35.8257 110.314 35.4483L114.08 29.2064C114.195 29.0322 114.368 28.916 114.569 28.916H119.6C120.06 28.916 120.348 29.4386 120.089 29.8161L112.585 41.2257C112.528 41.3128 112.499 41.429 112.499 41.5451ZM132.882 43.7225C137.799 43.7225 140.817 40.9064 140.817 36.3193C140.817 31.7322 137.799 28.916 132.882 28.916H123.711C123.395 28.916 123.136 29.1774 123.136 29.4967V48.658C123.136 48.9774 123.395 49.2386 123.711 49.2386H128.024C128.34 49.2386 128.599 48.9774 128.599 48.658V44.3032C128.599 43.9838 128.857 43.7225 129.174 43.7225H132.882ZM132.652 33.7354C134.349 33.7354 135.384 34.7515 135.384 36.3483C135.384 37.9451 134.349 38.9612 132.652 38.9612H129.116C128.8 38.9612 128.541 38.6999 128.541 38.3806V34.3161C128.541 33.9967 128.8 33.7354 129.116 33.7354H132.652ZM159.246 33.6193H154.474C154.157 33.6193 153.899 33.8806 153.899 34.1999V48.658C153.899 48.9774 153.64 49.2386 153.324 49.2386H149.011C148.695 49.2386 148.436 48.9774 148.436 48.658V34.1999C148.436 33.8806 148.177 33.6193 147.861 33.6193H143.089C142.772 33.6193 142.514 33.358 142.514 33.0386V29.4967C142.514 29.1774 142.772 28.916 143.089 28.916H159.246C159.563 28.916 159.821 29.1774 159.821 29.4967V33.0386C159.821 33.358 159.563 33.6193 159.246 33.6193ZM172.759 28.3935C166.003 28.3935 161.661 32.5741 161.661 39.0774C161.661 45.5806 166.003 49.7612 172.759 49.7612C179.515 49.7612 183.856 45.5806 183.856 39.0774C183.856 32.5741 179.515 28.3935 172.759 28.3935ZM172.759 33.2419C176.18 33.2419 178.394 35.5354 178.394 39.0774C178.394 42.6193 176.18 44.9128 172.759 44.9128C169.338 44.9128 167.124 42.6193 167.124 39.0774C167.124 35.5354 169.338 33.2419 172.759 33.2419Z" fill="url(#paint1_linear)"/>
</g>
<defs>
<linearGradient id="paint0_linear" x1="18.1562" y1="37.3535" x2="37.0337" y2="16.7499" gradientUnits="userSpaceOnUse">
<stop stop-color="#BA8E4D"/>
<stop offset="0.5305" stop-color="#D4A863"/>
<stop offset="1" stop-color="#E6BA73"/>
</linearGradient>
<linearGradient id="paint1_linear" x1="97.4197" y1="35.6742" x2="107.767" y2="7.38769" gradientUnits="userSpaceOnUse">
<stop stop-color="#BA8E4D"/>
<stop offset="0.5305" stop-color="#D4A863"/>
<stop offset="1" stop-color="#E6BA73"/>
</linearGradient>
<clipPath id="clip0">
<rect width="184" height="54" fill="white"/>
</clipPath>
</defs>
</svg>
