<svg width="155" height="48" viewBox="0 0 155 48" fill="none" xmlns="http://www.w3.org/2000/svg">
<g clip-path="url(#clip0)">
<path d="M42.269 19.265L44.0021 16.8847C45.2764 17.853 46.8444 18.3674 48.4517 18.3446C50.1544 18.3446 51.2203 17.7452 51.2203 16.7863C51.2203 15.8273 50.3191 15.4077 48.3087 15.1894C44.4094 14.7613 42.6503 13.477 42.6503 10.934C42.6503 8.39098 45.0593 6.60575 48.5254 6.60575C50.4584 6.58132 52.3532 7.13824 53.9585 8.20261L52.3771 10.4973C51.286 9.75552 49.9927 9.35843 48.6683 9.35852C47.0089 9.35852 45.9215 9.94075 45.9215 10.8398C45.9215 11.7388 46.7013 12.1541 48.729 12.3938C52.6284 12.8219 54.5087 14.2733 54.5087 16.7906C54.5087 19.4449 52.0695 21.2215 48.4647 21.2215C46.2382 21.2588 44.061 20.5713 42.269 19.265Z" fill="#2B2D31"/>
<path d="M67.2598 9.77812H62.8708V20.909H59.5087V9.77812H55.1458V6.92261H67.2771L67.2598 9.77812Z" fill="#2B2D31"/>
<path d="M74.1141 16.2897H72.1688V20.9048H68.8066V6.92261H75.7952C78.932 6.92261 80.9597 8.84055 80.9597 11.6575C81.0027 12.6421 80.7026 13.6114 80.1097 14.4037C79.5168 15.1961 78.6668 15.7635 77.7015 16.0114L81.7612 20.9048H77.7622L74.1141 16.2897ZM75.4139 9.71818H72.1558V13.6525H75.3879C76.822 13.6525 77.6236 12.9547 77.6236 11.6961C77.6236 10.4374 76.8393 9.71818 75.3879 9.71818H75.4139Z" fill="#2B2D31"/>
<path d="M107.302 9.77812H102.917V20.909H99.5553V9.77812H95.188V6.92261H107.319L107.302 9.77812Z" fill="#2B2D31"/>
<path d="M120.014 18.1477V20.9048H108.853V6.92261H119.797V9.65825H112.111V12.4966H119.386V15.1338H112.111V18.1306L120.014 18.1477Z" fill="#2B2D31"/>
<path d="M134.957 12.6335V18.8668C133.501 20.3823 131.348 21.2214 128.783 21.2214C124.195 21.2214 121.223 18.3488 121.223 13.9135C121.223 9.58101 124.377 6.58422 129.021 6.58422C130.043 6.55406 131.06 6.73971 132.004 7.12878C132.948 7.51784 133.796 8.10136 134.494 8.84037L132.466 10.7968C131.536 9.90933 130.293 9.41483 129 9.41833C126.231 9.41833 124.528 11.1308 124.528 13.9135C124.528 16.6962 126.262 18.4087 128.861 18.4087C130.03 18.4603 131.178 18.0991 132.102 17.3898V15.2492H128.203V12.6335H134.957Z" fill="#2B2D31"/>
<path d="M136.729 6.92261H140.091V20.9048H136.729V6.92261Z" fill="#2B2D31"/>
<path d="M141.677 13.9135C141.677 9.5211 144.857 6.60565 149.346 6.60565C150.356 6.58803 151.359 6.77151 152.295 7.14516C153.232 7.51881 154.082 8.07496 154.796 8.78046L152.725 10.7969C152.289 10.3788 151.772 10.0502 151.207 9.82977C150.641 9.60937 150.036 9.50156 149.428 9.51254C146.829 9.51254 145.061 11.2678 145.061 13.905C145.061 16.5421 146.824 18.2974 149.428 18.2974C150.768 18.3121 152.06 17.8116 153.033 16.9018L155 19.0423C154.258 19.7503 153.382 20.3068 152.423 20.68C151.463 21.0531 150.438 21.2357 149.407 21.2171C144.71 21.2214 141.677 18.246 141.677 13.9135Z" fill="#2B2D31"/>
<path d="M43.1704 27.4375H46.5325V38.4657H53.7507V41.4197H43.1704V27.4375Z" fill="#2B2D31"/>
<path d="M65.02 38.9024H58.872L57.9448 41.4197H54.5913L60.2237 27.4375H63.7765L69.3223 41.4197H65.9471L65.02 38.9024ZM59.9204 36.0854H63.9888L61.9568 30.5756L59.9204 36.0854Z" fill="#2B2D31"/>
<path d="M83.0133 27.4375V41.4197H80.0021L73.5032 32.7718L73.5422 36.5477V41.4197H70.1887V27.4375H73.2216L79.7205 36.1282L79.6815 32.3908V27.4375H83.0133Z" fill="#2B2D31"/>
<path d="M98.2556 34.4286C98.2556 38.6626 95.3441 41.4197 90.8901 41.4197H84.9934V27.4375H90.8771C95.3441 27.4375 98.2556 30.1945 98.2556 34.4286ZM94.8935 34.4286C94.8935 31.8942 93.2514 30.293 90.8771 30.293H88.3555V38.5642H90.8771C93.2731 38.5642 94.8848 36.9673 94.8848 34.4286H94.8935Z" fill="#2B2D31"/>
<path d="M92.8612 18.3789H86.7089L85.786 20.8919H82.4456L88.0477 6.91406H91.6004L97.1635 20.8919H93.7884L92.8612 18.3789ZM87.7617 15.5619H91.8517L89.8154 10.0478L87.7617 15.5619Z" fill="#2B2D31"/>
<path d="M28.1318 4.70986C25.0285 1.68673 20.8457 -0.00805664 16.4878 -0.00805664C12.13 -0.00805664 7.94719 1.68673 4.84389 4.70986C3.3099 6.18664 2.09093 7.95217 1.25897 9.90219C0.427012 11.8522 -0.00107064 13.9472 2.01084e-06 16.0634V31.9335C-0.00049185 34.049 0.427872 36.1432 1.25981 38.0925C2.09176 40.0417 3.31042 41.8065 4.84389 43.2828C7.94719 46.3059 12.13 48.0007 16.4878 48.0007C20.8457 48.0007 25.0285 46.3059 28.1318 43.2828C29.6653 41.8065 30.8839 40.0417 31.7159 38.0925C32.5478 36.1432 32.9762 34.049 32.9757 31.9335V16.0634C32.9768 13.9472 32.5487 11.8522 31.7167 9.90219C30.8848 7.95217 29.6658 6.18664 28.1318 4.70986ZM27.6465 42.8119C26.4855 43.9441 25.1558 44.8941 23.7038 45.6289L27.118 41.0994H26.2038L22.3044 46.2368C21.7649 46.4473 21.2138 46.6274 20.6537 46.7762L23.4396 41.0994H22.6207L19.7481 46.986C19.3365 47.0716 18.9206 47.1401 18.496 47.1915L19.8738 41.0994H19.1199L17.7248 47.2685C17.4259 47.2942 17.1226 47.3071 16.8193 47.3114V41.0994H16.0784V47.3114C15.7708 47.3114 15.4675 47.2857 15.1642 47.2643L13.7734 41.0994H13.0196L14.3887 47.1829C13.9554 47.1273 13.5482 47.0545 13.1365 46.9689L10.2813 41.0994H9.46248L12.2094 46.742C11.6443 46.5887 11.0888 46.4028 10.5456 46.1854L6.70692 41.0994H5.7884L9.15053 45.5518C7.74533 44.8302 6.45609 43.9069 5.32481 42.8119C3.04833 40.6123 1.51541 37.7713 0.935851 34.6777L3.68707 38.321V38.0342H4.38463L0.73655 33.2093C0.701889 32.7812 0.684558 32.3531 0.684558 31.925V23.0673L6.77191 35.5854H7.40447V35.5639C7.4348 35.5126 7.4608 35.4569 7.48679 35.4055L0.684558 21.4063V16.0634C0.688128 12.126 2.24195 8.34445 5.01719 5.51899L10.0387 27.7809C10.1514 26.9974 10.225 26.2054 10.2597 25.4134L5.63243 4.91107C8.4705 2.26951 12.1978 0.759705 16.0957 0.672759V3.78942H16.8366V0.668478C20.7269 0.746431 24.4512 2.24039 27.2956 4.86398L22.7247 25.1522C22.7491 25.9686 22.8171 26.7832 22.9283 27.5925L27.9238 5.46762C30.7255 8.29958 32.2932 12.1031 32.2911 16.0634V21.2821L25.4369 35.337L25.5625 35.5725H26.1301L32.2868 22.9432V31.9335C32.2868 32.336 32.2868 32.7341 32.2391 33.128L28.5261 38.0427H29.2886V38.2482L32.0615 34.5921C31.4922 37.7196 29.9487 40.5932 27.6465 42.8119Z" fill="#2B2D31"/>
<path d="M23.7082 13.965C23.5048 13.2367 23.0573 12.5982 22.4387 12.1541H10.537C9.91856 12.5992 9.46985 13.2371 9.26318 13.965H23.7082Z" fill="#2B2D31"/>
<path d="M26.5634 36.2097H6.41235V38.0206H26.5634V36.2097Z" fill="#2B2D31"/>
<path d="M23.6127 16.0241C23.6467 15.9417 23.6757 15.8574 23.6994 15.7715C23.7865 15.4723 23.8302 15.1624 23.8294 14.8511C23.8338 14.7712 23.8338 14.6912 23.8294 14.6113H9.15039C9.15039 14.6884 9.15039 14.7697 9.15039 14.8511C9.15167 15.1623 9.19539 15.4719 9.28037 15.7715C9.30203 15.84 9.33236 15.9256 9.36702 16.0241C9.41035 16.1397 9.45801 16.2767 9.51433 16.4222H23.4697C23.5217 16.2681 23.5737 16.1397 23.6127 16.0241Z" fill="#2B2D31"/>
<path d="M28.656 38.667H4.31958V40.4822H28.656V38.667Z" fill="#2B2D31"/>
<path d="M23.8295 4.37939H21.4465V6.57133H23.8295V4.37939Z" fill="#2B2D31"/>
<path d="M21.36 27.8273C20.1642 29.4584 19.1027 30.6529 18.4008 31.4406C17.3913 32.5751 16.7891 33.153 15.9572 33.9836C15.5239 34.4117 15.0127 34.9083 14.3628 35.5676H19.7309C20.2682 34.934 20.8834 34.1805 21.542 33.2857C22.0619 32.5808 22.5573 31.8587 23.0281 31.1195C22.5973 29.6644 22.3071 28.1721 22.1615 26.6628C21.9102 27.0481 21.6373 27.4377 21.36 27.8273Z" fill="#2B2D31"/>
<path d="M10.537 11.5076H22.4387C23.0566 11.0609 23.5038 10.4214 23.7082 9.69238H9.26318C9.47083 10.421 9.91923 11.06 10.537 11.5076Z" fill="#2B2D31"/>
<path d="M9.15051 9.04593H23.8295C23.8339 8.96607 23.8339 8.88604 23.8295 8.80618C23.8295 8.75909 23.8295 8.712 23.8295 8.66491V7.22217H9.14185V8.66491C9.14185 8.712 9.14185 8.75909 9.14185 8.80618C9.14185 8.85328 9.14618 8.99027 9.15051 9.04593Z" fill="#2B2D31"/>
<path d="M15.3549 6.57561H18.3921V4.37939H16.49H16.4857H14.5793V6.57561H14.692H15.3549Z" fill="#2B2D31"/>
<path d="M13.1886 4.37939H12.1921V6.57133H13.1886V4.37939Z" fill="#2B2D31"/>
<path d="M20.7793 4.37939H19.7871V6.57133H20.7793V4.37939Z" fill="#2B2D31"/>
<path d="M20.5842 35.5631H24.8432C24.2218 34.3966 23.7001 33.1808 23.2835 31.9285C22.8964 32.5164 22.4949 33.0872 22.079 33.6409C21.5461 34.3816 21.0435 35.0109 20.5842 35.5631Z" fill="#2B2D31"/>
<path d="M11.5291 4.37939H9.14185V6.57133H11.5291V4.37939Z" fill="#2B2D31"/>
<path d="M13.5005 28.923L13.9338 28.4692C14.952 27.4161 15.6279 26.7568 16.2258 26.166C17.049 25.3611 17.6469 24.7746 18.6434 23.6573C19.3366 22.8781 20.3764 21.7008 21.5592 20.0911C22.0445 19.4289 22.5052 18.7525 22.9413 18.0618C23.0367 17.7279 23.1363 17.3983 23.2446 17.0686H19.6269L18.9857 17.6979C18.3921 18.2844 17.7162 18.9437 16.7067 19.9883L16.2734 20.4464C15.0488 21.6503 13.8917 22.9194 12.8073 24.2481C12.0723 25.1916 11.3868 26.1718 10.7536 27.1849C10.447 29.8426 9.68977 32.4303 8.51367 34.8396C8.9816 34.1375 9.47552 33.4482 9.99543 32.7803C11.0909 31.4317 12.261 30.1439 13.5005 28.923Z" fill="#2B2D31"/>
<path d="M11.3819 18.2202C11.6895 17.8264 12.0014 17.4539 12.3437 17.0686H9.74414C10.0062 17.8815 10.2246 18.7074 10.3984 19.5431C10.7103 19.0936 11.0396 18.6526 11.3819 18.2202Z" fill="#2B2D31"/>
<path d="M22.0964 20.4638C20.9006 22.0992 19.8391 23.2894 19.1372 24.0814C18.1277 25.2159 17.5254 25.7938 16.6936 26.6244C16.0957 27.2066 15.4241 27.8702 14.4103 28.9105L13.977 29.3686C12.7526 30.5726 11.5955 31.8417 10.5109 33.1702C9.91299 33.9465 9.34686 34.7442 8.8125 35.5633H13.4311C14.2976 34.6643 14.9258 34.0607 15.4718 33.5255C16.295 32.7164 16.8885 32.1342 17.885 31.0125C18.9195 29.8739 19.8941 28.6836 20.8052 27.4463C21.2385 26.8384 21.6718 26.2134 22.105 25.5798C22.0992 25.203 22.0964 24.8263 22.0964 24.4495C22.0949 22.9196 22.24 21.393 22.5296 19.8901C22.3823 20.0828 22.248 20.2754 22.0964 20.4638Z" fill="#2B2D31"/>
<path d="M12.2657 23.8586C13.365 22.5119 14.538 21.2257 15.7795 20.0056L16.2127 19.5475C17.2309 18.4986 17.9111 17.835 18.509 17.2485L18.6823 17.073H13.2276C12.738 17.6081 12.3134 18.0919 11.9061 18.6142C11.4382 19.2136 10.9905 19.8272 10.563 20.4551C10.7877 21.7764 10.9007 23.1138 10.9009 24.4537C10.9009 24.9075 10.9009 25.3527 10.8619 25.7979C11.3096 25.1358 11.7776 24.4893 12.2657 23.8586Z" fill="#2B2D31"/>
</g>
<defs>
<clipPath id="clip0">
<rect width="155" height="48" fill="white"/>
</clipPath>
</defs>
</svg>
