<svg width="20" height="10" viewBox="0 0 20 10" fill="none" xmlns="http://www.w3.org/2000/svg">
<path d="M19.5865 9.0408H9.90482L14.3856 1.36589L17.8546 7.30783C17.9697 7.50508 18.223 7.57157 18.4201 7.45646C18.6173 7.34135 18.6839 7.08814 18.5687 6.89095L14.7426 0.337348C14.7415 0.335364 14.74 0.333654 14.7388 0.33167C14.7319 0.320203 14.7244 0.309177 14.7164 0.298427C14.714 0.295175 14.7117 0.291922 14.7092 0.288724C14.6991 0.276045 14.6885 0.263862 14.677 0.25245C14.6757 0.251127 14.6742 0.249969 14.6728 0.248646C14.6625 0.238723 14.6517 0.229406 14.6404 0.220585C14.6369 0.217774 14.6332 0.215073 14.6295 0.212426C14.6192 0.204874 14.6086 0.197872 14.5976 0.191257C14.5946 0.189438 14.5917 0.187508 14.5886 0.185744C14.5742 0.17764 14.5593 0.170198 14.544 0.163858C14.5434 0.163637 14.5428 0.163417 14.5421 0.163196C14.5278 0.157353 14.513 0.152391 14.4979 0.148146C14.4939 0.146989 14.4899 0.146051 14.4858 0.145059C14.4736 0.142027 14.4612 0.139546 14.4485 0.137617C14.4441 0.136955 14.4398 0.136183 14.4355 0.135632C14.4191 0.133647 14.4025 0.132324 14.3855 0.132324H5.61443C5.4674 0.132324 5.33145 0.210387 5.25736 0.337348L0.0563995 9.24577C-0.0182448 9.37361 -0.0188513 9.53167 0.054911 9.66012C0.128618 9.78851 0.265393 9.86773 0.413469 9.86773H5.1842C5.18464 9.86773 5.18503 9.86779 5.18547 9.86779C5.18591 9.86779 5.1863 9.86773 5.18674 9.86773H7.16525C7.1657 9.86773 7.16608 9.86779 7.16652 9.86779C7.16696 9.86779 7.16735 9.86773 7.16779 9.86773H9.18473H19.5866C19.815 9.86773 20.0001 9.68261 20.0001 9.45427C20.0001 9.22592 19.8149 9.0408 19.5865 9.0408ZM8.94729 9.0408H7.88535L11.7129 2.45457C11.8277 2.2571 11.7606 2.00406 11.5632 1.88933C11.3658 1.7745 11.1126 1.84159 10.998 2.03906L6.92892 9.0408H5.90429L10.6008 0.959256H13.6654L8.94729 9.0408ZM5.85176 0.959256H7.73115L4.12303 7.16791C4.00831 7.36538 4.07534 7.61842 4.27276 7.73315C4.33814 7.77113 4.40959 7.78921 4.48015 7.78921C4.62261 7.78921 4.76131 7.71551 4.83799 7.58342L8.68763 0.959256H9.64445L4.94787 9.0408H1.13362L5.85176 0.959256Z" fill="#302E35"/>
</svg>
