<svg width="36" height="36" viewBox="0 0 36 36" fill="none" xmlns="http://www.w3.org/2000/svg">
<rect x="1.24268" y="0.5" width="34.2572" height="34.2572" rx="4.5" fill="#F5F5F5" stroke="#1E3444"/>
<g clip-path="url(#clip0)">
<path d="M16.7215 19.6603L16.4679 23.2269C16.8307 23.2269 16.9878 23.0711 17.1762 22.8839L18.8771 21.2584L22.4016 23.8395C23.0479 24.1997 23.5033 24.01 23.6777 23.2448L25.9911 12.4045L25.9918 12.4039C26.1968 11.4484 25.6462 11.0747 25.0165 11.3091L11.4182 16.5153C10.4901 16.8755 10.5042 17.3929 11.2604 17.6273L14.737 18.7086L22.8123 13.6558C23.1923 13.4041 23.5378 13.5433 23.2536 13.795L16.7215 19.6603Z" fill="#1E3444"/>
</g>
<defs>
<clipPath id="clip0">
<rect width="15.3292" height="15.3292" fill="white" transform="translate(10.7065 9.96399)"/>
</clipPath>
</defs>
</svg>
