<svg width="36" height="36" viewBox="0 0 36 36" fill="none" xmlns="http://www.w3.org/2000/svg">
<rect x="0.995605" y="0.5" width="34.2572" height="34.2572" rx="4.5" fill="#F5F5F5" stroke="#1E3444"/>
<g clip-path="url(#clip0)">
<path d="M25.7887 12.8756C25.2186 13.1256 24.6112 13.2914 23.9779 13.3719C24.6294 12.9829 25.1266 12.3716 25.3604 11.6349C24.753 11.997 24.0823 12.2528 23.3676 12.3956C22.7909 11.7815 21.9688 11.4011 21.0721 11.4011C19.3322 11.4011 17.9315 12.8133 17.9315 14.5446C17.9315 14.7937 17.9526 15.0332 18.0043 15.2612C15.3916 15.1338 13.0798 13.8816 11.5268 11.974C11.2556 12.4445 11.0966 12.9829 11.0966 13.5625C11.0966 14.6509 11.6571 15.6157 12.4925 16.1742C11.9876 16.1647 11.4923 16.0181 11.0726 15.7872C11.0726 15.7968 11.0726 15.8092 11.0726 15.8217C11.0726 17.3488 12.162 18.6173 13.5905 18.9095C13.3347 18.9795 13.0559 19.013 12.7665 19.013C12.5653 19.013 12.3622 19.0015 12.1716 18.9594C12.5787 20.2039 13.7342 21.1189 15.1081 21.1486C14.0388 21.985 12.6812 22.4889 11.2116 22.4889C10.9538 22.4889 10.7067 22.4774 10.4595 22.4458C11.8516 23.3435 13.5014 23.8561 15.2805 23.8561C21.0634 23.8561 24.2251 19.0657 24.2251 14.9134C24.2251 14.7745 24.2203 14.6404 24.2136 14.5072C24.8373 14.0646 25.3614 13.5117 25.7887 12.8756Z" fill="#1E3444"/>
</g>
<defs>
<clipPath id="clip0">
<rect width="15.3292" height="15.3292" fill="white" transform="translate(10.4595 9.96399)"/>
</clipPath>
</defs>
</svg>
