<svg width="26" height="25" viewBox="0 0 26 25" fill="none" xmlns="http://www.w3.org/2000/svg">
<path d="M19.3988 14.2508C19.0565 14.2507 18.7219 14.1491 18.4373 13.9588C18.1528 13.7686 17.931 13.4983 17.8001 13.182C17.6691 12.8657 17.6349 12.5177 17.7018 12.182C17.7686 11.8463 17.9335 11.538 18.1756 11.296C18.4176 11.0539 18.726 10.8892 19.0618 10.8224C19.3975 10.7557 19.7455 10.79 20.0617 10.921C20.3779 11.052 20.6482 11.2738 20.8384 11.5585C21.0285 11.8431 21.13 12.1777 21.13 12.52C21.1297 12.979 20.9471 13.4191 20.6225 13.7436C20.2979 14.0681 19.8578 14.2505 19.3988 14.2508ZM19.3988 11.7536C19.2471 11.7536 19.0988 11.7986 18.9727 11.8829C18.8466 11.9672 18.7483 12.087 18.6903 12.2271C18.6322 12.3673 18.6171 12.5215 18.6467 12.6702C18.6763 12.819 18.7494 12.9556 18.8567 13.0629C18.964 13.1701 19.1007 13.2431 19.2495 13.2726C19.3982 13.3022 19.5524 13.2869 19.6926 13.2288C19.8327 13.1707 19.9524 13.0723 20.0366 12.9461C20.1208 12.82 20.1657 12.6717 20.1656 12.52C20.1655 12.3167 20.0846 12.1218 19.9408 11.9781C19.797 11.8344 19.6021 11.7536 19.3988 11.7536Z" fill="white"/>
<path d="M21.9095 24.8837H1.73007C1.27137 24.8831 0.831592 24.6328 0.507243 24.1877C0.182894 23.7427 0.000468682 23.1393 0 22.51V0.48583C0 0.35698 0.0373054 0.233407 0.10371 0.142296C0.170114 0.0511851 0.260177 0 0.354087 0H21.9095C22.3681 0.00077139 22.8079 0.251111 23.1322 0.696111C23.4565 1.14111 23.639 1.74444 23.6395 2.37376V8.87417C23.6395 9.00302 23.6022 9.12659 23.5358 9.2177C23.4694 9.30881 23.3794 9.36 23.2854 9.36C23.1915 9.36 23.1015 9.30881 23.0351 9.2177C22.9687 9.12659 22.9314 9.00302 22.9314 8.87417V2.37376C22.9311 2.00202 22.8233 1.64561 22.6317 1.38275C22.4402 1.11989 22.1804 0.972046 21.9095 0.97166H0.708173V22.51C0.708548 22.8817 0.816332 23.238 1.00789 23.5008C1.19945 23.7637 1.45916 23.9115 1.73007 23.9121H21.9095C22.1804 23.9115 22.4401 23.7637 22.6316 23.5008C22.8232 23.238 22.931 22.8817 22.9314 22.51V16.01C22.9314 15.8812 22.9687 15.7576 23.0351 15.6665C23.1015 15.5754 23.1915 15.5242 23.2854 15.5242C23.3794 15.5242 23.4694 15.5754 23.5358 15.6665C23.6022 15.7576 23.6395 15.8812 23.6395 16.01V22.51C23.639 23.1393 23.4565 23.7426 23.1322 24.1876C22.8079 24.6326 22.3681 24.8829 21.9095 24.8837Z" fill="white"/>
<path d="M23.8756 16.3904H18.2312C17.1651 16.3904 16.1426 15.9668 15.3888 15.213C14.6349 14.4592 14.2114 13.4367 14.2114 12.3706C14.2114 11.3045 14.6349 10.2821 15.3888 9.52824C16.1426 8.7744 17.1651 8.35089 18.2312 8.35089H23.8756C24.2173 8.3514 24.5447 8.48737 24.7862 8.72897C25.0278 8.97057 25.1636 9.2981 25.164 9.63971V15.1006C25.164 15.4424 25.0283 15.7702 24.7867 16.0121C24.5452 16.2539 24.2175 16.39 23.8756 16.3904ZM18.2312 9.31678C17.8299 9.31678 17.4325 9.39582 17.0618 9.54939C16.691 9.70296 16.3542 9.92804 16.0704 10.2118C15.7866 10.4955 15.5616 10.8324 15.408 11.2032C15.2544 11.5739 15.1754 11.9713 15.1754 12.3725C15.1754 12.7738 15.2544 13.1712 15.408 13.5419C15.5616 13.9127 15.7866 14.2495 16.0704 14.5333C16.3542 14.8171 16.691 15.0421 17.0618 15.1957C17.4325 15.3493 17.8299 15.4283 18.2312 15.4283H23.8756C23.9185 15.4283 23.9609 15.4197 24.0005 15.4032C24.04 15.3866 24.0759 15.3624 24.1061 15.332C24.1362 15.3015 24.16 15.2654 24.1762 15.2257C24.1923 15.1859 24.2004 15.1434 24.2 15.1006V9.63971C24.1999 9.55368 24.1657 9.47119 24.1049 9.41031C24.0441 9.34943 23.9617 9.31511 23.8756 9.31486L18.2312 9.31678Z" fill="white"/>
</svg>
