<svg width="9" height="12" viewBox="0 0 9 12" fill="none" xmlns="http://www.w3.org/2000/svg">
<path d="M8.40014 0.784633C8.52397 0.747568 8.61625 0.60639 8.61625 0.437487V0.356962C8.61625 0.15986 8.49064 0 8.33578 0H0.664259C0.509393 0 0.383789 0.15986 0.383789 0.356962V0.437546C0.383789 0.606449 0.476064 0.747628 0.599892 0.784692C0.684594 2.70717 1.46907 4.46902 2.7353 5.54871L3.26464 6.00003L2.7353 6.45135C1.46902 7.53098 0.684547 9.29289 0.599892 11.2154C0.476064 11.2524 0.383789 11.3936 0.383789 11.5625V11.6431C0.383789 11.8402 0.509393 12.0001 0.664259 12.0001H8.33578C8.49064 12.0001 8.61625 11.8402 8.61625 11.6431V11.5625C8.61625 11.3936 8.52397 11.2524 8.40014 11.2154C8.31544 9.29289 7.53097 7.53104 6.26469 6.45135L5.73535 6.00003L6.26469 5.54871C7.53097 4.46902 8.31544 2.70711 8.40014 0.784633ZM5.07536 5.70345C4.99762 5.76973 4.95097 5.88092 4.95097 6.00003C4.95097 6.11914 4.99762 6.23033 5.07536 6.29661L5.95253 7.0445C7.06085 7.98944 7.75174 9.52569 7.8379 11.2056H1.16214C1.24829 9.52575 1.93918 7.9895 3.04751 7.0445L3.92468 6.29661C4.00242 6.23033 4.04907 6.11914 4.04907 6.00003C4.04907 5.88092 4.00242 5.76973 3.92468 5.70345L3.04751 4.95556C1.93918 4.01056 1.24829 2.47431 1.16214 0.794509H7.8379C7.75174 2.47437 7.06085 4.01056 5.95253 4.95556L5.07536 5.70345Z" fill="black"/>
<path d="M4.48852 7.36367L3.77716 7.94522C3.15517 8.47554 2.78186 9.36569 2.78186 10.3185H6.35837C6.35837 9.36569 5.98507 8.47554 5.36308 7.94522L4.65171 7.36367C4.60151 7.32535 4.53877 7.32535 4.48852 7.36367Z" fill="black"/>
</svg>
