<svg width="14" height="18" viewBox="0 0 14 18" fill="none" xmlns="http://www.w3.org/2000/svg">
<path d="M13.3821 2.29453C13.5847 2.24687 13.7357 2.06536 13.7357 1.8482V0.458951C13.7357 0.205534 13.5302 0 13.2767 0H0.723356C0.469938 0 0.264404 0.205534 0.264404 0.458951V1.84827C0.264404 2.06543 0.415399 2.24695 0.618026 2.2946C0.75663 4.76636 2.04032 7.0316 4.11233 8.41977L4.97852 9.00004L4.11233 9.58031C2.04024 10.9684 0.756553 13.2337 0.618026 15.7055C0.415399 15.7531 0.264404 15.9346 0.264404 16.1518V17.5411C0.264404 17.7945 0.469938 18.0001 0.723356 18.0001H13.2767C13.5302 18.0001 13.7357 17.7945 13.7357 17.5411V16.1518C13.7357 15.9346 13.5847 15.7531 13.3821 15.7055C13.2435 13.2337 11.9598 10.9685 9.8877 9.58031L9.0215 9.00004L9.8877 8.41977C11.9598 7.0316 13.2435 4.76629 13.3821 2.29453ZM7.94151 8.61873C7.81431 8.70394 7.73797 8.8469 7.73797 9.00004C7.73797 9.15318 7.81431 9.29614 7.94151 9.38135L9.37688 10.3429C11.1905 11.5579 12.3211 13.533 12.462 15.6929H1.53807C1.67905 13.5331 2.8096 11.5579 4.62322 10.3429L6.05859 9.38135C6.18579 9.29614 6.26214 9.15318 6.26214 9.00004C6.26214 8.8469 6.18579 8.70394 6.05859 8.61873L4.62322 7.65715C2.8096 6.44215 1.67905 4.46697 1.53807 2.30723H12.462C12.3211 4.46705 11.1905 6.44215 9.37688 7.65715L7.94151 8.61873Z" fill="#707070"/>
<path d="M6.9812 10.7533L5.81714 11.501C4.79934 12.1828 4.18848 13.3273 4.18848 14.5524H10.0409C10.0409 13.3273 9.43009 12.1828 8.41228 11.501L7.24823 10.7533C7.16608 10.704 7.06343 10.704 6.9812 10.7533Z" fill="#707070"/>
</svg>
