<svg width="20" height="20" viewBox="0 0 20 20" fill="none" xmlns="http://www.w3.org/2000/svg">
<rect x="2" y="3.13525" width="16.7795" height="15.8643" rx="3" stroke="#455464" stroke-width="1.2"/>
<path d="M8.91856 12.1003C9.32663 12.1003 9.65743 11.7695 9.65743 11.3614C9.65743 10.9534 9.32663 10.6226 8.91856 10.6226C8.51049 10.6226 8.17969 10.9534 8.17969 11.3614C8.17969 11.7695 8.51049 12.1003 8.91856 12.1003Z" fill="#455464"/>
<path d="M15.3209 12.1003C15.729 12.1003 16.0598 11.7695 16.0598 11.3614C16.0598 10.9534 15.729 10.6226 15.3209 10.6226C14.9128 10.6226 14.582 10.9534 14.582 11.3614C14.582 11.7695 14.9128 12.1003 15.3209 12.1003Z" fill="#455464"/>
<path d="M5.70371 8.88741C6.11178 8.88741 6.44259 8.55661 6.44259 8.14854C6.44259 7.74047 6.11178 7.40967 5.70371 7.40967C5.29565 7.40967 4.96484 7.74047 4.96484 8.14854C4.96484 8.55661 5.29565 8.88741 5.70371 8.88741Z" fill="#455464"/>
<path d="M12.11 8.88741C12.518 8.88741 12.8488 8.55661 12.8488 8.14854C12.8488 7.74047 12.518 7.40967 12.11 7.40967C11.7019 7.40967 11.3711 7.74047 11.3711 8.14854C11.3711 8.55661 11.7019 8.88741 12.11 8.88741Z" fill="#455464"/>
<path d="M5.70371 12.1003C6.11178 12.1003 6.44259 11.7695 6.44259 11.3614C6.44259 10.9534 6.11178 10.6226 5.70371 10.6226C5.29565 10.6226 4.96484 10.9534 4.96484 11.3614C4.96484 11.7695 5.29565 12.1003 5.70371 12.1003Z" fill="#455464"/>
<path d="M12.11 12.1003C12.518 12.1003 12.8488 11.7695 12.8488 11.3614C12.8488 10.9534 12.518 10.6226 12.11 10.6226C11.7019 10.6226 11.3711 10.9534 11.3711 11.3614C11.3711 11.7695 11.7019 12.1003 12.11 12.1003Z" fill="#455464"/>
<path d="M5.70371 15.3151C6.11178 15.3151 6.44259 14.9843 6.44259 14.5763C6.44259 14.1682 6.11178 13.8374 5.70371 13.8374C5.29565 13.8374 4.96484 14.1682 4.96484 14.5763C4.96484 14.9843 5.29565 15.3151 5.70371 15.3151Z" fill="#455464"/>
<path d="M12.11 15.3151C12.518 15.3151 12.8488 14.9843 12.8488 14.5763C12.8488 14.1682 12.518 13.8374 12.11 13.8374C11.7019 13.8374 11.3711 14.1682 11.3711 14.5763C11.3711 14.9843 11.7019 15.3151 12.11 15.3151Z" fill="#455464"/>
<path d="M8.91856 15.3151C9.32663 15.3151 9.65743 14.9843 9.65743 14.5763C9.65743 14.1682 9.32663 13.8374 8.91856 13.8374C8.51049 13.8374 8.17969 14.1682 8.17969 14.5763C8.17969 14.9843 8.51049 15.3151 8.91856 15.3151Z" fill="#455464"/>
<path d="M15.3209 15.3151C15.729 15.3151 16.0598 14.9843 16.0598 14.5763C16.0598 14.1682 15.729 13.8374 15.3209 13.8374C14.9128 13.8374 14.582 14.1682 14.582 14.5763C14.582 14.9843 14.9128 15.3151 15.3209 15.3151Z" fill="#455464"/>
<path d="M8.91856 8.88741C9.32663 8.88741 9.65743 8.55661 9.65743 8.14854C9.65743 7.74047 9.32663 7.40967 8.91856 7.40967C8.51049 7.40967 8.17969 7.74047 8.17969 8.14854C8.17969 8.55661 8.51049 8.88741 8.91856 8.88741Z" fill="#455464"/>
<line x1="6.16016" y1="1.5" x2="6.16016" y2="5.34611" stroke="#455464" stroke-linecap="round"/>
<line x1="10.7383" y1="1.5" x2="10.7383" y2="5.34611" stroke="#455464" stroke-linecap="round"/>
<line x1="15.3125" y1="1.5" x2="15.3125" y2="5.34611" stroke="#455464" stroke-linecap="round"/>
<path d="M15.3209 8.88741C15.729 8.88741 16.0598 8.55661 16.0598 8.14854C16.0598 7.74047 15.729 7.40967 15.3209 7.40967C14.9128 7.40967 14.582 7.74047 14.582 8.14854C14.582 8.55661 14.9128 8.88741 15.3209 8.88741Z" fill="#455464"/>
</svg>
