<svg width="12" height="12" viewBox="0 0 12 12" fill="none" xmlns="http://www.w3.org/2000/svg">
<path d="M11.625 2.46764L9.0375 0.296387L8.31188 1.15701L10.8994 3.32826L11.625 2.46764ZM3.6825 1.15701L2.9625 0.296387L0.375 2.46201L1.10062 3.32264L3.6825 1.15701ZM6.28125 3.75014H5.4375V7.12514L8.10938 8.72825L8.53125 8.03637L6.28125 6.70326V3.75014ZM6 1.50014C3.20438 1.50014 0.9375 3.76701 0.9375 6.56264C0.9375 9.35825 3.19875 11.6251 6 11.6251C8.79562 11.6251 11.0625 9.35825 11.0625 6.56264C11.0625 3.76701 8.79562 1.50014 6 1.50014ZM6 10.5001C3.82313 10.5001 2.0625 8.7395 2.0625 6.56264C2.0625 4.38576 3.82313 2.62514 6 2.62514C8.17688 2.62514 9.9375 4.38576 9.9375 6.56264C9.9375 8.7395 8.17688 10.5001 6 10.5001Z" fill="black" fill-opacity="0.54"/>
</svg>
