<svg width="18" height="30" viewBox="0 0 18 30" fill="none" xmlns="http://www.w3.org/2000/svg">
<path d="M17.4858 22.7941C17.4858 22.0023 17.0015 21.3215 16.3136 21.0324C16.453 20.7673 16.532 20.4657 16.532 20.1461C16.532 19.093 15.6751 18.2362 14.6219 18.2362H12.0818V14.9918C15.3606 14.1422 17.7891 11.158 17.7891 7.61717C17.7891 3.41706 14.3721 0 10.1719 0C9.12239 0 8.10497 0.210117 7.1479 0.62455C6.85094 0.753104 6.71448 1.0981 6.84303 1.39506C6.97159 1.69201 7.31676 1.82859 7.61354 1.69992C8.42272 1.34953 9.28352 1.17187 10.1719 1.17187C13.7259 1.17187 16.6172 4.06323 16.6172 7.61717C16.6172 11.1711 13.7259 14.0625 10.1719 14.0625C6.61798 14.0625 3.72656 11.1711 3.72656 7.61717C3.72656 6.72848 3.90427 5.86768 4.25478 5.05851C4.38339 4.76155 4.24698 4.41655 3.95003 4.28794C3.65325 4.15933 3.30808 4.29573 3.17953 4.59274C2.76492 5.54975 2.55468 6.56735 2.55468 7.61717C2.55468 11.158 4.98316 14.1421 8.26194 14.9918V17.6397H8.16479C6.44911 17.6397 4.81968 18.3523 3.65197 19.604H0.796874C0.641425 19.604 0.492363 19.6657 0.382441 19.7757C0.272578 19.8856 0.21082 20.0347 0.210938 20.1903L0.215039 27.4501C0.215215 27.7736 0.47748 28.0357 0.800976 28.0357H3.65501C4.82583 29.2874 6.45415 29.9999 8.16479 29.9999L14.1706 30C15.2238 30 16.0806 29.1432 16.0806 28.09C16.0806 27.763 15.9981 27.455 15.8526 27.1856C16.5183 26.8869 16.9831 26.2177 16.9831 25.4421C16.9831 25.0451 16.8614 24.6761 16.6534 24.3703C17.1556 24.026 17.4858 23.4478 17.4858 22.7941ZM10.1719 15.2343C10.4209 15.2343 10.667 15.2219 10.91 15.1985V18.2362H9.43387V18.2257V15.1985C9.67674 15.222 9.92289 15.2343 10.1719 15.2343ZM15.5758 23.5323H15.0733C14.7497 23.5323 14.4873 23.7946 14.4873 24.1182C14.4873 24.4418 14.7497 24.7041 15.0733 24.7041C15.4801 24.7041 15.8112 25.0352 15.8112 25.4421C15.8112 25.8491 15.4802 26.1802 15.0733 26.1802H14.1706C13.8471 26.1802 13.5847 26.4425 13.5847 26.7661C13.5847 27.0897 13.847 27.352 14.1706 27.352C14.5776 27.352 14.9087 27.6831 14.9087 28.0901C14.9087 28.4971 14.5777 28.8282 14.1706 28.8282L8.16479 28.8281C6.70569 28.8281 5.31954 28.1868 4.36183 27.0686C4.25056 26.9387 4.08796 26.8638 3.91681 26.8638H1.38662L1.38316 20.7758H3.91417C4.08568 20.7758 4.24851 20.7007 4.35984 20.5703C5.3138 19.4526 6.70065 18.8115 8.16473 18.8115H8.26188V18.822C8.26188 19.1456 8.52426 19.408 8.84781 19.408H14.6219C15.0289 19.408 15.36 19.739 15.36 20.146C15.36 20.553 15.0289 20.8841 14.6219 20.8841C14.2983 20.8841 14.0359 21.1464 14.0359 21.4701C14.0359 21.7937 14.2983 22.056 14.6219 22.056H15.5758C15.9828 22.056 16.3139 22.3871 16.3139 22.794C16.3139 23.2011 15.9829 23.5323 15.5758 23.5323Z" fill="#828282"/>
<path d="M8.25784 10.29C8.60056 10.6326 9.05061 10.804 9.50073 10.804C9.95085 10.804 10.4009 10.6326 10.7436 10.29L13.6037 7.4299C14.289 6.74459 14.289 5.62943 13.6037 4.94412C12.9183 4.25886 11.8033 4.25886 11.1179 4.94412L9.50073 6.56131L9.22593 6.2865C8.54056 5.60125 7.42552 5.60125 6.74015 6.2865C6.40815 6.61849 6.22534 7.05988 6.22534 7.52939C6.22534 7.9989 6.40815 8.44029 6.74015 8.77228L8.25784 10.29ZM7.56878 7.11519C7.68298 7.00099 7.83298 6.94392 7.98298 6.94392C8.13298 6.94392 8.28304 7.00105 8.39718 7.11519L9.08636 7.80431C9.31522 8.03312 9.68612 8.03312 9.91505 7.80431L11.9466 5.77281C12.175 5.54441 12.5466 5.54441 12.775 5.77281C12.8857 5.88343 12.9466 6.03056 12.9466 6.18701C12.9466 6.34345 12.8857 6.49058 12.775 6.60121L9.91493 9.46129C9.68653 9.68969 9.31493 9.68969 9.08648 9.46129L7.56878 7.94359C7.4581 7.83297 7.39716 7.6859 7.39716 7.52939C7.39716 7.37289 7.4581 7.22582 7.56878 7.11519Z" fill="#828282"/>
<path d="M5.20021 3.231C5.35027 3.231 5.50032 3.17376 5.61476 3.05932C5.84357 2.83051 5.84357 2.4595 5.61476 2.23069C5.38589 2.00188 5.01499 2.00188 4.78607 2.23069L4.78578 2.23098C4.55697 2.45979 4.55714 2.83063 4.78595 3.05944C4.90038 3.17381 5.05033 3.231 5.20021 3.231Z" fill="#828282"/>
</svg>
