<svg width="24" height="28" viewBox="0 0 24 28" fill="none" xmlns="http://www.w3.org/2000/svg">
<path fill-rule="evenodd" clip-rule="evenodd" d="M17.1744 4.88146L17.2491 4.60262L17.5838 3.35355L16.3347 3.01886L16.0559 2.94415L15.9812 2.66531L15.6465 1.4162L14.3973 1.75089L14.1185 1.8256L13.9144 1.62148L13 0.707101L12.0856 1.62149L11.8815 1.8256L11.6026 1.75089L10.3535 1.4162L10.0189 2.6653L9.94417 2.94415L9.66532 3.01886L8.41622 3.35355L8.7509 4.60262L8.82562 4.88146L8.62149 5.08558L7.70711 5.99996L8.6215 6.91438L8.82562 7.1185L8.7509 7.39734L8.41621 8.64644L9.66532 8.98114L9.94417 9.05585L10.0189 9.3347L10.3535 10.5838L11.6026 10.2491L11.8815 10.1744L12.0856 10.3785L13 11.2929L13.9144 10.3785L14.1185 10.1744L14.3973 10.2491L15.6465 10.5838L15.9812 9.33469L16.0559 9.05585L16.3347 8.98114L17.5838 8.64645L17.2491 7.39734L17.1744 7.1185L17.3785 6.91437L18.2929 5.99996L17.3785 5.08559L17.1744 4.88146ZM18.6465 5.64641L17.732 4.73203L18.0667 3.48296L18.1961 3L17.7132 2.87059L16.4641 2.5359L16.1294 1.28679L16 0.803828L15.517 0.933236L14.2679 1.26793L13.3536 0.353559L13 0L12.6465 0.353554L11.732 1.26793L10.4829 0.933225L9.99997 0.803828L9.87056 1.28679L9.53591 2.5359L8.2868 2.87059L7.80384 3L7.93325 3.48296L8.26794 4.73203L7.35357 5.64641L7.00001 5.99996L7.35357 6.35351L8.26794 7.26793L7.93325 8.51704L7.80384 9L8.2868 9.12941L9.53591 9.4641L9.87056 10.7132L9.99997 11.1961L10.4829 11.0667L11.732 10.732L11.8828 10.8828H11.5625V17.2032C11.3733 16.9953 11.2617 16.7205 11.2617 16.4224V13.8359C11.2617 13.0368 10.6116 12.3867 9.81246 12.3867C9.01337 12.3867 8.36324 13.0368 8.36324 13.8359V18.684C8.36324 18.9106 8.54689 19.0942 8.7734 19.0942C8.99992 19.0942 9.18356 18.9106 9.18356 18.684V13.8359C9.18356 13.4892 9.46569 13.207 9.81246 13.207C10.1592 13.207 10.4414 13.4892 10.4414 13.8359V16.4224C10.4414 17.1974 10.8815 17.8819 11.5625 18.2071V21.082C11.5625 21.3085 11.7461 21.4922 11.9726 21.4922H13.7205C13.6352 21.8382 13.6791 22.2135 13.8645 22.5438C14.1293 23.0142 14.6208 23.2793 15.1263 23.2793C15.3648 23.2793 15.6065 23.2203 15.8289 23.0959L16.059 22.9671C15.7074 23.5417 15.0721 23.9258 14.3634 23.9258H11.9291C10.4152 23.9258 9.18356 22.6942 9.18356 21.1803V20.3941C9.18356 20.1675 8.99992 19.9839 8.7734 19.9839C8.54689 19.9839 8.36324 20.1675 8.36324 20.3941V21.1802C8.36324 22.4922 9.07599 23.6402 10.1341 24.2594V25.4297H10.0039C9.77735 25.4297 9.59371 25.6133 9.59371 25.8398V27.5898C9.59371 27.8164 9.77735 28 10.0039 28H14.7224C14.949 28 15.1326 27.8164 15.1326 27.5898C15.1326 27.3633 14.949 27.1797 14.7224 27.1797H10.414V26.25H16.8125V27.1797H16.4724C16.2458 27.1797 16.0623 27.3633 16.0623 27.5898C16.0623 27.8164 16.2458 28 16.4724 28H17.2226C17.4492 28 17.6328 27.8164 17.6328 27.5898V25.8398C17.6328 25.6133 17.4492 25.4297 17.2226 25.4297H16.7513V23.4131C16.948 23.0945 17.0789 22.7384 17.1356 22.3642L17.7313 22.0306C18.0675 21.8426 18.3102 21.5348 18.4147 21.164C18.5177 20.7985 18.474 20.4151 18.2921 20.0825C18.2895 20.0774 18.2867 20.0722 18.2839 20.0671C18.1738 19.8714 18.025 19.7113 17.8526 19.5907C18.1258 19.4008 18.3232 19.1246 18.4146 18.8002C18.5192 18.4293 18.4729 18.0398 18.2839 17.703C18.1739 17.5075 18.0247 17.3476 17.8517 17.2273C18.1257 17.0371 18.3235 16.7604 18.415 16.4353C18.5193 16.0646 18.4728 15.6753 18.2839 15.3393C18.174 15.1436 18.0248 14.9834 17.8518 14.8631C18.1257 14.6729 18.3235 14.3962 18.4149 14.0711C18.5192 13.7004 18.4727 13.3111 18.2839 12.9751C17.8943 12.282 17.0132 12.0341 16.3195 12.4225L15.664 12.7894V11.1061L16 11.1961L16.1294 10.7132L16.4641 9.4641L17.7132 9.12941L18.1961 9L18.0667 8.51704L17.732 7.26793L18.6465 6.35351L19 5.99996L18.6465 5.64641ZM12.3828 20.6719V11.3828L12.6465 11.6464L13 12L13.3536 11.6464L14.2679 10.732L14.8437 10.8863V13.2486L14.4167 13.4877C14.0804 13.676 13.8377 13.9839 13.7334 14.3547C13.6292 14.7255 13.6756 15.1147 13.8645 15.4508C13.9745 15.6465 14.1241 15.8062 14.2972 15.9266C14.023 16.1168 13.825 16.3936 13.7334 16.7189C13.6292 17.0897 13.6756 17.4789 13.8645 17.8149C13.9745 18.0108 14.1242 18.1705 14.2974 18.2909C14.0234 18.4808 13.8254 18.7574 13.7338 19.0824C13.6292 19.4533 13.6755 19.8428 13.8644 20.1795C13.9736 20.3736 14.1224 20.5346 14.2965 20.6563L14.2837 20.6649L14.2736 20.6719H12.3828ZM13.3333 9.63636C13.3333 9.83719 13.1841 10 13 10C12.8159 10 12.6667 9.83719 12.6667 9.63636V9.24109C12.2464 9.18384 11.851 8.99244 11.53 8.69091C11.4414 8.60387 11.4021 8.47187 11.4269 8.34464C11.4517 8.21741 11.5368 8.11428 11.6502 8.07409C11.7636 8.03391 11.8881 8.06278 11.9767 8.14982C12.2623 8.41305 12.6262 8.55371 13 8.54545C13.7353 8.54545 14.3333 8.056 14.3333 7.45455C14.3333 6.85309 13.7353 6.36364 13 6.36364C11.897 6.36364 11 5.548 11 4.54545C11 3.64655 11.7223 2.9 12.6667 2.75455V2.36364C12.6667 2.16281 12.8159 2 13 2C13.1841 2 13.3333 2.16281 13.3333 2.36364V2.75891C13.7536 2.81616 14.1491 3.00756 14.47 3.30909C14.5586 3.39613 14.5979 3.52813 14.5731 3.65536C14.5483 3.78259 14.4632 3.88572 14.3498 3.9259C14.2364 3.96609 14.1119 3.93722 14.0233 3.85018C13.7377 3.58695 13.3739 3.4463 13 3.45455C12.2647 3.45455 11.6667 3.944 11.6667 4.54545C11.6667 5.14691 12.2647 5.63636 13 5.63636C14.103 5.63636 15 6.452 15 7.45455C15 8.35345 14.2777 9.1 13.3333 9.24545V9.63636ZM10.9544 24.6095V25.4297H15.931V24.2668C15.4706 24.5778 14.9271 24.7461 14.3634 24.7461H11.9291C11.5912 24.7461 11.2645 24.6978 10.9544 24.6095ZM17.0237 15.4231C16.9291 15.4231 16.8337 15.4457 16.7443 15.4909L14.8175 16.5676C14.6725 16.6487 14.568 16.7813 14.5231 16.941C14.4782 17.1007 14.4983 17.2683 14.5796 17.413C14.7428 17.7033 15.1053 17.812 15.4003 17.6655L17.3308 16.5864C17.4758 16.5053 17.5803 16.3727 17.6252 16.2131C17.6701 16.0535 17.65 15.8858 17.5687 15.7411C17.4544 15.5377 17.2421 15.4231 17.0237 15.4231ZM17.5687 18.1048C17.4545 17.902 17.2421 17.7874 17.0238 17.7874C16.9287 17.7874 16.8329 17.8102 16.7431 17.8557L14.8177 18.9319C14.6727 19.013 14.5683 19.1455 14.5233 19.305C14.4782 19.4649 14.4982 19.6328 14.5796 19.7778C14.7044 19.9998 14.9484 20.1226 15.2022 20.0905C15.2711 20.0816 15.3379 20.0611 15.4003 20.03L17.3308 18.9505C17.4756 18.8696 17.5801 18.7371 17.625 18.5776C17.6701 18.4178 17.6501 18.2499 17.5687 18.1048ZM17.3308 21.3147C17.4757 21.2337 17.5802 21.1012 17.6251 20.9416C17.6701 20.782 17.6501 20.6143 17.5688 20.4697L17.5667 20.4661L17.5634 20.4599C17.3983 20.178 17.046 20.0714 16.753 20.2143L15.8289 20.7317C15.8192 20.7373 15.8087 20.743 15.7978 20.7486L15.7871 20.754L15.7843 20.7554L15.7782 20.7586L14.8177 21.2961C14.7734 21.3209 14.733 21.3501 14.6974 21.3831C14.487 21.5783 14.4384 21.8904 14.5795 22.1419C14.7477 22.4407 15.1285 22.5476 15.4282 22.38L17.3308 21.3147ZM17.0238 13.0589C16.9207 13.0589 16.8163 13.0844 16.7202 13.1382L14.8175 14.2035C14.6725 14.2846 14.568 14.4172 14.5231 14.5768C14.4782 14.7365 14.4983 14.9041 14.5796 15.0489C14.7422 15.3382 15.103 15.4472 15.3975 15.3027L17.3308 14.2223C17.4758 14.1412 17.5803 14.0086 17.6252 13.849C17.6701 13.6893 17.65 13.5216 17.5687 13.3769C17.4544 13.1735 17.2421 13.0589 17.0238 13.0589ZM20.2664 9.04779C19.9132 9.00764 19.6595 8.68882 19.6997 8.33566C19.7398 7.9825 20.0586 7.72877 20.4118 7.76892L23.0973 8.07421C23.9413 8.20402 23.8042 9.41576 22.9519 9.35308L20.2664 9.04779ZM19.2392 1.58183C18.9132 1.72367 18.764 2.10283 18.9059 2.4287C19.0477 2.75461 19.4268 2.90387 19.7528 2.76203L22.2311 1.68365C22.56 1.54118 22.7053 1.15709 22.5644 0.836787C22.4227 0.510874 22.0435 0.361614 21.7176 0.503459L19.2392 1.58183ZM5.84546 3.64265L3.26114 2.85143C2.92128 2.74742 2.7301 2.38756 2.83418 2.04769C2.9382 1.70784 3.29812 1.51664 3.63792 1.62074L6.22225 2.41195C6.5621 2.51597 6.75328 2.87583 6.6492 3.2157C6.54482 3.55854 6.17964 3.74639 5.84546 3.64265ZM4.23295 11.5467L6.86671 10.9397C7.69114 10.7149 7.41664 9.52668 6.57765 9.6855L3.94389 10.2925C3.11946 10.5174 3.39396 11.7056 4.23295 11.5467ZM1.12262 10.9426C1.96163 10.7838 2.23614 11.972 1.41169 12.1969C0.572707 12.3558 0.297695 11.1677 1.12218 10.9427L1.12262 10.9426Z" fill="#707070"/>
</svg>
