<svg width="30" height="30" viewBox="0 0 30 30" fill="none" xmlns="http://www.w3.org/2000/svg">
<path d="M26.1665 0H3.8335C1.71967 0 0 1.71973 0 3.83355V26.1665C0 28.2803 1.71967 30 3.8335 30H26.1665C28.2803 30 30 28.2803 30 26.1664V3.83355C30 1.71973 28.2803 0 26.1665 0ZM28.2329 26.1665C28.2329 27.306 27.3059 28.2329 26.1665 28.2329H3.8335C2.69402 28.2329 1.76701 27.3059 1.76701 26.1665V22.9434L7.58273 17.9951C7.79496 17.8146 8.10457 17.8129 8.31879 17.9907L11.9618 21.0158C12.3131 21.3074 12.8287 21.2835 13.1515 20.9604L21.8075 12.2912C21.9639 12.1345 22.1463 12.1192 22.2415 12.1241C22.3365 12.129 22.5166 12.1628 22.6563 12.3348L28.233 19.2014V26.1665H28.2329ZM28.2329 16.3983L24.0279 11.2206C23.6109 10.7071 22.9928 10.3932 22.3321 10.3593C21.6718 10.3259 21.0244 10.5744 20.557 11.0426L12.4706 19.1415L9.44777 16.6314C8.57127 15.9035 7.30541 15.9111 6.43764 16.6494L1.76701 20.6234V3.83355C1.76701 2.69408 2.69402 1.76707 3.8335 1.76707H26.1665C27.306 1.76707 28.2329 2.69408 28.2329 3.83355V16.3983Z" fill="#828282"/>
</svg>
