<svg width="35" height="35" viewBox="0 0 35 35" fill="none" xmlns="http://www.w3.org/2000/svg">
<path fill-rule="evenodd" clip-rule="evenodd" d="M8.36968 29.9915L20.6586 17.7029C20.7703 17.5912 20.7703 17.4091 20.6586 17.2971L8.36968 5.00877C8.26766 4.90675 8.10804 4.89593 7.99316 4.98334C4.2189 7.85401 1.78204 12.3921 1.78204 17.5003C1.78204 22.6082 4.21919 27.1463 7.99345 30.017C8.10834 30.1044 8.26766 30.0935 8.36968 29.9915ZM11.5453 31.856L23.1785 20.2228C23.2902 20.1111 23.2902 19.929 23.1785 19.8173L22.324 18.9625C22.2123 18.8511 22.0302 18.8511 21.9183 18.9625L9.98977 30.8916C9.9237 30.9577 9.89535 31.0433 9.90879 31.136C9.92224 31.2284 9.97398 31.302 10.0564 31.3468C10.4376 31.5523 10.8285 31.7423 11.2275 31.9159C11.3383 31.9642 11.4602 31.9411 11.5453 31.856ZM21.4786 24.4425L13.631 32.2904C13.5559 32.3655 13.529 32.4681 13.5576 32.5704C13.5866 32.6731 13.6623 32.7467 13.7658 32.7716C14.9623 33.0633 16.2129 33.218 17.4997 33.218C18.976 33.218 20.4046 33.0139 21.7587 32.633C21.8844 32.5976 21.968 32.4874 21.968 32.3568V24.6454C21.968 24.5267 21.9004 24.4256 21.7911 24.3806C21.6821 24.3347 21.5628 24.3586 21.4786 24.4425ZM24.4384 21.483L23.8339 22.0872C23.7781 22.1431 23.75 22.2112 23.75 22.2901L23.7503 31.4812C23.7503 31.5824 23.7979 31.6692 23.883 31.723C23.9681 31.7774 24.0672 31.7835 24.1587 31.7408C24.5793 31.5435 24.9901 31.3283 25.3897 31.0959C25.4803 31.0433 25.532 30.9533 25.532 30.848V22.2895C25.532 22.2106 25.5037 22.1428 25.4478 22.0869L24.8439 21.483C24.7322 21.3713 24.5504 21.3713 24.4384 21.483ZM21.9683 10.3549V2.64324C21.9683 2.51286 21.8846 2.40236 21.7589 2.36699C20.4046 1.98638 18.976 1.78204 17.5 1.78204C16.2132 1.78204 14.9626 1.93697 13.7658 2.22872C13.6623 2.25386 13.5863 2.32753 13.5576 2.42984C13.5287 2.53216 13.5559 2.63476 13.631 2.70989L21.4789 10.5575C21.5628 10.6414 21.6821 10.665 21.7914 10.6197C21.9007 10.5744 21.9683 10.4733 21.9683 10.3549ZM25.5323 13.9184V4.15166C25.5323 4.04671 25.4803 3.95668 25.39 3.90376C24.9904 3.67136 24.5799 3.45592 24.159 3.25889C24.0675 3.21621 23.9684 3.22235 23.8833 3.27672C23.7982 3.33109 23.7506 3.41762 23.7506 3.51877V12.7099C23.7506 12.7888 23.7787 12.8566 23.8345 12.9125L25.043 14.121C25.1269 14.2046 25.2461 14.2285 25.3555 14.1829C25.4648 14.1373 25.5323 14.0368 25.5323 13.9184ZM27.3138 5.83518C27.3138 9.96375 27.3141 14.092 27.3141 18.2203C27.3141 18.3387 27.2466 18.4398 27.1375 18.4851C27.0279 18.5305 26.9086 18.5068 26.8247 18.4229L11.5453 3.144C11.4602 3.05893 11.3383 3.03584 11.2281 3.08378C10.8288 3.25772 10.4379 3.44773 10.0567 3.65324C9.97428 3.69767 9.92253 3.77163 9.90879 3.86401C9.89535 3.95668 9.9237 4.04233 9.98977 4.1084L27.2299 21.3488C27.2857 21.4046 27.3141 21.4728 27.3141 21.5517L27.3138 29.1645C27.3138 29.2794 27.3772 29.3776 27.4816 29.4253C27.5859 29.4732 27.7017 29.4566 27.7885 29.3814C31.1141 26.4999 33.218 22.246 33.218 17.5C33.218 12.754 31.1141 8.50006 27.7885 5.61828C27.7017 5.54315 27.5862 5.52648 27.4816 5.57413C27.3772 5.62237 27.3138 5.72059 27.3138 5.83518ZM17.5 0C26.9782 0 35 7.65055 35 17.5C35 27.2623 27.0653 35 17.5 35C8.03028 35 0 27.3521 0 17.5C0 7.64821 8.03058 0 17.5 0Z" fill="url(#paint0_linear)"/>
<defs>
<linearGradient id="paint0_linear" x1="2.34629" y1="32.655" x2="30.2187" y2="4.78265" gradientUnits="userSpaceOnUse">
<stop stop-color="#B98E4D"/>
<stop offset="0.5169" stop-color="#D1A561"/>
<stop offset="1" stop-color="#E6B973"/>
</linearGradient>
</defs>
</svg>
