<svg width="37" height="37" viewBox="0 0 37 37" fill="none" xmlns="http://www.w3.org/2000/svg">
<path d="M30.8537 0.771362H14.4567V22.6351H36.4627V6.45986C36.4717 3.3886 33.9449 0.771362 30.8537 0.771362ZM9.42113 0.771362H6.67038C3.57914 0.771362 0.935913 3.27287 0.935913 6.46876V9.20173H9.42113V0.771362ZM0.935913 14.3205H9.42113V22.7508H0.935913V14.3205ZM27.9865 36.1842H30.7372C33.8285 36.1842 36.4717 33.6827 36.4717 30.4868V27.7628H27.9865V36.1842ZM14.4567 27.7628H22.9419V36.1931H14.4567V27.7628ZM0.935913 27.7628V30.4957C0.935913 33.567 3.4537 36.1931 6.67038 36.1931H9.42113V27.7628H0.935913Z" fill="#1E3444"/>
</svg>
