<svg width="22" height="22" viewBox="0 0 22 22" fill="none" xmlns="http://www.w3.org/2000/svg">
<path d="M15.5 11C15.5 10.4477 15.9477 10 16.5 10H20.5C21.0523 10 21.5 10.4477 21.5 11C21.5 11.5523 21.0523 12 20.5 12H16.5C15.9477 12 15.5 11.5523 15.5 11Z" fill="black"/>
<path d="M1.5 10H3.5C4.05227 10 4.5 10.4477 4.5 11C4.5 11.5523 4.05227 12 3.5 12H1.5C0.947733 12 0.5 11.5523 0.5 11C0.5 10.4477 0.947733 10 1.5 10Z" fill="black"/>
<path d="M10.5 6C9.94773 6 9.5 5.55227 9.5 5V1C9.5 0.447733 9.94773 0 10.5 0C11.0523 0 11.5 0.447733 11.5 1V5C11.5 5.55227 11.0523 6 10.5 6Z" fill="black"/>
<path d="M10.5 16C11.0523 16 11.5 16.4477 11.5 17V21C11.5 21.5523 11.0523 22 10.5 22C9.94773 22 9.5 21.5523 9.5 21V17C9.5 16.4477 9.94773 16 10.5 16Z" fill="black"/>
<path d="M16.8642 3.22183C17.2546 2.8313 17.8878 2.83136 18.2784 3.22183C18.6689 3.61236 18.6689 4.2455 18.2784 4.63603L15.4499 7.46456C15.2547 7.65983 14.9987 7.7575 14.7429 7.7575C14.487 7.7575 14.231 7.65983 14.0358 7.46463C13.6453 7.0741 13.6453 6.44096 14.0358 6.05043L16.8642 3.22183Z" fill="black"/>
<path d="M5.55026 14.5356C5.94072 14.1452 6.57392 14.1452 6.96445 14.5356C7.35498 14.9262 7.35492 15.5593 6.96445 15.9499L4.13593 18.7783C3.94066 18.9735 3.68473 19.0711 3.4288 19.0711C3.17287 19.0711 2.91693 18.9735 2.72173 18.7783C2.3312 18.3877 2.3312 17.7546 2.72173 17.3641L5.55026 14.5356Z" fill="black"/>
<path d="M15.45 14.5356L18.2784 17.364C18.6689 17.7545 18.6689 18.3877 18.2784 18.7782C18.0831 18.9735 17.8272 19.0711 17.5713 19.0711C17.3153 19.0711 17.0594 18.9735 16.8642 18.7782L14.0358 15.9498C13.6453 15.5592 13.6453 14.9261 14.0358 14.5356C14.4263 14.145 15.0595 14.145 15.45 14.5356Z" fill="black"/>
</svg>
