<svg width="35" height="35" viewBox="0 0 35 35" fill="none" xmlns="http://www.w3.org/2000/svg">
<circle cx="17.5" cy="17.5" r="17" fill="#0A1647" stroke="#ECE9F1"/>
<path d="M15.5254 16.2745L17.699 21.0132L20.9271 19.1784H20.933V15.5074L15.5254 16.2745Z" fill="#2BBDF7"/>
<path d="M25.1033 12.7529L23.0881 12.0078L20.9336 11.8348V15.5073V23.2762L24.1661 25.1125L26.7445 19.941L25.1092 14.9632L25.1033 12.7529Z" fill="#2891F9"/>
<path d="M24.9155 11.8348L24.166 13.671V25.0846L27.3985 23.2469V11.8348H24.9155Z" fill="#2BBDF7"/>
<path d="M24.1661 10L20.9336 11.8348L24.1661 13.6711L27.3987 11.8348L24.1661 10Z" fill="#2B6DEF"/>
<path d="M17.6991 17.3421L14.4665 13.7752L8 11.8348V23.2469L11.2325 25.0846L12.158 18.7677L14.4665 19.1784L17.6991 21.0132V17.3421Z" fill="#2891F9"/>
<path d="M11.2325 10L8 11.8348L17.6991 17.3421L19.1643 16.512L20.9331 15.5073L11.2325 10Z" fill="#2B6DEF"/>
<path d="M11.2324 17.3422V25.0847L14.4664 23.247V19.1784L11.2324 17.3422Z" fill="#2BBDF7"/>
</svg>
