<svg width="29" height="29" viewBox="0 0 29 29" fill="none" xmlns="http://www.w3.org/2000/svg">
<path d="M26.068 19L24.5417 24.125L21.5454 23.3112L26.068 19Z" fill="#E4761B" stroke="#E4761B"/>
<path d="M21.5454 23.25L24.4354 19.3736L26.068 19L21.5454 23.25Z" fill="#E4761B" stroke="#E4761B"/>
<path d="M23.8066 15.1214L26.0679 18.9951L24.4239 19.375L23.8066 15.1214ZM23.8066 15.1214L25.2617 14.125L26.0679 18.9951L23.8066 15.1214Z" fill="#F6851B" stroke="#F6851B"/>
<path d="M21.9224 12.2622L26.1937 10.5L25.9814 11.4653L21.9224 12.2622ZM25.8463 12.625L21.9224 12.2622L25.9814 11.4653L25.8463 12.625Z" fill="#763D16" stroke="#763D16"/>
<path d="M25.7386 12.543L25.2068 14.125L21.9224 12.1942L25.7386 12.543ZM26.5706 10.8924L25.8699 11.428L26.0764 10.5L26.5706 10.8924ZM25.7386 12.543L25.8699 11.428L26.4267 11.889L25.7386 12.543Z" fill="#763D16" stroke="#763D16"/>
<path d="M18.4048 22.125L19.4171 22.4216L21.5455 23.25L18.4048 22.125Z" fill="#E2761B" stroke="#E2761B"/>
<path d="M25.3113 14.125L25.8534 12.5887L26.319 12.9274L25.3113 14.125ZM25.3113 14.125L20.917 12.752L21.963 12.25L25.3113 14.125Z" fill="#763D16" stroke="#763D16"/>
<path d="M23.0527 7.375L21.9848 12.2325L20.917 12.75L23.0527 7.375Z" fill="#763D16" stroke="#763D16"/>
<path d="M26.1937 10.5478L21.9224 12.25L22.9773 7.375L26.1937 10.5478Z" fill="#763D16" stroke="#763D16"/>
<path d="M23.0527 7.36904L27.3241 6.875L26.1345 10.5L23.0527 7.36904Z" fill="#763D16" stroke="#763D16"/>
<path d="M25.314 14.1431L23.8398 15.125L20.917 12.75L25.314 14.1431Z" fill="#F6851B" stroke="#F6851B"/>
<path d="M27.1392 3.375L27.3241 6.87578L23.0527 7.375L27.1392 3.375Z" fill="#763D16" stroke="#763D16"/>
<path d="M27.1988 3.375L18.5176 9.625L18.4048 5.38592L27.1988 3.375Z" fill="#E2761B" stroke="#E2761B"/>
<path d="M11.9976 4.875L18.418 5.38415L18.5302 9.625L11.9976 4.875Z" fill="#F6851B" stroke="#F6851B"/>
<path d="M20.9983 12.75L18.5303 9.65719L23.0529 7.375L20.9983 12.75Z" fill="#763D16" stroke="#763D16"/>
<path d="M20.9433 12.75L23.8067 15.1793L19.7866 15.625L20.9433 12.75Z" fill="#E4761B" stroke="#E4761B"/>
<path d="M19.7964 15.625L18.5303 9.625L20.9172 12.7445L19.7964 15.625Z" fill="#E4761B" stroke="#E4761B"/>
<path d="M23.0491 7.3534L18.5303 9.625L27.1986 3.375L23.0491 7.3534Z" fill="#763D16" stroke="#763D16"/>
<path d="M12.0098 23.2701L14.1331 25.375L11.2437 22.875L12.0098 23.2701Z" fill="#C0AD9E" stroke="#C0AD9E"/>
<path d="M21.5454 23.25L22.5148 19.6444L24.4349 19.375L21.5454 23.25Z" fill="#CD6116" stroke="#CD6116"/>
<path d="M3.70605 13L7.34927 9.375L4.17594 12.5674L3.70605 13Z" fill="#E2761B" stroke="#E2761B"/>
<path d="M24.4347 19.3517L22.5237 19.625L23.8247 15.1099L24.4347 19.3517ZM18.5212 9.62605L15.0913 9.51426L11.9976 4.875L18.5212 9.62605Z" fill="#F6851B" stroke="#F6851B"/>
<path d="M23.8067 15.125L22.5288 19.625L22.4248 17.4276L23.8067 15.125Z" fill="#E4751F" stroke="#E4751F"/>
<path d="M19.7866 15.5783L23.8067 15.125L22.3937 17.5L19.7866 15.5783Z" fill="#CD6116" stroke="#CD6116"/>
<path d="M15.1382 9.5L18.5082 9.61343L19.7864 15.625L15.1382 9.5Z" fill="#F6851B" stroke="#F6851B"/>
<path d="M15.1383 9.54658L5.83432 1L12.0286 4.90683L15.1383 9.54658ZM12.0224 24.5155L3.93849 27L2.32422 20.882L12.0224 24.5155Z" fill="#E4761B" stroke="#E4761B"/>
<path d="M4.9624 14.5L8.03798 12.25L10.6157 12.8081L4.9624 14.5Z" fill="#763D16" stroke="#763D16"/>
<path d="M10.6157 12.75L7.97754 12.1675L9.39017 6.625L10.6157 12.75Z" fill="#763D16" stroke="#763D16"/>
<path d="M4.2085 12.6377L7.97734 12.25L4.94736 14.5L4.2085 12.6377Z" fill="#763D16" stroke="#763D16"/>
<path d="M22.4248 17.5L20.8305 16.7089L19.7866 15.625L22.4248 17.5Z" fill="#CD6116" stroke="#CD6116"/>
<path d="M4.22346 12.625L3.95752 11.25L7.97762 12.2252L4.22346 12.625Z" fill="#763D16" stroke="#763D16"/>
<path d="M20.54 18.5L20.8624 16.75L22.4245 17.5271L20.54 18.5Z" fill="#233447" stroke="#233447"/>
<path d="M22.5501 19.625L20.54 18.4518L22.4436 17.5L22.5501 19.625Z" fill="#F6851B" stroke="#F6851B"/>
<path d="M8.00361 12.1675L3.91402 11.1804L3.58057 10.0094L8.00361 12.1675ZM9.38148 6.625L8.00361 12.1675L3.58057 10.0094L9.38148 6.625ZM9.38148 6.625L15.1384 9.57407L10.5769 12.75L9.38148 6.625Z" fill="#763D16" stroke="#763D16"/>
<path d="M10.6157 12.7145L15.135 9.5L17.1484 15.625L10.6157 12.7145ZM17.1484 15.625L10.9025 15.4947L10.6157 12.7145L17.1484 15.625Z" fill="#E4761B" stroke="#E4761B"/>
<path d="M4.9624 14.5018L10.5448 12.7145L10.8311 15.4947L4.9624 14.5018ZM19.7865 15.5319L17.0669 15.625L15.0567 9.5L19.7865 15.5319Z" fill="#F6851B" stroke="#F6851B"/>
<path d="M20.7916 16.7125L20.4749 18.5L19.7866 15.625L20.7916 16.7125Z" fill="#CD6116" stroke="#CD6116"/>
<path d="M5.8418 1L15.1383 9.5L9.41785 6.52871L5.8418 1Z" fill="#763D16" stroke="#763D16"/>
<path d="M2.32422 20.9413L10.1503 20.625L11.9976 24.5L2.32422 20.9413Z" fill="#E4761B" stroke="#E4761B"/>
<path d="M11.9847 24.5L10.1133 20.5605L14.0078 20.375L11.9847 24.5Z" fill="#CD6116" stroke="#CD6116"/>
<path d="M20.5702 18.4157L22.5754 19.6416L23.681 22.25L20.5702 18.4157ZM10.8757 15.5008L2.32422 20.8739L4.98523 14.5L10.8757 15.5008ZM10.1573 20.5486L2.32422 20.8739L10.8757 15.5008L10.1573 20.5486ZM19.8644 15.5383L20.3766 17.4023L17.903 17.5462L19.8644 15.5383ZM17.903 17.5462L17.1347 15.6322L19.8644 15.5383L17.903 17.5462Z" fill="#F6851B" stroke="#F6851B"/>
<path d="M14.0927 25.3376L11.9976 24.5L19.284 25.75L14.0927 25.3376Z" fill="#C0AD9E" stroke="#C0AD9E"/>
<path d="M4.96234 14.5L3.70605 13.045L4.1837 12.625L4.96234 14.5Z" fill="#763D16" stroke="#763D16"/>
<path d="M20.1634 24.8236L19.3312 25.75L11.9976 24.5L20.1634 24.8236Z" fill="#D7C1B3" stroke="#D7C1B3"/>
<path d="M20.5403 22.6014L11.9976 24.5L13.9959 20.375L20.5403 22.6014Z" fill="#E4761B" stroke="#E4761B"/>
<path d="M11.9976 24.5545L20.5403 22.625L20.1469 24.875L11.9976 24.5545Z" fill="#D7C1B3" stroke="#D7C1B3"/>
<path d="M3.60972 10.0279L3.3291 5.25L9.35925 6.59825L3.60972 10.0279ZM4.20837 12.625L3.37899 11.7862L3.94022 11.2146L4.20837 12.625Z" fill="#763D16" stroke="#763D16"/>
<path d="M15.6406 16.9034L17.1482 15.625L16.9328 18.75L15.6406 16.9034Z" fill="#CD6116" stroke="#CD6116"/>
<path d="M17.1484 15.625L15.7158 16.9063L13.6309 18L17.1484 15.625Z" fill="#CD6116" stroke="#CD6116"/>
<path d="M23.6807 22.25L23.296 21.9747L20.54 18.5L23.6807 22.25Z" fill="#F6851B" stroke="#F6851B"/>
<path d="M13.7007 18L10.8672 15.625L17.1486 15.7535L13.7007 18Z" fill="#CD6116" stroke="#CD6116"/>
<path d="M16.897 18.75L17.1045 15.625L17.902 17.6007L16.897 18.75Z" fill="#E4751F" stroke="#E4751F"/>
<path d="M3.07812 10.4974L3.6097 10L3.95752 11.25L3.07812 10.4974Z" fill="#763D16" stroke="#763D16"/>
<path d="M16.8972 18.75L13.6309 17.983L15.6865 16.875L16.8972 18.75Z" fill="#233447" stroke="#233447"/>
<path d="M9.35925 6.625L3.3291 5.26117L5.7923 1L9.35925 6.625Z" fill="#763D16" stroke="#763D16"/>
<path d="M19.3193 25.7529L19.6609 26.625L14.1333 25.375L19.3193 25.7529Z" fill="#C0AD9E" stroke="#C0AD9E"/>
<path d="M13.9398 20.375L13.6309 18L16.8972 18.7143L13.9398 20.375Z" fill="#F6851B" stroke="#F6851B"/>
<path d="M10.8672 15.625L13.7007 17.9969L14.0079 20.375L10.8672 15.625Z" fill="#E4751F" stroke="#E4751F"/>
<path d="M17.8874 17.6411L20.3701 17.4993L23.3042 22L17.8874 17.6411ZM10.8343 15.625L13.9753 20.4155L10.1133 20.6005L10.8343 15.625Z" fill="#F6851B" stroke="#F6851B"/>
<path d="M17.8601 17.625L20.9171 22.25L16.897 18.7241L17.8601 17.625Z" fill="#E4751F" stroke="#E4751F"/>
<path d="M16.897 18.75L20.9171 22.251L20.4946 22.625L16.897 18.75Z" fill="#F6851B" stroke="#F6851B"/>
<path d="M20.5553 22.625L14.0078 20.4028L16.938 18.7238L20.5553 22.625ZM23.3043 21.9892L20.9802 22.2485L17.9063 17.625L23.3043 21.9892Z" fill="#F6851B" stroke="#F6851B"/>
<path d="M23.9324 24.125L22.9192 26.1065L19.6325 26.625L23.9324 24.125ZM19.6325 26.625L19.2842 25.6991L20.1264 24.7978L19.6325 26.625Z" fill="#C0AD9E" stroke="#C0AD9E"/>
<path d="M20.1513 24.7978L20.7678 24.5571L19.6606 26.625L20.1513 24.7978ZM19.6606 26.625L20.7678 24.5571L23.932 24.125L19.6606 26.625Z" fill="#C0AD9E" stroke="#C0AD9E"/>
<path d="M23.2728 22L24.0578 22.4688L21.6709 22.75L23.2728 22Z" fill="#161616" stroke="#161616"/>
<path d="M21.6585 22.7244L20.917 22.2536L23.1967 22L21.6585 22.7244ZM21.395 23.0806L24.1833 22.7486L23.7972 24.125L21.395 23.0806Z" fill="#161616" stroke="#161616"/>
<path d="M23.8023 24.1921L20.7569 24.6307L21.4289 23.1083L23.8023 24.1921ZM20.7569 24.6307L20.1636 24.875L20.545 22.6322L20.7569 24.6307ZM20.545 22.6322L20.9567 22.25L21.6893 22.7387L20.545 22.6322ZM23.9536 22.4567L24.1837 22.7637L21.4289 23.1083L23.9536 22.4567Z" fill="#161616" stroke="#161616"/>
<path d="M21.4522 23.0494L21.7209 22.6668L24.0576 22.375L21.4522 23.0494ZM20.54 22.5566L21.4522 23.0494L20.7587 24.625L20.54 22.5566Z" fill="#161616" stroke="#161616"/>
<path d="M21.6707 22.7368L21.4135 23.125L20.54 22.625L21.6707 22.7368Z" fill="#161616" stroke="#161616"/>
</svg>
