<svg width="12" height="12" viewBox="0 0 12 12" fill="none" xmlns="http://www.w3.org/2000/svg">
<g clip-path="url(#clip0)">
<path d="M11.8 11.601H10.9876C10.9962 11.5353 11 11.4682 11 11.401C11 10.8365 10.6751 10.356 10.2 10.1334V3.40099C10.2 3.28099 10.12 3.201 10 3.201H7.00003V0.200999C7.00003 0.0809993 6.92004 0.00100709 6.80004 0.00100709H1.40004C1.27999 0.000983648 1.2 0.0809758 1.2 0.200976V11.601H0.199992C0.0799922 11.601 0 11.681 0 11.801C0 11.921 0.0799922 12.001 0.199992 12.001H1.39999H1.99999H6.79999H10.74H11.8C11.92 12.001 12 11.921 12 11.801C12 11.681 11.92 11.601 11.8 11.601ZM9.79999 10.0151C9.73472 10.006 9.66802 10.001 9.6 10.001C9.44902 10.001 9.30091 10.0267 9.16099 10.0747C9.12614 10.0283 9.06996 10.001 9 10.001C8.88 10.001 8.80001 10.081 8.80001 10.201V10.2622C8.72421 10.3169 8.65373 10.3792 8.58977 10.4484C8.57967 10.4591 8.56973 10.4699 8.56001 10.4809C8.39428 10.2738 8.18081 10.1239 7.93945 10.051C7.90479 10.0192 7.857 10.0009 7.8 10.0009C7.77771 10.0009 7.7568 10.0037 7.73752 10.009C7.69235 10.0037 7.64648 10.0009 7.60001 10.0009C7.47466 10.0009 7.33352 10.0172 7.21917 10.0636C7.20502 10.0684 7.19095 10.0733 7.17703 10.0786C7.03882 9.96626 6.87717 9.88537 6.70683 9.84087C6.70502 9.84037 6.70317 9.84002 6.70139 9.83953C6.68653 9.83571 6.67163 9.83208 6.65665 9.82882C6.64451 9.82615 6.63223 9.82383 6.61997 9.82153C6.61465 9.82055 6.60933 9.81949 6.60398 9.81858C6.59112 9.81635 6.5782 9.81438 6.5652 9.81258C6.55938 9.81176 6.55357 9.81103 6.54773 9.8103C6.5358 9.80883 6.52383 9.80744 6.51178 9.80634C6.50299 9.80552 6.49418 9.80491 6.48537 9.80428C6.47595 9.80362 6.46655 9.80285 6.45706 9.80241C6.43805 9.80149 6.41904 9.80093 6.40001 9.80093C6.38529 9.80093 6.37069 9.80123 6.35616 9.80177C6.34664 9.8021 6.33715 9.80269 6.32766 9.80323C6.32386 9.80346 6.32002 9.80362 6.31622 9.80388C6.13402 9.81598 5.955 9.8674 5.79998 9.95848V3.60098H6.79999H9.79999V10.0151ZM1.60001 0.400991H6.6V3.201H5.59999C5.47999 3.201 5.4 3.28099 5.4 3.40099V9.621C5.29779 9.51879 5.17997 9.43233 5.0517 9.36466C5.04038 9.35862 5.02894 9.35276 5.01745 9.34704C5.01293 9.34481 5.00845 9.34249 5.00391 9.34031C4.86117 9.27108 4.70585 9.22566 4.54355 9.20866C4.54127 9.20843 4.53898 9.20824 4.53668 9.20801C4.51784 9.20613 4.4989 9.20466 4.47987 9.20355C4.47483 9.20325 4.46979 9.20294 4.46473 9.20269C4.44323 9.20168 4.42167 9.201 4.39999 9.201C4.10234 9.201 3.82657 9.2989 3.6 9.46343V9.40101C3.6 9.28101 3.52001 9.20102 3.40001 9.20102C3.28001 9.20102 3.20002 9.28101 3.20002 9.40101V9.80102C3.20002 9.83102 3.20501 9.85851 3.21438 9.88289C3.11618 10.0447 3.04852 10.2272 3.02002 10.421C2.78977 10.4474 2.57923 10.5302 2.40002 10.6541V10.601C2.40002 10.481 2.32003 10.401 2.20003 10.401C2.08003 10.401 2.00004 10.481 2.00004 10.601V11.001C2.00004 11.0244 2.00316 11.0462 2.00892 11.0662C1.90976 11.2266 1.84228 11.408 1.81448 11.601H1.60005V0.400991H1.60001ZM3.10898 10.8051C3.11295 10.8048 3.11695 10.8045 3.12094 10.8042C3.13148 10.8034 3.14203 10.8026 3.15267 10.8021C3.16835 10.8014 3.18412 10.801 3.20002 10.801C3.32002 10.801 3.40001 10.721 3.40001 10.601C3.40001 10.041 3.84 9.60096 4.40002 9.60096C4.90001 9.60096 5.32001 9.96096 5.38001 10.461C5.39353 10.515 5.42564 10.5596 5.46956 10.5892C5.47233 10.5912 5.47516 10.593 5.47805 10.5948C5.48114 10.5967 5.48421 10.5986 5.48742 10.6004C5.4948 10.6045 5.50249 10.6082 5.51051 10.6114C5.51081 10.6115 5.51109 10.6116 5.5114 10.6118C5.52056 10.6154 5.53013 10.6185 5.53999 10.621C5.54002 10.621 5.54002 10.621 5.54004 10.621C5.55195 10.6249 5.56547 10.6265 5.57977 10.626C5.64551 10.627 5.70666 10.591 5.74001 10.541C5.74001 10.541 5.74003 10.541 5.74005 10.541L5.76005 10.521C5.92005 10.321 6.14004 10.201 6.40005 10.201C6.5351 10.201 6.67008 10.2388 6.79123 10.3096C6.55266 10.5339 6.41737 10.8263 6.40165 11.1392C6.40059 11.1597 6.40005 11.1803 6.40005 11.201C6.40005 11.3401 6.42319 11.4734 6.46896 11.601H2.22C2.31361 11.1704 2.67009 10.845 3.10898 10.8051ZM6.94111 11.601C6.8647 11.4717 6.82001 11.319 6.82001 11.181C6.82001 10.9598 6.9072 10.7606 7.05705 10.6149C7.0857 10.5884 7.11623 10.5639 7.14848 10.5417C7.17973 10.5419 7.21116 10.5354 7.24001 10.521C7.68 10.281 8.20001 10.501 8.36002 10.941C8.38001 11.001 8.44001 11.061 8.54002 11.061C8.559 11.061 8.58 11.0549 8.60109 11.0442C8.65127 11.036 8.69095 10.9991 8.72002 10.941C8.79752 10.7763 8.91752 10.6448 9.06359 10.5526C9.09511 10.5438 9.12218 10.5283 9.14372 10.5071C9.28109 10.4381 9.4368 10.401 9.60002 10.401C10.16 10.401 10.6 10.841 10.6 11.401C10.6 11.461 10.6 11.541 10.58 11.601H6.94111Z" fill="black"/>
<path d="M6.59996 5.20001C6.47996 5.20001 6.39996 5.28 6.39996 5.4V5.80001C6.39996 5.92001 6.47996 6 6.59996 6C6.71996 6 6.79995 5.92001 6.79995 5.80001V5.4C6.79995 5.28 6.71996 5.20001 6.59996 5.20001Z" fill="black"/>
<path d="M6.59996 8.80002C6.47996 8.80002 6.39996 8.88001 6.39996 9.00001V9.40002C6.39996 9.52002 6.47996 9.60001 6.59996 9.60001C6.71996 9.60001 6.79995 9.52002 6.79995 9.40002V9.00001C6.79995 8.88001 6.71996 8.80002 6.59996 8.80002Z" fill="black"/>
<path d="M6.59996 6.39999C6.47996 6.39999 6.39996 6.47999 6.39996 6.59999V6.99999C6.39996 7.11999 6.47996 7.19999 6.59996 7.19999C6.71996 7.19999 6.79995 7.11999 6.79995 6.99999V6.59999C6.79995 6.47999 6.71996 6.39999 6.59996 6.39999Z" fill="black"/>
<path d="M6.59996 7.60001C6.47996 7.60001 6.39996 7.68 6.39996 7.8V8.20001C6.39996 8.32001 6.47996 8.4 6.59996 8.4C6.71996 8.4 6.79995 8.32001 6.79995 8.20001V7.8C6.79995 7.68 6.71996 7.60001 6.59996 7.60001Z" fill="black"/>
<path d="M6.59996 4.00002C6.47996 4.00002 6.39996 4.08001 6.39996 4.20001V4.60002C6.39996 4.72002 6.47996 4.80001 6.59996 4.80001C6.71996 4.80001 6.79995 4.72002 6.79995 4.60002V4.20001C6.79995 4.08001 6.71996 4.00002 6.59996 4.00002Z" fill="black"/>
<path d="M7.80003 6C7.92003 6 8.00002 5.92001 8.00002 5.80001V5.4C8.00002 5.28 7.92003 5.20001 7.80003 5.20001C7.68003 5.20001 7.60004 5.28 7.60004 5.4V5.80001C7.60004 5.92001 7.68003 6 7.80003 6Z" fill="black"/>
<path d="M7.80003 4.80001C7.92003 4.80001 8.00002 4.72002 8.00002 4.60002V4.20001C8.00002 4.08001 7.92003 4.00002 7.80003 4.00002C7.68003 4.00002 7.60004 4.08001 7.60004 4.20001V4.60002C7.60004 4.72002 7.68003 4.80001 7.80003 4.80001Z" fill="black"/>
<path d="M7.80003 7.19999C7.92003 7.19999 8.00002 7.11999 8.00002 6.99999V6.59999C8.00002 6.47999 7.92003 6.39999 7.80003 6.39999C7.68003 6.39999 7.60004 6.47999 7.60004 6.59999V6.99999C7.60004 7.11999 7.68003 7.19999 7.80003 7.19999Z" fill="black"/>
<path d="M7.80003 8.4C7.92003 8.4 8.00002 8.32001 8.00002 8.20001V7.8C8.00002 7.68 7.92003 7.60001 7.80003 7.60001C7.68003 7.60001 7.60004 7.68 7.60004 7.8V8.20001C7.60004 8.32001 7.68003 8.4 7.80003 8.4Z" fill="black"/>
<path d="M7.80003 9.60001C7.92003 9.60001 8.00002 9.52002 8.00002 9.40002V9.00001C8.00002 8.88001 7.92003 8.80002 7.80003 8.80002C7.68003 8.80002 7.60004 8.88001 7.60004 9.00001V9.40002C7.60004 9.52002 7.68003 9.60001 7.80003 9.60001Z" fill="black"/>
<path d="M8.99992 7.19999C9.11992 7.19999 9.19991 7.11999 9.19991 6.99999V6.59999C9.19991 6.47999 9.11992 6.39999 8.99992 6.39999C8.87992 6.39999 8.79993 6.47999 8.79993 6.59999V6.99999C8.79993 7.11999 8.87992 7.19999 8.99992 7.19999Z" fill="black"/>
<path d="M8.99992 6C9.11992 6 9.19991 5.92001 9.19991 5.80001V5.4C9.19991 5.28 9.11992 5.20001 8.99992 5.20001C8.87992 5.20001 8.79993 5.28 8.79993 5.4V5.80001C8.79993 5.92001 8.87992 6 8.99992 6Z" fill="black"/>
<path d="M8.99992 9.60001C9.11992 9.60001 9.19991 9.52002 9.19991 9.40002V9.00001C9.19991 8.88001 9.11992 8.80002 8.99992 8.80002C8.87992 8.80002 8.79993 8.88001 8.79993 9.00001V9.40002C8.79993 9.52002 8.87992 9.60001 8.99992 9.60001Z" fill="black"/>
<path d="M8.99992 8.4C9.11992 8.4 9.19991 8.32001 9.19991 8.20001V7.8C9.19991 7.68 9.11992 7.60001 8.99992 7.60001C8.87992 7.60001 8.79993 7.68 8.79993 7.8V8.20001C8.79993 8.32001 8.87992 8.4 8.99992 8.4Z" fill="black"/>
<path d="M8.99992 4.80001C9.11992 4.80001 9.19991 4.72002 9.19991 4.60002V4.20001C9.19991 4.08001 9.11992 4.00002 8.99992 4.00002C8.87992 4.00002 8.79993 4.08001 8.79993 4.20001V4.60002C8.79993 4.72002 8.87992 4.80001 8.99992 4.80001Z" fill="black"/>
<path d="M2.19993 7.59999C2.31993 7.59999 2.39992 7.52 2.39992 7.4V6.99999C2.39992 6.87999 2.31993 6.8 2.19993 6.8C2.07993 6.8 1.99994 6.87999 1.99994 6.99999V7.4C1.99992 7.51998 2.07993 7.59999 2.19993 7.59999Z" fill="black"/>
<path d="M2.19993 8.80001C2.31993 8.80001 2.39992 8.72001 2.39992 8.60001V8.20001C2.39992 8.08001 2.31993 8.00002 2.19993 8.00002C2.07993 8.00002 1.99994 8.08001 1.99994 8.20001V8.60001C1.99992 8.71999 2.07993 8.80001 2.19993 8.80001Z" fill="black"/>
<path d="M2.19993 10C2.31993 10 2.39992 9.92001 2.39992 9.80001V9.4C2.39992 9.28 2.31993 9.20001 2.19993 9.20001C2.07993 9.20001 1.99994 9.28 1.99994 9.4V9.80001C1.99992 9.91999 2.07993 10 2.19993 10Z" fill="black"/>
<path d="M2.19993 1.60001C2.31993 1.60001 2.39992 1.52002 2.39992 1.40002V1.00001C2.39992 0.880011 2.31993 0.800018 2.19993 0.800018C2.07993 0.800018 1.99994 0.880011 1.99994 1.00001V1.40002C1.99992 1.52 2.07993 1.60001 2.19993 1.60001Z" fill="black"/>
<path d="M2.19993 2.80001C2.31993 2.80001 2.39992 2.72002 2.39992 2.60002V2.20001C2.39992 2.08001 2.31993 2.00002 2.19993 2.00002C2.07993 2.00002 1.99994 2.08001 1.99994 2.20001V2.60002C1.99992 2.71999 2.07993 2.80001 2.19993 2.80001Z" fill="black"/>
<path d="M2.19993 4C2.31993 4 2.39992 3.92001 2.39992 3.80001V3.4C2.39992 3.28 2.31993 3.20001 2.19993 3.20001C2.07993 3.20001 1.99994 3.28 1.99994 3.4V3.80001C1.99992 3.91999 2.07993 4 2.19993 4Z" fill="black"/>
<path d="M2.19993 5.2C2.31993 5.2 2.39992 5.12001 2.39992 5.00001V4.6C2.39992 4.48 2.31993 4.40001 2.19993 4.40001C2.07993 4.40001 1.99994 4.48 1.99994 4.6V5.00001C1.99992 5.11999 2.07993 5.2 2.19993 5.2Z" fill="black"/>
<path d="M2.19993 6.40001C2.31993 6.40001 2.39992 6.32002 2.39992 6.20002V5.80001C2.39992 5.68001 2.31993 5.60002 2.19993 5.60002C2.07993 5.60002 1.99994 5.68001 1.99994 5.80001V6.20002C1.99992 6.32 2.07993 6.40001 2.19993 6.40001Z" fill="black"/>
<path d="M3.4 2.80001C3.52 2.80001 3.6 2.72002 3.6 2.60002V2.20001C3.6 2.08001 3.52 2.00002 3.4 2.00002C3.28 2.00002 3.20001 2.08001 3.20001 2.20001V2.60002C3.19999 2.71999 3.28 2.80001 3.4 2.80001Z" fill="black"/>
<path d="M3.4 1.60001C3.52 1.60001 3.6 1.52002 3.6 1.40002V1.00001C3.6 0.880011 3.52 0.800018 3.4 0.800018C3.28 0.800018 3.20001 0.880011 3.20001 1.00001V1.40002C3.19999 1.52 3.28 1.60001 3.4 1.60001Z" fill="black"/>
<path d="M3.4 5.2C3.52 5.2 3.6 5.12001 3.6 5.00001V4.6C3.6 4.48 3.52 4.40001 3.4 4.40001C3.28 4.40001 3.20001 4.48 3.20001 4.6V5.00001C3.19999 5.11999 3.28 5.2 3.4 5.2Z" fill="black"/>
<path d="M3.4 4C3.52 4 3.6 3.92001 3.6 3.80001V3.4C3.6 3.28 3.52 3.20001 3.4 3.20001C3.28 3.20001 3.20001 3.28 3.20001 3.4V3.80001C3.19999 3.91999 3.28 4 3.4 4Z" fill="black"/>
<path d="M3.4 6.40001C3.52 6.40001 3.6 6.32002 3.6 6.20002V5.80001C3.6 5.68001 3.52 5.60002 3.4 5.60002C3.28 5.60002 3.20001 5.68001 3.20001 5.80001V6.20002C3.19999 6.32 3.28 6.40001 3.4 6.40001Z" fill="black"/>
<path d="M3.4 7.59999C3.52 7.59999 3.6 7.52 3.6 7.4V6.99999C3.6 6.87999 3.52 6.8 3.4 6.8C3.28 6.8 3.20001 6.87999 3.20001 6.99999V7.4C3.19999 7.51998 3.28 7.59999 3.4 7.59999Z" fill="black"/>
<path d="M3.4 8.80001C3.52 8.80001 3.6 8.72001 3.6 8.60001V8.20001C3.6 8.08001 3.52 8.00002 3.4 8.00002C3.28 8.00002 3.20001 8.08001 3.20001 8.20001V8.60001C3.19999 8.71999 3.28 8.80001 3.4 8.80001Z" fill="black"/>
<path d="M4.60014 4C4.72014 4 4.80013 3.92001 4.80013 3.80001V3.4C4.80013 3.28 4.72014 3.20001 4.60014 3.20001C4.48014 3.20001 4.40015 3.28 4.40015 3.4V3.80001C4.40012 3.91999 4.48014 4 4.60014 4Z" fill="black"/>
<path d="M4.60014 2.80001C4.72014 2.80001 4.80013 2.72002 4.80013 2.60002V2.20001C4.80013 2.08001 4.72014 2.00002 4.60014 2.00002C4.48014 2.00002 4.40015 2.08001 4.40015 2.20001V2.60002C4.40012 2.71999 4.48014 2.80001 4.60014 2.80001Z" fill="black"/>
<path d="M4.60014 1.60001C4.72014 1.60001 4.80013 1.52002 4.80013 1.40002V1.00001C4.80013 0.880011 4.72014 0.800018 4.60014 0.800018C4.48014 0.800018 4.40015 0.880011 4.40015 1.00001V1.40002C4.40012 1.52 4.48014 1.60001 4.60014 1.60001Z" fill="black"/>
<path d="M4.60014 8.80001C4.72014 8.80001 4.80013 8.72001 4.80013 8.60001V8.20001C4.80013 8.08001 4.72014 8.00002 4.60014 8.00002C4.48014 8.00002 4.40015 8.08001 4.40015 8.20001V8.60001C4.40012 8.71999 4.48014 8.80001 4.60014 8.80001Z" fill="black"/>
<path d="M4.60014 7.59999C4.72014 7.59999 4.80013 7.52 4.80013 7.4V6.99999C4.80013 6.87999 4.72014 6.8 4.60014 6.8C4.48014 6.8 4.40015 6.87999 4.40015 6.99999V7.4C4.40012 7.51998 4.48014 7.59999 4.60014 7.59999Z" fill="black"/>
<path d="M4.60014 6.40001C4.72014 6.40001 4.80013 6.32002 4.80013 6.20002V5.80001C4.80013 5.68001 4.72014 5.60002 4.60014 5.60002C4.48014 5.60002 4.40015 5.68001 4.40015 5.80001V6.20002C4.40012 6.32 4.48014 6.40001 4.60014 6.40001Z" fill="black"/>
<path d="M4.60014 5.2C4.72014 5.2 4.80013 5.12001 4.80013 5.00001V4.6C4.80013 4.48 4.72014 4.40001 4.60014 4.40001C4.48014 4.40001 4.40015 4.48 4.40015 4.6V5.00001C4.40012 5.11999 4.48014 5.2 4.60014 5.2Z" fill="black"/>
<path d="M5.79997 2.80001C5.91997 2.80001 5.99996 2.72002 5.99996 2.60002V2.20001C5.99996 2.08001 5.91997 2.00002 5.79997 2.00002C5.67997 2.00002 5.59998 2.08001 5.59998 2.20001V2.60002C5.59995 2.71999 5.67997 2.80001 5.79997 2.80001Z" fill="black"/>
<path d="M5.79997 1.60001C5.91997 1.60001 5.99996 1.52002 5.99996 1.40002V1.00001C5.99996 0.880011 5.91997 0.800018 5.79997 0.800018C5.67997 0.800018 5.59998 0.880011 5.59998 1.00001V1.40002C5.59995 1.52 5.67997 1.60001 5.79997 1.60001Z" fill="black"/>
</g>
<defs>
<clipPath id="clip0">
<rect width="12" height="12" fill="white"/>
</clipPath>
</defs>
</svg>
