<svg width="24" height="24" viewBox="0 0 24 24" fill="none" xmlns="http://www.w3.org/2000/svg">
<path d="M15.9629 6.21402C15.8991 6.214 15.8367 6.19516 15.7836 6.15986C15.0307 5.65575 14.1858 5.30506 13.2973 5.12786C13.2202 5.11231 13.1515 5.06931 13.1037 5.00685C13.056 4.94439 13.0326 4.86672 13.0378 4.78829C13.0408 4.74678 13.0437 4.70526 13.0437 4.66375V1.06699C13.0438 1.02107 13.0536 0.975691 13.0726 0.933862C13.0915 0.892033 13.1192 0.854706 13.1536 0.824352C13.1881 0.793999 13.2286 0.77131 13.2725 0.757787C13.3164 0.744265 13.3626 0.740217 13.4082 0.745911C15.3705 1.00732 17.2299 1.77895 18.8007 2.98375C18.8374 3.01181 18.8676 3.04737 18.8894 3.08805C18.9112 3.12874 18.9241 3.1736 18.9271 3.21965C18.9302 3.2657 18.9234 3.31187 18.9072 3.35509C18.891 3.3983 18.8658 3.43756 18.8332 3.47024L16.2937 6.0097C16.2645 6.03889 16.2386 6.06775 16.2123 6.09889C16.1817 6.13516 16.1435 6.16427 16.1004 6.18416C16.0573 6.20406 16.0104 6.21425 15.9629 6.21402Z" fill="black"/>
<path d="M22.8587 13.5763C22.8446 13.5762 22.8305 13.5753 22.8165 13.5737C22.7743 13.5682 22.7335 13.5544 22.6966 13.5331C22.6597 13.5118 22.6273 13.4835 22.6013 13.4497C22.5754 13.4159 22.5563 13.3773 22.5453 13.3361C22.5342 13.295 22.5314 13.252 22.5369 13.2098C22.5773 12.8978 22.5989 12.5838 22.6018 12.2692C22.6028 12.1838 22.6373 12.1023 22.6981 12.0422C22.7588 11.9822 22.8407 11.9485 22.9261 11.9485H22.9297C22.9723 11.949 23.0144 11.9578 23.0536 11.9745C23.0927 11.9913 23.1282 12.0155 23.158 12.046C23.1878 12.0764 23.2113 12.1125 23.2271 12.152C23.243 12.1915 23.2509 12.2338 23.2505 12.2764C23.2471 12.6168 23.2235 12.9568 23.1798 13.2944C23.1695 13.3723 23.1312 13.4439 23.0722 13.4957C23.0131 13.5475 22.9373 13.5762 22.8587 13.5763Z" fill="black"/>
<path d="M13.3655 23.2573C13.2795 23.2573 13.197 23.2232 13.1362 23.1624C13.0754 23.1015 13.0412 23.019 13.0412 22.933V19.3363C13.0412 19.2947 13.0383 19.2529 13.0353 19.2114C13.0303 19.1331 13.0538 19.0556 13.1015 18.9932C13.1492 18.9309 13.2179 18.888 13.2948 18.8725C14.3195 18.6625 15.2847 18.2273 16.1205 17.5983C16.9563 16.9693 17.6418 16.1624 18.1272 15.2358C18.2643 14.9726 18.3849 14.701 18.4882 14.4227C18.4908 14.4143 18.4931 14.4062 18.496 14.3987C18.7458 13.7144 18.8859 12.995 18.9111 12.267C18.9141 12.1797 18.9173 12.0899 18.9173 12C18.9173 11.775 18.9063 11.546 18.8849 11.304C18.8061 10.5129 18.5933 9.74092 18.2557 9.02113C18.1076 8.70983 17.9376 8.4094 17.7471 8.1221C17.7029 8.05555 17.6848 7.97503 17.6963 7.89597C17.7078 7.81691 17.7481 7.74487 17.8094 7.69367C17.8418 7.66772 17.8694 7.64177 17.8976 7.61356L20.4377 5.07345C20.47 5.04037 20.5092 5.01478 20.5524 4.99847C20.5957 4.98217 20.642 4.97554 20.6881 4.97907C20.7342 4.98208 20.7791 4.9949 20.8198 5.01666C20.8605 5.03841 20.8961 5.06861 20.9242 5.10523C21.9833 6.48735 22.709 8.09524 23.045 9.80372C23.0615 9.88815 23.0438 9.97567 22.9958 10.047C22.9478 10.1184 22.8733 10.1678 22.7889 10.1843C22.7045 10.2008 22.617 10.1831 22.5456 10.1351C22.4742 10.0871 22.4248 10.0127 22.4083 9.92826C22.1158 8.4408 21.5095 7.03276 20.6301 5.79799L18.4347 7.99367C18.5839 8.23627 18.72 8.48669 18.8424 8.74383C19.2118 9.53118 19.4444 10.3757 19.5303 11.2411C19.5556 11.5064 19.5676 11.7539 19.5676 11.9997C19.5676 12.097 19.5643 12.1963 19.5608 12.2916C19.5333 13.08 19.3827 13.8592 19.1145 14.6011C19.1122 14.6092 19.1096 14.6173 19.1067 14.6251C18.9919 14.9368 18.8571 15.2408 18.7032 15.5352C18.1945 16.507 17.4841 17.3589 16.6195 18.034C15.7549 18.7091 14.756 19.1916 13.6898 19.4495V22.5562C16.4826 22.0787 18.9733 20.5165 20.619 18.2102C20.6707 18.1448 20.7455 18.1018 20.828 18.0901C20.9105 18.0784 20.9944 18.099 21.0622 18.1474C21.13 18.1959 21.1765 18.2686 21.1921 18.3505C21.2077 18.4323 21.1912 18.517 21.1461 18.5871C20.2433 19.8521 19.091 20.9188 17.7603 21.7215C16.4295 22.5242 14.9484 23.0457 13.4083 23.2541C13.3941 23.2561 13.3798 23.2572 13.3655 23.2573Z" fill="black"/>
<path d="M22.0343 16.6833C21.9805 16.6832 21.9275 16.6697 21.8802 16.6441C21.8329 16.6184 21.7927 16.5814 21.7633 16.5364C21.7339 16.4913 21.7161 16.4397 21.7116 16.386C21.7071 16.3324 21.716 16.2785 21.7375 16.2292C21.8591 15.9516 21.9701 15.6626 22.0677 15.371C22.095 15.2893 22.1536 15.2218 22.2306 15.1833C22.3077 15.1448 22.3969 15.1385 22.4786 15.1657C22.5603 15.193 22.6279 15.2516 22.6664 15.3287C22.7049 15.4058 22.7112 15.495 22.6839 15.5767C22.5804 15.8867 22.4627 16.1929 22.333 16.4893C22.3075 16.5473 22.2657 16.5965 22.2126 16.631C22.1596 16.6654 22.0976 16.6836 22.0343 16.6833Z" fill="black"/>
<path d="M7.84874 6.21411C7.80131 6.21412 7.75445 6.20373 7.71147 6.18367C7.66849 6.16361 7.63043 6.13437 7.59998 6.098C7.57371 6.06557 7.54744 6.038 7.51922 6.00914L4.97944 3.47033C4.94685 3.43765 4.92161 3.39839 4.90541 3.35518C4.88921 3.31196 4.88241 3.26579 4.88548 3.21974C4.88855 3.17369 4.90142 3.12882 4.92321 3.08814C4.94501 3.04746 4.97524 3.0119 5.01187 2.98384C6.58251 1.77915 8.44168 1.00752 10.4038 0.746002C10.4496 0.739904 10.4961 0.74366 10.5404 0.757019C10.5846 0.770378 10.6254 0.793031 10.6602 0.823463C10.695 0.853894 10.7228 0.891401 10.7419 0.933472C10.761 0.975543 10.7709 1.02121 10.7709 1.06741V4.66384C10.7709 4.7047 10.7738 4.74557 10.7767 4.78676C10.7824 4.86546 10.7592 4.94352 10.7114 5.00632C10.6636 5.06913 10.5946 5.11237 10.5173 5.12795C9.62819 5.305 8.78275 5.6557 8.02939 6.15995C7.97586 6.1955 7.91299 6.21435 7.84874 6.21411Z" fill="black"/>
<path d="M4.71615 10.8714H4.69377C4.65258 10.8685 4.6114 10.8655 4.56988 10.8655H0.973126C0.926957 10.8655 0.881325 10.8557 0.839279 10.8366C0.797234 10.8175 0.759744 10.7897 0.729318 10.755C0.698892 10.7202 0.67623 10.6794 0.662848 10.6352C0.649466 10.591 0.645673 10.5445 0.651721 10.4987C0.912826 8.53624 1.68448 6.67665 2.88956 5.10587C2.91762 5.06923 2.95318 5.039 2.99386 5.01721C3.03454 4.99541 3.07941 4.98255 3.12546 4.97948C3.17151 4.97641 3.21768 4.9832 3.26089 4.9994C3.30411 5.01561 3.34337 5.04085 3.37604 5.07344L5.9155 7.6129C5.94469 7.64176 5.97291 7.66771 6.00372 7.693C6.06532 7.74415 6.10583 7.81627 6.11744 7.89548C6.12906 7.9747 6.11096 8.05541 6.06664 8.12209C5.56248 8.87562 5.21179 9.72114 5.03464 10.6103C5.01999 10.684 4.98023 10.7503 4.92215 10.7979C4.86407 10.8455 4.79126 10.8715 4.71615 10.8714ZM1.34967 10.2162H4.45572C4.64246 9.43071 4.95399 8.68021 5.37842 7.99333L3.18275 5.79798C2.24537 7.11311 1.61861 8.62379 1.34967 10.2162Z" fill="black"/>
<path d="M10.4466 23.2573C10.4324 23.2573 10.4182 23.2563 10.4042 23.2544C7.93368 22.9242 5.64042 21.7905 3.87799 20.0281C2.11557 18.2657 0.981875 15.9724 0.651721 13.5019C0.645673 13.4562 0.649466 13.4096 0.662848 13.3655C0.67623 13.3213 0.698892 13.2804 0.729318 13.2457C0.759744 13.211 0.797234 13.1832 0.839279 13.1641C0.881325 13.145 0.926958 13.1352 0.973126 13.1351H4.56988C4.60913 13.1351 4.64805 13.1325 4.68729 13.1296C4.76661 13.124 4.84532 13.1471 4.90899 13.1947C4.97266 13.2424 5.01704 13.3114 5.03399 13.3891C5.30257 14.7431 5.96698 15.9869 6.94307 16.963C7.91916 17.9391 9.163 18.6035 10.517 18.8721C10.5944 18.8877 10.6634 18.9309 10.7111 18.9937C10.7589 19.0565 10.7821 19.1346 10.7765 19.2133C10.7736 19.2545 10.7706 19.2953 10.7706 19.3362V22.933C10.7706 23.019 10.7365 23.1015 10.6756 23.1623C10.6148 23.2231 10.5323 23.2573 10.4463 23.2573H10.4466Z" fill="black"/>
<path d="M11.953 12.3243C10.7647 12.3243 9.79785 11.4541 9.79785 10.3851C9.79785 9.31617 10.7647 8.44568 11.953 8.44568C13.1413 8.44568 14.1081 9.31552 14.1081 10.3851C14.1081 10.4712 14.074 10.5536 14.0131 10.6145C13.9523 10.6753 13.8698 10.7095 13.7838 10.7095C13.6978 10.7095 13.6153 10.6753 13.5545 10.6145C13.4936 10.5536 13.4595 10.4712 13.4595 10.3851C13.4595 9.67162 12.7836 9.09433 11.953 9.09433C11.1224 9.09433 10.4465 9.67325 10.4465 10.3851C10.4465 11.097 11.1224 11.6756 11.953 11.6756C12.039 11.6756 12.1215 11.7098 12.1823 11.7706C12.2431 11.8314 12.2773 11.9139 12.2773 11.9999C12.2773 12.086 12.2431 12.1685 12.1823 12.2293C12.1215 12.2901 12.039 12.3243 11.953 12.3243Z" fill="black"/>
<path d="M11.953 15.5543C10.7647 15.5543 9.79785 14.6844 9.79785 13.6148C9.79785 13.5288 9.83202 13.4463 9.89284 13.3855C9.95367 13.3246 10.0362 13.2905 10.1222 13.2905C10.2082 13.2905 10.2907 13.3246 10.3515 13.3855C10.4123 13.4463 10.4465 13.5288 10.4465 13.6148C10.4465 14.3283 11.1224 14.9056 11.953 14.9056C12.7836 14.9056 13.4595 14.3267 13.4595 13.6148C13.4595 12.9029 12.7836 12.3243 11.953 12.3243C11.867 12.3243 11.7845 12.2901 11.7237 12.2293C11.6628 12.1685 11.6287 12.086 11.6287 12C11.6287 11.914 11.6628 11.8315 11.7237 11.7707C11.7845 11.7098 11.867 11.6757 11.953 11.6757C13.1416 11.6757 14.1081 12.5458 14.1081 13.6148C14.1081 14.6838 13.1416 15.5543 11.953 15.5543Z" fill="black"/>
<path d="M11.9527 16.2162C11.8667 16.2162 11.7842 16.1821 11.7234 16.1213C11.6626 16.0604 11.6284 15.9779 11.6284 15.8919V8.10814C11.6284 8.02212 11.6626 7.93963 11.7234 7.87881C11.7842 7.81798 11.8667 7.78381 11.9527 7.78381C12.0388 7.78381 12.1213 7.81798 12.1821 7.87881C12.2429 7.93963 12.2771 8.02212 12.2771 8.10814V15.8919C12.2771 15.9779 12.2429 16.0604 12.1821 16.1213C12.1213 16.1821 12.0388 16.2162 11.9527 16.2162Z" fill="black"/>
</svg>
