<svg width="340" height="124" viewBox="0 0 340 124" fill="none" xmlns="http://www.w3.org/2000/svg">
<g filter="url(#filter0_d)">
<path fill-rule="evenodd" clip-rule="evenodd" d="M74.6779 51.762L100.048 77.0563C100.152 77.1606 100.309 77.2388 100.465 77.2388H104.429C104.637 77.2388 104.898 77.1085 105.002 76.9259C105.133 76.6912 105.08 76.4044 104.898 76.2218L79.5277 50.9276C79.4234 50.8233 79.2669 50.745 79.1105 50.745H75.1472C74.9386 50.745 74.6779 50.8754 74.5736 51.058C74.4432 51.2926 74.4953 51.5795 74.6779 51.762ZM58.6683 0C80.0492 0 97.3885 17.2888 97.3885 38.6194C97.3885 45.3733 95.6416 51.7099 92.617 57.2381C92.5127 57.4467 92.3041 57.551 92.0433 57.551C91.9129 57.551 91.7826 57.4728 91.6783 57.3685L89.5923 55.2824C89.4098 55.0998 89.3577 54.813 89.488 54.5783C91.9912 49.8063 93.3992 44.3823 93.3992 38.6194C93.3992 19.5053 77.8589 4.0158 58.6943 4.0158C39.5297 4.0158 23.9895 19.5053 23.9895 38.6194C23.9895 57.7336 39.5297 73.223 58.6943 73.223C64.4568 73.223 69.9063 71.8149 74.7039 69.3376C74.9386 69.2073 75.2254 69.2594 75.4079 69.4419L77.4939 71.5281C77.5982 71.6324 77.6503 71.7628 77.6764 71.8931C77.7025 72.1539 77.5721 72.3625 77.3635 72.4668C71.8358 75.5178 65.4736 77.2388 58.7204 77.2388C37.3395 77.2388 20.0001 59.9501 20.0001 38.6194C19.948 17.2888 37.2613 0 58.6683 0ZM27.9788 38.6194C27.9788 55.517 41.72 69.2333 58.6683 69.2333C63.153 69.2333 67.4031 68.2685 71.2361 66.5474C71.4446 66.4431 71.6272 66.2606 71.6272 66.0259C71.6272 65.8434 71.575 65.6869 71.4447 65.5565L69.2805 63.4183C69.098 63.2357 68.8633 63.1836 68.6286 63.2879C65.5519 64.5395 62.1622 65.2175 58.6161 65.2175C43.8841 65.2175 31.9421 53.3005 31.9421 38.6194C31.9421 23.9383 43.8841 12.0213 58.6161 12.0213C62.1622 12.0213 65.5258 12.6993 68.6286 13.951C68.8633 14.0553 69.098 14.0031 69.2805 13.8206L71.4186 11.6823C71.549 11.5519 71.6272 11.3955 71.6011 11.2129C71.575 10.9782 71.4446 10.7957 71.2621 10.7175C67.4031 8.97035 63.127 8.00551 58.6422 8.00551C41.72 8.00551 27.9788 21.6957 27.9788 38.6194ZM63.3095 51.762L88.6797 77.0563C88.784 77.1606 88.9405 77.2388 89.0969 77.2388H93.0602C93.2688 77.2388 93.5296 77.1085 93.6339 76.9259C93.7642 76.6912 93.7121 76.4044 93.5295 76.2218L68.1593 50.9276C68.055 50.8233 67.8985 50.745 67.7421 50.745H63.7788C63.5702 50.745 63.3095 50.8754 63.2052 51.058C63.1009 51.2926 63.127 51.5795 63.3095 51.762Z" fill="url(#paint0_linear)"/>
<path fill-rule="evenodd" clip-rule="evenodd" d="M222.064 30.3185L225.62 25.4206C225.904 24.9967 226.473 24.9026 226.899 25.1851C229.601 27.0218 232.541 27.9167 235.954 27.9167C239.367 27.9167 241.452 26.7864 241.452 24.9496C241.452 23.1129 239.699 22.171 235.622 21.7942C226.52 20.9465 222.443 17.8382 222.443 11.7629C222.443 5.35796 228.037 1.11938 236.475 1.11938C240.836 1.11938 245.103 2.24966 248.326 4.22767C248.8 4.51024 248.895 5.12248 248.61 5.54634L245.529 10.2559C245.245 10.6797 244.676 10.821 244.249 10.5385C242.069 9.26689 239.556 8.56045 236.949 8.56045C233.346 8.56045 231.166 9.64365 231.166 11.3862C231.166 13.1758 232.683 13.9764 236.902 14.4003C245.624 15.2951 250.27 18.9685 250.27 25.0438C250.27 31.4488 244.486 35.7816 236.001 35.7816C230.834 35.7816 225.762 34.2745 222.254 31.6372C221.827 31.3546 221.732 30.7424 222.064 30.3185ZM144.795 37.8537L141.525 34.5571C141.24 34.2745 140.861 34.2274 140.482 34.3687C138.111 35.3106 135.362 35.8286 132.328 35.8286C121.188 35.8286 114.03 29.0469 114.03 18.4975C114.03 7.94815 121.188 1.16643 132.328 1.16643C143.468 1.16643 150.626 7.94815 150.626 18.4975C150.626 22.1239 149.773 25.3263 148.209 27.9166C147.972 28.2934 148.066 28.7643 148.351 29.0469L151.005 31.7784C151.385 32.1552 151.385 32.7203 151.005 33.0971L146.123 37.9008C145.791 38.2305 145.175 38.2305 144.795 37.8537ZM141.619 18.4504C141.619 12.7048 137.969 8.98425 132.328 8.98425C126.687 8.98425 123.037 12.7048 123.037 18.4504C123.037 24.1961 126.687 27.9166 132.328 27.9166C137.969 27.9166 141.619 24.1961 141.619 18.4504ZM154.751 20.4286V2.90905C154.751 2.391 155.177 1.96714 155.699 1.96714H162.809C163.331 1.96714 163.758 2.391 163.758 2.90905V20.4286C163.758 25.1381 166.08 27.8696 170.252 27.8696C174.329 27.8696 176.746 25.1381 176.746 20.4286V2.90905C176.746 2.391 177.173 1.96714 177.694 1.96714H184.805C185.326 1.96714 185.753 2.391 185.753 2.90905V20.4286C185.753 30.1302 180.207 35.6404 170.252 35.6404C160.297 35.6404 154.751 30.1302 154.751 20.4286ZM218.319 33.992V28.5289C218.319 28.0109 217.892 27.587 217.371 27.587H201.538C201.017 27.587 200.59 27.1632 200.59 26.6451V22.642C200.59 22.124 201.017 21.7001 201.538 21.7001H215.759C216.281 21.7001 216.707 21.2762 216.707 20.7582V15.6719C216.707 15.1538 216.281 14.73 215.759 14.73H201.538C201.017 14.73 200.59 14.3061 200.59 13.7881V10.1617C200.59 9.64368 201.017 9.21982 201.538 9.21982H216.707C217.229 9.21982 217.655 8.79596 217.655 8.27791V2.90905C217.655 2.391 217.229 1.96714 216.707 1.96714H192.863C192.342 1.96714 191.915 2.391 191.915 2.90905V33.992C191.915 34.5101 192.342 34.9339 192.863 34.9339H217.371C217.892 34.9339 218.319 34.5101 218.319 33.992ZM271.554 9.59661H279.423C279.944 9.59661 280.371 9.17275 280.371 8.6547V2.90905C280.371 2.391 279.944 1.96714 279.423 1.96714H252.782C252.26 1.96714 251.834 2.391 251.834 2.90905V8.6547C251.834 9.17275 252.26 9.59661 252.782 9.59661H260.651C261.172 9.59661 261.599 10.0205 261.599 10.5385V33.992C261.599 34.5101 262.026 34.9339 262.547 34.9339H269.658C270.179 34.9339 270.606 34.5101 270.606 33.992V10.5385C270.606 10.0205 271.032 9.59661 271.554 9.59661ZM114.077 57.9165C114.077 47.3671 121.472 40.6325 131.996 40.6325C136.736 40.6325 140.671 42.1396 144.037 45.1537C144.463 45.5304 144.463 46.1427 144.084 46.5194L139.96 50.7109C139.628 51.0406 139.059 51.0877 138.68 50.8051C136.784 49.251 134.698 48.5445 132.186 48.5445C126.734 48.5445 123.084 52.3121 123.084 57.9636C123.084 63.615 126.734 67.3827 132.186 67.3827C134.935 67.3827 137.495 66.4879 139.533 64.7924C139.912 64.4628 140.529 64.5099 140.861 64.8866L144.7 69.3136C145.032 69.6904 144.985 70.3026 144.605 70.6323C141.05 73.7406 136.926 75.2005 132.186 75.2005C121.046 75.2005 114.077 68.2304 114.077 57.9165ZM160.628 63.7561H162.524C162.809 63.7561 163.093 63.8974 163.283 64.1329L170.441 73.9758C170.63 74.2113 170.915 74.3526 171.199 74.3526H179.305C180.111 74.3526 180.538 73.4578 180.064 72.8456L172.953 63.8032C172.574 63.3323 172.716 62.6729 173.285 62.3904C177.172 60.5536 179.21 57.1628 179.21 52.7358C179.21 46.0483 174.47 41.4329 167.122 41.4329H151.621C151.1 41.4329 150.673 41.8568 150.673 42.3748V73.4578C150.673 73.9758 151.1 74.3997 151.621 74.3997H158.732C159.253 74.3997 159.68 73.9758 159.68 73.4578V64.698C159.68 64.18 160.107 63.7561 160.628 63.7561ZM160.533 48.874H165.748C168.734 48.874 170.346 50.2868 170.346 52.8771C170.346 55.4673 168.734 56.8802 165.748 56.8802H160.533C160.012 56.8802 159.585 56.4563 159.585 55.9383V49.8159C159.585 49.2978 160.012 48.874 160.533 48.874ZM202.344 61.9194V73.4578C202.344 73.9758 201.917 74.3997 201.396 74.3997H194.285C193.764 74.3997 193.337 73.9758 193.337 73.4578V61.9665C193.337 61.7781 193.29 61.5897 193.195 61.4485L181.249 42.8928C180.823 42.2806 181.297 41.4329 182.055 41.4329H190.256C190.588 41.4329 190.92 41.6213 191.062 41.9039L197.13 52.0294C197.509 52.6416 198.362 52.6416 198.741 52.0294L204.951 41.9039C205.141 41.6213 205.425 41.4329 205.757 41.4329H214.053C214.811 41.4329 215.285 42.2806 214.859 42.8928L202.486 61.4014C202.391 61.5427 202.344 61.731 202.344 61.9194ZM235.953 65.4516C244.059 65.4516 249.037 60.8833 249.037 53.4422C249.037 46.0012 244.059 41.4329 235.953 41.4329H220.831C220.31 41.4329 219.883 41.8568 219.883 42.3748V73.4578C219.883 73.9758 220.31 74.3997 220.831 74.3997H227.942C228.463 74.3997 228.89 73.9758 228.89 73.4578V66.3935C228.89 65.8754 229.317 65.4516 229.838 65.4516H235.953ZM235.574 49.2507C238.371 49.2507 240.077 50.8991 240.077 53.4893C240.077 56.0796 238.371 57.7279 235.574 57.7279H229.743C229.222 57.7279 228.795 57.304 228.795 56.786V50.1926C228.795 49.6746 229.222 49.2507 229.743 49.2507H235.574ZM279.423 49.0624H271.554C271.032 49.0624 270.606 49.4862 270.606 50.0043V73.4578C270.606 73.9758 270.179 74.3997 269.658 74.3997H262.547C262.026 74.3997 261.599 73.9758 261.599 73.4578V50.0043C261.599 49.4862 261.172 49.0624 260.651 49.0624H252.782C252.26 49.0624 251.834 48.6385 251.834 48.1205V42.3748C251.834 41.8568 252.26 41.4329 252.782 41.4329H279.423C279.944 41.4329 280.371 41.8568 280.371 42.3748V48.1205C280.371 48.6385 279.944 49.0624 279.423 49.0624ZM301.703 40.5853C290.563 40.5853 283.405 47.3671 283.405 57.9165C283.405 68.4658 290.563 75.2476 301.703 75.2476C312.843 75.2476 320.001 68.4658 320.001 57.9165C320.001 47.3671 312.843 40.5853 301.703 40.5853ZM301.703 48.4503C307.344 48.4503 310.994 52.1708 310.994 57.9165C310.994 63.6621 307.344 67.3826 301.703 67.3826C296.062 67.3826 292.411 63.6621 292.411 57.9165C292.411 52.1708 296.062 48.4503 301.703 48.4503Z" fill="url(#paint1_linear)"/>
</g>
<defs>
<filter id="filter0_d" x="0" y="0" width="340.001" height="123.239" filterUnits="userSpaceOnUse" color-interpolation-filters="sRGB">
<feFlood flood-opacity="0" result="BackgroundImageFix"/>
<feColorMatrix in="SourceAlpha" type="matrix" values="0 0 0 0 0 0 0 0 0 0 0 0 0 0 0 0 0 0 127 0"/>
<feOffset dy="26"/>
<feGaussianBlur stdDeviation="10"/>
<feColorMatrix type="matrix" values="0 0 0 0 0.85098 0 0 0 0 0.678431 0 0 0 0 0.403922 0 0 0 0.26 0"/>
<feBlend mode="normal" in2="BackgroundImageFix" result="effect1_dropShadow"/>
<feBlend mode="normal" in="SourceGraphic" in2="effect1_dropShadow" result="shape"/>
</filter>
<linearGradient id="paint0_linear" x1="46.208" y1="53.4284" x2="73.1866" y2="23.7128" gradientUnits="userSpaceOnUse">
<stop stop-color="#BA8E4D"/>
<stop offset="0.5305" stop-color="#D4A863"/>
<stop offset="1" stop-color="#E6BA73"/>
</linearGradient>
<linearGradient id="paint1_linear" x1="177.481" y1="52.3961" x2="194.058" y2="6.33589" gradientUnits="userSpaceOnUse">
<stop stop-color="#BA8E4D"/>
<stop offset="0.5305" stop-color="#D4A863"/>
<stop offset="1" stop-color="#E6BA73"/>
</linearGradient>
</defs>
</svg>
