<svg width="18" height="30" viewBox="0 0 18 30" fill="none" xmlns="http://www.w3.org/2000/svg">
<path fill-rule="evenodd" clip-rule="evenodd" d="M17.4858 22.7941C17.4858 22.0023 17.0015 21.3215 16.3136 21.0324C16.453 20.7673 16.532 20.4657 16.532 20.1461C16.532 19.093 15.6751 18.2362 14.6219 18.2362H12.0818V14.9918C15.3606 14.1422 17.7891 11.158 17.7891 7.61717C17.7891 3.41706 14.3721 0 10.1719 0C9.12239 0 8.10497 0.210117 7.1479 0.62455C6.85095 0.753104 6.71448 1.0981 6.84304 1.39506C6.97159 1.69201 7.31676 1.82859 7.61354 1.69992C8.42272 1.34953 9.28352 1.17187 10.1719 1.17187C13.7259 1.17187 16.6172 4.06323 16.6172 7.61717C16.6172 11.1711 13.7259 14.0625 10.1719 14.0625C6.61798 14.0625 3.72656 11.1711 3.72656 7.61717C3.72656 6.72848 3.90427 5.86768 4.25478 5.05851C4.38339 4.76155 4.24699 4.41655 3.95003 4.28794C3.65326 4.15933 3.30808 4.29573 3.17953 4.59274C2.76492 5.54975 2.55468 6.56735 2.55468 7.61717C2.55468 11.158 4.98316 14.1421 8.26194 14.9918V17.6397H8.16479C6.44911 17.6397 4.81968 18.3523 3.65197 19.604H0.796876C0.641427 19.604 0.492365 19.6657 0.382443 19.7757C0.27258 19.8856 0.210822 20.0347 0.210938 20.1903L0.215041 27.4501C0.215217 27.7736 0.477482 28.0357 0.800977 28.0357H3.65501C4.82583 29.2874 6.45415 29.9999 8.16479 29.9999L14.1706 30C15.2238 30 16.0806 29.1432 16.0806 28.09C16.0806 27.763 15.9981 27.455 15.8526 27.1856C16.5183 26.8869 16.9831 26.2177 16.9831 25.4421C16.9831 25.0451 16.8614 24.6761 16.6534 24.3703C17.1556 24.026 17.4858 23.4478 17.4858 22.7941ZM10.1719 15.2343C10.4209 15.2343 10.667 15.2219 10.91 15.1985V18.2362H9.43387V18.2257V15.1985C9.67674 15.222 9.92289 15.2343 10.1719 15.2343ZM15.5758 23.5323H15.0733C14.7497 23.5323 14.4873 23.7946 14.4873 24.1182C14.4873 24.4418 14.7497 24.7041 15.0733 24.7041C15.4801 24.7041 15.8112 25.0352 15.8112 25.4421C15.8112 25.8491 15.4802 26.1802 15.0733 26.1802H14.1706C13.8471 26.1802 13.5847 26.4425 13.5847 26.7661C13.5847 27.0897 13.847 27.352 14.1706 27.352C14.5776 27.352 14.9087 27.6831 14.9087 28.0901C14.9087 28.4971 14.5777 28.8282 14.1706 28.8282L8.16479 28.8281C6.70569 28.8281 5.31954 28.1868 4.36183 27.0686C4.25056 26.9387 4.08796 26.8638 3.91681 26.8638H1.38662L1.38316 20.7758H3.91417C4.08568 20.7758 4.24851 20.7007 4.35984 20.5703C5.3138 19.4526 6.70065 18.8115 8.16473 18.8115H8.26188V18.822C8.26188 19.1456 8.52426 19.408 8.84782 19.408H14.6219C15.0289 19.408 15.36 19.739 15.36 20.146C15.36 20.553 15.0289 20.8841 14.6219 20.8841C14.2983 20.8841 14.0359 21.1464 14.0359 21.4701C14.0359 21.7937 14.2983 22.056 14.6219 22.056H15.5758C15.9828 22.056 16.3139 22.3871 16.3139 22.794C16.3139 23.2011 15.9829 23.5323 15.5758 23.5323ZM10.5 11C10.6381 11 10.75 10.8779 10.75 10.7273V10.4341C11.4583 10.325 12 9.76509 12 9.09091C12 8.339 11.3272 7.72727 10.5 7.72727C9.9485 7.72727 9.5 7.36018 9.5 6.90909C9.5 6.458 9.9485 6.09091 10.5 6.09091C10.7804 6.08472 11.0533 6.19021 11.2675 6.38764C11.334 6.45292 11.4273 6.47457 11.5123 6.44443C11.5974 6.41429 11.6612 6.33694 11.6798 6.24152C11.6984 6.1461 11.669 6.0471 11.6025 5.98182C11.3618 5.75567 11.0652 5.61212 10.75 5.56918V5.27273C10.75 5.1221 10.6381 5 10.5 5C10.3619 5 10.25 5.1221 10.25 5.27273V5.56591C9.54175 5.675 9 6.23491 9 6.90909C9 7.661 9.67275 8.27273 10.5 8.27273C11.0515 8.27273 11.5 8.63982 11.5 9.09091C11.5 9.542 11.0515 9.90909 10.5 9.90909C10.2196 9.91528 9.94675 9.80979 9.7325 9.61236C9.66605 9.54708 9.57272 9.52543 9.48767 9.55557C9.40262 9.58571 9.33877 9.66306 9.32017 9.75848C9.30157 9.8539 9.33105 9.9529 9.3975 10.0182C9.6382 10.2443 9.93478 10.3879 10.25 10.4308V10.7273C10.25 10.8779 10.3619 11 10.5 11ZM9.79927 2.5586C9.11024 2.56653 8.43325 2.74032 7.82559 3.06526C7.21793 3.3902 6.69748 3.85672 6.30827 4.42537C5.91906 4.99401 5.67255 5.64803 5.58959 6.3321C5.50663 7.01617 5.58967 7.71016 5.83168 8.35535L6.29983 8.17975C6.08603 7.60976 6.01267 6.99664 6.08596 6.3923C6.15925 5.78795 6.37703 5.21015 6.72088 4.70778C7.06472 4.2054 7.52452 3.79325 8.06136 3.50618C8.5982 3.21911 9.19629 3.06557 9.80503 3.05856L9.79927 2.5586Z" fill="#828282"/>
</svg>
