<svg width="25" height="25" viewBox="0 0 25 25" fill="none" xmlns="http://www.w3.org/2000/svg">
<path d="M24.7179 20.9998L19.3708 15.6528C19.1888 15.4707 18.9468 15.3705 18.6894 15.3705C18.5113 15.3705 18.3412 15.4195 18.1926 15.5093L15.1887 12.5054C15.0347 12.3515 14.7851 12.3515 14.6311 12.5054C14.4772 12.6593 14.4772 12.909 14.6311 13.0629L17.6144 16.0462L16.5154 17.1452L11.0434 11.6733L12.1424 10.5742L12.8747 11.3063C13.0285 11.4603 13.2782 11.4602 13.4321 11.3063C13.586 11.1523 13.586 10.9027 13.4321 10.7488L12.6999 10.0167L14.6053 8.11135L14.756 8.26212C14.9433 8.4494 15.1923 8.55254 15.4572 8.55254C15.7221 8.55254 15.9711 8.4494 16.1584 8.26212L16.8607 7.55982C17.048 7.37254 17.1511 7.12351 17.1511 6.85868C17.1511 6.59381 17.048 6.34478 16.8607 6.15755L11.472 0.76874C11.2847 0.581459 11.0357 0.478271 10.7708 0.478271C10.5059 0.478271 10.2569 0.581408 10.0697 0.768689L9.36734 1.47099C9.18006 1.65828 9.07688 1.90726 9.07688 2.17218C9.07688 2.43701 9.18006 2.68604 9.36729 2.87332L9.51806 3.02409L3.49328 9.04888L3.34251 8.89811C2.95591 8.51156 2.32683 8.51156 1.94023 8.89816L1.23793 9.60046C1.0507 9.78774 0.94751 10.0368 0.94751 10.3016C0.94751 10.5665 1.0507 10.8155 1.23793 11.0027L6.62658 16.3914C6.81386 16.5787 7.06289 16.6819 7.32777 16.6819C7.59264 16.6819 7.84162 16.5787 8.0289 16.3914L8.73126 15.6891C8.73131 15.6891 8.73131 15.6891 8.73131 15.6891C9.11781 15.3025 9.11786 14.6735 8.73131 14.2869L8.58054 14.1361L10.4859 12.2308L15.9785 17.7234C15.8887 17.872 15.8397 18.0421 15.8397 18.2202C15.8397 18.4776 15.94 18.7197 16.122 18.9017L21.469 24.2487C21.651 24.4308 21.893 24.531 22.1505 24.531C22.4079 24.531 22.6499 24.4307 22.832 24.2487L24.7179 22.3628C24.8999 22.1808 25.0001 21.9388 25.0001 21.6813C25.0001 21.4239 24.8999 21.1818 24.7179 20.9998ZM9.92482 2.02852L10.6272 1.32617C10.6656 1.28783 10.7166 1.2667 10.7708 1.2667C10.825 1.2667 10.8761 1.28783 10.9144 1.32622L16.3031 6.71492C16.3415 6.75326 16.3627 6.8043 16.3627 6.85853C16.3627 6.91276 16.3415 6.9638 16.3031 7.00219L15.6008 7.70449C15.5241 7.78122 15.3903 7.78128 15.3135 7.70455L9.92487 2.31584C9.88648 2.27745 9.86531 2.22647 9.86531 2.17218C9.86531 2.1179 9.88648 2.06696 9.92482 2.02852ZM8.17378 15.1316L7.47138 15.8339C7.3947 15.9106 7.26084 15.9106 7.18411 15.8339L1.7954 10.4452C1.75706 10.4069 1.73589 10.3558 1.73589 10.3016C1.73589 10.2474 1.75701 10.1963 1.79546 10.1579L2.49771 9.45563C2.53732 9.41603 2.58932 9.39622 2.64137 9.39622C2.69342 9.39622 2.74542 9.41603 2.78498 9.45563L8.17368 14.8443C8.2529 14.9235 8.2529 15.0523 8.17378 15.1316ZM10.2071 11.3945C10.207 11.3945 10.207 11.3945 10.207 11.3946L8.02296 13.5786L4.05075 9.6064L10.0756 3.58167L14.0478 7.55383L11.864 9.73752C11.8639 9.73767 11.8637 9.73777 11.8635 9.73793L10.2071 11.3945ZM24.1603 21.8052L22.2744 23.6911C22.2298 23.7358 22.1776 23.7425 22.1505 23.7425C22.1233 23.7425 22.0712 23.7358 22.0266 23.6911L16.6795 18.3441C16.6349 18.2994 16.6281 18.2472 16.6281 18.2201C16.6281 18.193 16.6348 18.1409 16.6795 18.0962L16.7942 17.9815L18.5654 16.2103C18.61 16.1656 18.6622 16.1589 18.6894 16.1589C18.7165 16.1589 18.7686 16.1656 18.8133 16.2103L24.1603 21.5573C24.205 21.602 24.2117 21.6541 24.2117 21.6812C24.2117 21.7083 24.205 21.7605 24.1603 21.8052Z" fill="#707070"/>
</svg>
