<svg width="26" height="26" viewBox="0 0 26 26" fill="none" xmlns="http://www.w3.org/2000/svg">
<path d="M16.1494 16.4292H15.2928V16.0009C15.2928 15.5278 14.9094 15.1443 14.4363 15.1443H13.5797V11.2679C16.6455 11.0313 18.9392 8.35424 18.7026 5.28835C18.4661 2.22251 15.7889 -0.0710726 12.7231 0.165449C9.65728 0.40197 7.36364 3.07908 7.60016 6.14497C7.81131 8.88205 9.98604 11.0567 12.7231 11.2679V15.1443H11.4383C11.3246 15.1443 11.2158 15.1895 11.1355 15.2698L7.58367 18.8216V18.5706C7.58367 18.3341 7.39191 18.1424 7.15539 18.1424H6.29881V17.7141C6.29881 17.4775 6.10705 17.2858 5.87053 17.2858H5.01395V16.4074C7.36744 16.1708 9.08359 14.0712 8.84706 11.7177C8.61054 9.36419 6.51087 7.64805 4.15738 7.88457C1.80389 8.12109 0.0877452 10.2208 0.324267 12.5743C0.52797 14.6009 2.13078 16.2037 4.15738 16.4074V17.2858H2.44423C2.33063 17.2858 2.22174 17.331 2.14143 17.4113L0 19.5527L0.605597 20.1583L2.62154 18.1424H5.44224V19.8555H4.58567V18.9989H3.72909V22.6762L2.14143 24.2638C2.06113 24.3441 2.01595 24.453 2.01595 24.5666V25.4232C2.01595 25.6597 2.20771 25.8515 2.44423 25.8515H9.29682C9.41042 25.8515 9.51931 25.8063 9.59962 25.726L11.1873 24.1383H16.1494C16.859 24.1383 17.4343 23.5631 17.4343 22.8535V17.714C17.4343 17.0044 16.859 16.4292 16.1494 16.4292ZM1.15937 12.1463C1.15937 10.254 2.69339 8.71999 4.58567 8.71999C6.47794 8.71999 8.01196 10.254 8.01196 12.1463C8.01196 14.0386 6.47794 15.5726 4.58567 15.5726C2.69424 15.5705 1.16151 14.0377 1.15937 12.1463ZM8.44025 5.72199C8.44025 3.12009 10.5495 1.01083 13.1514 1.01083C15.7533 1.01083 17.8626 3.12009 17.8626 5.72199C17.8626 8.32388 15.7533 10.4331 13.1514 10.4331C10.5508 10.4301 8.4433 8.32265 8.44025 5.72199ZM6.29881 18.9989H6.7271V19.6781L6.29881 20.1064V18.9989ZM4.58567 20.712H5.69321L4.58567 21.8196V20.712ZM9.11951 24.9949H2.87252V24.7439L7.15539 20.461L10.4044 23.71L9.11951 24.9949ZM12.7231 23.2817H11.1873L7.76098 19.8554L11.6156 16.0009H14.4363V19.8554H13.5797V18.1423H12.7231V23.2817ZM16.5777 22.8535C16.5777 23.09 16.3859 23.2817 16.1494 23.2817H13.5797V22.4252H16.5777V22.8535ZM16.5777 21.5686H13.5797V20.712H16.5777V21.5686ZM16.5777 19.8554H15.2928V18.9989H16.5777V19.8554ZM16.5777 18.1423H15.2928V17.2857H16.1494C16.3859 17.2857 16.5777 17.4775 16.5777 17.714V18.1423Z" fill="#707070"/>
<path d="M15.4184 2.84937L11.4383 6.82943L10.028 5.41908L9.42236 6.02468L11.1355 7.73782C11.3028 7.90502 11.5739 7.90502 11.7411 7.73782L16.024 3.45496L15.4184 2.84937Z" fill="#707070"/>
<path d="M23.4303 17.7139H22.1455V16.8355C24.3326 16.6131 25.9973 14.7729 26.0001 12.5745C26.0003 10.2091 24.0829 8.29147 21.7176 8.29126C19.3522 8.29105 17.4345 10.2084 17.4343 12.5738C17.4341 14.7734 19.1003 16.6155 21.2889 16.8355V17.7139C20.8158 17.7139 20.4323 18.0974 20.4323 18.5705V18.9988H19.5758C18.8661 18.9988 18.2909 19.574 18.2909 20.2837V25.8514H19.1475V24.9948H22.1455V25.8514H23.0021V19.8554H22.1455V20.7119H21.2889V18.5705H23.253L25.269 20.5865L25.8746 19.9809L23.7331 17.8394C23.6528 17.7591 23.5439 17.714 23.4303 17.7139ZM19.1475 20.2837C19.1475 20.0471 19.3392 19.8554 19.5758 19.8554H20.4323V20.7119H19.1475V20.2837ZM22.1455 24.1382H19.1475V23.2817H22.1455V24.1382ZM22.1455 21.5685V22.4251H19.1475V21.5685H22.1455ZM18.2909 12.5745C18.2909 10.6822 19.8249 9.14821 21.7172 9.14821C23.6095 9.14821 25.1435 10.6822 25.1435 12.5745C25.1435 14.4668 23.6095 16.0008 21.7172 16.0008C19.8258 15.9987 18.293 14.4659 18.2909 12.5745Z" fill="#707070"/>
<path d="M20.4324 13.2538L19.4503 12.2718L18.8447 12.8774L20.1296 14.1622C20.2968 14.3294 20.5679 14.3294 20.7352 14.1622L23.9473 10.9501L23.3417 10.3445L20.4324 13.2538Z" fill="#707070"/>
<path d="M3.30079 12.8256L2.31873 11.8435L1.71313 12.4491L2.99799 13.734C3.16524 13.9012 3.43635 13.9012 3.60359 13.734L6.81574 10.5219L6.21014 9.91626L3.30079 12.8256Z" fill="#707070"/>
</svg>
