<svg width="18" height="27" viewBox="0 0 18 27" fill="none" xmlns="http://www.w3.org/2000/svg">
<path fill-rule="evenodd" clip-rule="evenodd" d="M11.1175 0H15.7227C16.5519 0 17.2266 0.674625 17.2266 1.50391V8.37891C17.2266 9.20819 16.5519 9.88281 15.7227 9.88281H10.6641V11.7894L11.3195 11.4225C12.0132 11.0341 12.8944 11.282 13.2839 11.9751C13.4728 12.3111 13.5192 12.7004 13.415 13.0711C13.3235 13.3962 13.1258 13.6729 12.8518 13.8631C13.0249 13.9834 13.1741 14.1436 13.284 14.3393C13.4728 14.6753 13.5193 15.0646 13.415 15.4353C13.3236 15.7604 13.1257 16.0371 12.8517 16.2273C13.0248 16.3476 13.1739 16.5075 13.284 16.703C13.4729 17.0398 13.5192 17.4293 13.4147 17.8002C13.3232 18.1246 13.1259 18.4008 12.8527 18.5907C13.025 18.7113 13.1738 18.8714 13.284 19.0671C13.2853 19.0696 13.2867 19.0721 13.288 19.0745C13.2894 19.0772 13.2908 19.0799 13.2922 19.0825C13.4741 19.4151 13.5177 19.7985 13.4147 20.164C13.3103 20.5348 13.0676 20.8426 12.7313 21.0306L12.1356 21.3642C12.0789 21.7384 11.9481 22.0945 11.7514 22.4131V24.4297H12.2227C12.4492 24.4297 12.6328 24.6133 12.6328 24.8398V26.5898C12.6328 26.8164 12.4492 27 12.2227 27H11.4725C11.2459 27 11.0623 26.8164 11.0623 26.5898C11.0623 26.3633 11.2459 26.1797 11.4725 26.1797H11.8125V25.25H5.41406V26.1797H9.72245C9.94902 26.1797 10.1326 26.3633 10.1326 26.5898C10.1326 26.8164 9.94902 27 9.72245 27H5.00391C4.77739 27 4.59375 26.8164 4.59375 26.5898V24.8398C4.59375 24.6133 4.77739 24.4297 5.00391 24.4297H5.13417V23.2594C4.07602 22.6402 3.36328 21.4922 3.36328 20.1802V19.3941C3.36328 19.1675 3.54692 18.9839 3.77344 18.9839C3.99995 18.9839 4.18359 19.1675 4.18359 19.3941V20.1803C4.18359 21.6942 5.41527 22.9258 6.92918 22.9258H9.36348C10.0722 22.9258 10.7075 22.5417 11.059 21.9671L10.8289 22.0959C10.6065 22.2203 10.3648 22.2793 10.1263 22.2793C9.62079 22.2793 9.12931 22.0142 8.86452 21.5438C8.67918 21.2135 8.63521 20.8382 8.72052 20.4922H6.97266C6.74614 20.4922 6.5625 20.3085 6.5625 20.082V17.2071C5.88159 16.8819 5.44141 16.1974 5.44141 15.4224V12.8359C5.44141 12.4892 5.15927 12.207 4.8125 12.207C4.46573 12.207 4.18359 12.4892 4.18359 12.8359V17.684C4.18359 17.9106 3.99995 18.0942 3.77344 18.0942C3.54692 18.0942 3.36328 17.9106 3.36328 17.684V12.8359C3.36328 12.0368 4.01341 11.3867 4.8125 11.3867C5.61159 11.3867 6.26172 12.0368 6.26172 12.8359V15.4224C6.26172 15.7205 6.37334 15.9953 6.5625 16.2032V9.88281H1.50391C0.674625 9.88281 0 9.20819 0 8.37891V1.50391C0 0.674625 0.674625 0 1.50391 0H6.3787C6.60522 0 6.78886 0.183641 6.78886 0.410156C6.78886 0.636672 6.60522 0.820312 6.3787 0.820312H1.50391C1.12695 0.820312 0.820312 1.12695 0.820312 1.50391V8.37891C0.820312 8.75587 1.12695 9.0625 1.50391 9.0625H15.7227C16.0996 9.0625 16.4062 8.75587 16.4062 8.37891V1.50391C16.4062 1.12695 16.0996 0.820312 15.7227 0.820312H11.1175C10.891 0.820312 10.7073 0.636672 10.7073 0.410156C10.7073 0.183641 10.891 0 11.1175 0ZM5.95448 23.6095V24.4297H10.931V23.2668C10.4706 23.5778 9.92715 23.7461 9.36348 23.7461H6.92918C6.59121 23.7461 6.26451 23.6978 5.95448 23.6095ZM12.0238 14.4231C11.9291 14.4231 11.8338 14.4457 11.7444 14.4909L9.81755 15.5676C9.67258 15.6487 9.56807 15.7813 9.52317 15.941C9.47827 16.1007 9.49834 16.2683 9.57966 16.413C9.7428 16.7033 10.1054 16.812 10.4003 16.6655L12.3309 15.5864C12.4759 15.5053 12.5804 15.3727 12.6253 15.2131C12.6702 15.0535 12.65 14.8858 12.5687 14.7411C12.4545 14.5377 12.2421 14.4231 12.0238 14.4231ZM12.5688 17.1048C12.4546 16.902 12.2422 16.7874 12.0238 16.7874C11.9288 16.7874 11.8329 16.8102 11.7432 16.8557L9.81777 17.9319C9.67274 18.013 9.56829 18.1455 9.52334 18.305C9.47822 18.4649 9.49823 18.6328 9.57961 18.7778C9.70441 18.9998 9.94848 19.1226 10.2023 19.0905C10.2711 19.0816 10.338 19.0611 10.4003 19.03L12.3308 17.9505C12.4756 17.8696 12.5801 17.7371 12.625 17.5776C12.6702 17.4178 12.6501 17.2499 12.5688 17.1048ZM12.3308 20.3147C12.4757 20.2337 12.5802 20.1012 12.6251 19.9416C12.6701 19.782 12.6501 19.6143 12.5688 19.4697C12.5669 19.4665 12.5652 19.4632 12.5634 19.4599C12.3983 19.178 12.0461 19.0714 11.753 19.2143L10.8289 19.7317C10.8192 19.7373 10.8087 19.743 10.7979 19.7486L10.7872 19.754L10.7843 19.7554L10.7782 19.7586L9.81772 20.2961C9.77348 20.3209 9.73301 20.3501 9.69746 20.3831C9.48708 20.5783 9.43846 20.8904 9.57956 21.1419C9.74777 21.4407 10.1286 21.5476 10.4282 21.38L12.3308 20.3147ZM12.0238 12.0589C11.9207 12.0589 11.8163 12.0844 11.7202 12.1382L9.8175 13.2035C9.67252 13.2846 9.56802 13.4172 9.52312 13.5768C9.47822 13.7365 9.49829 13.9041 9.57961 14.0489C9.7422 14.3382 10.103 14.4472 10.3976 14.3027L12.3309 13.2223C12.4759 13.1412 12.5804 13.0086 12.6253 12.849C12.6702 12.6893 12.65 12.5216 12.5687 12.3769C12.4545 12.1735 12.2421 12.0589 12.0238 12.0589ZM9.41675 12.4877L9.84375 12.2486V9.88281H7.38281V19.6719H9.27363C9.27731 19.6692 9.28106 19.6667 9.28483 19.6642C9.28874 19.6616 9.29267 19.659 9.29655 19.6563C9.12242 19.5346 8.97362 19.3736 8.86446 19.1795C8.67557 18.8428 8.62925 18.4533 8.73381 18.0824C8.82547 17.7574 9.02344 17.4808 9.29742 17.2909C9.12423 17.1705 8.97455 17.0108 8.86452 16.8149C8.67568 16.4789 8.6292 16.0897 8.73348 15.7189C8.82503 15.3936 9.023 15.1168 9.29726 14.9266C9.12412 14.8062 8.97449 14.6465 8.86452 14.4508C8.67568 14.1147 8.6292 13.7255 8.73348 13.3547C8.83777 12.9839 9.08048 12.676 9.41675 12.4877ZM9.33333 7.63636C9.33333 7.83719 9.1841 8 9 8C8.8159 8 8.66667 7.83719 8.66667 7.63636V7.24109C8.24637 7.18384 7.85094 6.99244 7.53 6.69091C7.4414 6.60387 7.40209 6.47187 7.42689 6.34464C7.45169 6.21741 7.53682 6.11428 7.65023 6.0741C7.76363 6.03391 7.88806 6.06278 7.97667 6.14982C8.26233 6.41305 8.62614 6.5537 9 6.54545C9.73533 6.54545 10.3333 6.056 10.3333 5.45455C10.3333 4.85309 9.73533 4.36364 9 4.36364C7.897 4.36364 7 3.548 7 2.54545C7 1.64655 7.72233 0.9 8.66667 0.754546V0.363636C8.66667 0.162806 8.8159 0 9 0C9.1841 0 9.33333 0.162806 9.33333 0.363636V0.758909C9.75363 0.816157 10.1491 1.00756 10.47 1.30909C10.5586 1.39613 10.5979 1.52813 10.5731 1.65536C10.5483 1.78259 10.4632 1.88572 10.3498 1.9259C10.2364 1.96609 10.1119 1.93722 10.0233 1.85018C9.73767 1.58695 9.37386 1.4463 9 1.45455C8.26467 1.45455 7.66667 1.944 7.66667 2.54545C7.66667 3.14691 8.26467 3.63636 9 3.63636C10.103 3.63636 11 4.452 11 5.45455C11 6.35345 10.2777 7.1 9.33333 7.24545V7.63636Z" fill="#707070"/>
</svg>
