<svg width="18" height="28" viewBox="0 0 18 28" fill="none" xmlns="http://www.w3.org/2000/svg">
<path d="M16.1094 0H5.50421C5.2777 0 5.09405 0.183641 5.09405 0.410156C5.09405 0.636672 5.2777 0.820312 5.50421 0.820312H16.1094C16.4863 0.820312 16.793 1.12695 16.793 1.50391V9.37891C16.793 9.75587 16.4863 10.0625 16.1094 10.0625H1.89062C1.51366 10.0625 1.20703 9.75587 1.20703 9.37891V1.50391C1.20703 1.12695 1.51366 0.820312 1.89062 0.820312H3.76542C3.99194 0.820312 4.17558 0.636672 4.17558 0.410156C4.17558 0.183641 3.99194 0 3.76542 0H1.89062C1.06134 0 0.386719 0.674625 0.386719 1.50391V9.37891C0.386719 10.2082 1.06134 10.8828 1.89062 10.8828H6.94922V17.2032C6.76005 16.9953 6.64844 16.7205 6.64844 16.4224V13.8359C6.64844 13.0368 5.99831 12.3867 5.19922 12.3867C4.40013 12.3867 3.75 13.0368 3.75 13.8359V18.684C3.75 18.9106 3.93364 19.0942 4.16016 19.0942C4.38667 19.0942 4.57031 18.9106 4.57031 18.684V13.8359C4.57031 13.4892 4.85245 13.207 5.19922 13.207C5.54599 13.207 5.82812 13.4892 5.82812 13.8359V16.4224C5.82812 17.1974 6.2683 17.8819 6.94922 18.2071V21.082C6.94922 21.3085 7.13286 21.4922 7.35938 21.4922H9.10724C9.02193 21.8382 9.0659 22.2135 9.25123 22.5438C9.51603 23.0142 10.0075 23.2793 10.513 23.2793C10.7515 23.2793 10.9933 23.2203 11.2156 23.0959L11.4457 22.9671C11.0942 23.5417 10.4589 23.9258 9.7502 23.9258H7.3159C5.80198 23.9258 4.57031 22.6942 4.57031 21.1803V20.3941C4.57031 20.1675 4.38667 19.9839 4.16016 19.9839C3.93364 19.9839 3.75 20.1675 3.75 20.3941V21.1802C3.75 22.4922 4.46274 23.6402 5.52089 24.2594V25.4297H5.39062C5.16411 25.4297 4.98047 25.6133 4.98047 25.8398V27.5898C4.98047 27.8164 5.16411 28 5.39062 28H10.1092C10.3357 28 10.5193 27.8164 10.5193 27.5898C10.5193 27.3633 10.3357 27.1797 10.1092 27.1797H5.80078V26.25H12.1992V27.1797H11.8592C11.6326 27.1797 11.449 27.3633 11.449 27.5898C11.449 27.8164 11.6326 28 11.8592 28H12.6094C12.8359 28 13.0195 27.8164 13.0195 27.5898V25.8398C13.0195 25.6133 12.8359 25.4297 12.6094 25.4297H12.1381V23.4131C12.3348 23.0945 12.4657 22.7384 12.5223 22.3642L13.118 22.0306C13.4543 21.8426 13.697 21.5348 13.8015 21.164C13.9044 20.7985 13.8608 20.4151 13.6789 20.0825C13.6763 20.0774 13.6735 20.0722 13.6707 20.0671C13.5606 19.8714 13.4117 19.7113 13.2394 19.5907C13.5126 19.4008 13.71 19.1246 13.8014 18.8002C13.906 18.4292 13.8596 18.0398 13.6707 17.703C13.5607 17.5075 13.4115 17.3476 13.2384 17.2273C13.5124 17.0371 13.7103 16.7604 13.8017 16.4353C13.906 16.0646 13.8595 15.6753 13.6707 15.3393C13.5608 15.1436 13.4116 14.9834 13.2386 14.8631C13.5125 14.6729 13.7102 14.3962 13.8017 14.0711C13.906 13.7004 13.8595 13.3111 13.6706 12.9751C13.2811 12.282 12.3999 12.0341 11.7062 12.4225L11.0508 12.7894V10.8828H16.1094C16.9386 10.8828 17.6133 10.2082 17.6133 9.37891V1.50391C17.6133 0.674625 16.9386 0 16.1094 0ZM6.3412 25.4297V24.6095C6.65123 24.6978 6.97793 24.7461 7.3159 24.7461H9.7502C10.3139 24.7461 10.8574 24.5778 11.3178 24.2668V25.4297H6.3412ZM12.1311 15.4909C12.2205 15.4457 12.3159 15.4231 12.4105 15.4231C12.6288 15.4231 12.8412 15.5377 12.9554 15.7411H12.9555C13.0368 15.8858 13.0569 16.0535 13.012 16.2131C12.9671 16.3727 12.8626 16.5053 12.7176 16.5864L10.787 17.6655C10.4921 17.812 10.1295 17.7033 9.96638 17.413C9.88506 17.2683 9.86499 17.1007 9.90989 16.941C9.95479 16.7813 10.0593 16.6487 10.2043 16.5676L12.1311 15.4909ZM12.4105 17.7874C12.6289 17.7874 12.8413 17.902 12.9555 18.1048C13.0369 18.2499 13.0569 18.4178 13.0118 18.5776C12.9668 18.7371 12.8624 18.8696 12.7175 18.9505C12.7175 18.9505 12.7175 18.9506 12.7174 18.9506L10.787 20.03C10.7247 20.0611 10.6579 20.0816 10.589 20.0905C10.3352 20.1226 10.0911 19.9998 9.96633 19.7778C9.88495 19.6328 9.86494 19.4649 9.91005 19.305C9.95501 19.1455 10.0595 19.013 10.2045 18.9319L12.1299 17.8557C12.2196 17.8102 12.3155 17.7874 12.4105 17.7874ZM13.0118 20.9416C12.9669 21.1012 12.8624 21.2337 12.7175 21.3147C12.7175 21.3147 12.7174 21.3147 12.7174 21.3148L10.815 22.38C10.5153 22.5476 10.1345 22.4407 9.96627 22.1419C9.82518 21.8904 9.8738 21.5783 10.0842 21.3831C10.1197 21.3501 10.1602 21.3209 10.2044 21.2961L11.1649 20.7586C11.167 20.7576 11.1689 20.7564 11.171 20.7554C11.172 20.7549 11.1729 20.7545 11.1739 20.754C11.1775 20.7522 11.181 20.7505 11.1846 20.7486C11.1954 20.743 11.2059 20.7373 11.2157 20.7317L12.1397 20.2143C12.4328 20.0714 12.785 20.178 12.9501 20.4599C12.9519 20.4632 12.9536 20.4665 12.9555 20.4697C13.0368 20.6143 13.0568 20.782 13.0118 20.9416ZM12.107 13.1382C12.203 13.0844 12.3074 13.0589 12.4105 13.0589C12.6288 13.0589 12.8412 13.1735 12.9554 13.3769H12.9555C13.0368 13.5216 13.0569 13.6893 13.012 13.849C12.9671 14.0086 12.8626 14.1412 12.7176 14.2223L10.7843 15.3027C10.4897 15.4472 10.1289 15.3382 9.96633 15.0489C9.88501 14.9041 9.86494 14.7365 9.90984 14.5768C9.95473 14.4172 10.0592 14.2846 10.2042 14.2035L12.107 13.1382ZM10.2305 13.2486L9.80347 13.4877C9.46719 13.676 9.22449 13.9839 9.1202 14.3547C9.01591 14.7255 9.0624 15.1148 9.25123 15.4508C9.36121 15.6465 9.51084 15.8062 9.68398 15.9266C9.40972 16.1168 9.21175 16.3936 9.1202 16.7189C9.01591 17.0897 9.0624 17.4789 9.25123 17.8149C9.36127 18.0108 9.51095 18.1705 9.68414 18.2909C9.41016 18.4808 9.21219 18.7574 9.12053 19.0824C9.01597 19.4533 9.06229 19.8428 9.25118 20.1795C9.36034 20.3736 9.50914 20.5346 9.68326 20.6563C9.67566 20.6615 9.66784 20.6665 9.66035 20.6719H7.76953V10.8828H10.2305V13.2486Z" fill="#707070"/>
<path d="M9.29541 7.96403V2.98047C9.29541 2.75395 9.11182 2.57031 8.88525 2.57031C8.65874 2.57031 8.4751 2.75395 8.4751 2.98047V7.96403C8.4751 8.19055 8.65874 8.37419 8.88525 8.37419C9.11182 8.37419 9.29541 8.1906 9.29541 7.96403Z" fill="#707070"/>
<path d="M10.144 8.25527C10.2208 8.33155 10.3247 8.37432 10.4329 8.37432H10.4345C10.4758 8.37416 11.4512 8.37044 11.8401 8.3636C12.5241 8.35162 13.1331 8.04182 13.5549 7.49123C13.9425 6.98537 14.1559 6.29461 14.1559 5.54605C14.1559 3.85434 13.2063 2.71777 11.7928 2.71777H10.4231C10.3142 2.71777 10.2098 2.76109 10.1328 2.8382C10.0559 2.9153 10.0127 3.01981 10.0129 3.12875C10.0129 3.12875 10.0164 4.98927 10.0164 5.54074C10.0164 6.20547 10.0226 7.94814 10.0227 7.96564C10.0232 8.07447 10.0668 8.17865 10.144 8.25527ZM11.7929 3.53814C12.9304 3.53814 13.3357 4.5754 13.3357 5.5461C13.3357 6.70657 12.7148 7.52787 11.8258 7.5434C11.6017 7.54734 11.1666 7.55023 10.8417 7.55204C10.8399 6.99144 10.8369 6.00362 10.8369 5.54074C10.8369 5.15312 10.8351 4.11914 10.8341 3.53814H11.7929Z" fill="#707070"/>
<path d="M5.70178 2.57031H4.25415C4.02763 2.57031 3.84399 2.75395 3.84399 2.98047V7.96403C3.84399 8.07313 3.88747 8.17775 3.96474 8.25469C4.04163 8.33126 4.14571 8.37419 4.25415 8.37419H4.25596C4.2693 8.37413 5.59225 8.36828 5.95455 8.36828C6.92039 8.36828 7.70614 7.58253 7.70614 6.61669C7.70614 5.99342 7.37867 5.44556 6.88697 5.13505C7.11846 4.86325 7.25863 4.51139 7.25863 4.12721C7.25868 3.26873 6.56027 2.57031 5.70178 2.57031ZM5.70178 3.39062C6.10795 3.39062 6.43837 3.72105 6.43837 4.12721C6.43837 4.53338 6.10795 4.8638 5.70178 4.8638C5.5946 4.8638 5.39203 4.8644 5.17164 4.86516H4.66436V3.39062H5.70178ZM5.9546 7.54797C5.72043 7.54797 5.08879 7.55037 4.66436 7.55212V5.68739C4.82099 5.68673 5.00293 5.68602 5.17421 5.68542H5.9546C6.46812 5.68542 6.88588 6.10318 6.88588 6.61669C6.88588 7.13021 6.46812 7.54797 5.9546 7.54797Z" fill="#707070"/>
</svg>
