<svg width="8" height="11" viewBox="0 0 8 11" fill="none" xmlns="http://www.w3.org/2000/svg">
<path d="M4.75665 3.54298C4.37653 4.05639 3.6082 4.05585 3.22882 3.5419L1.46837 1.15701C1.37227 1.02683 1.22007 0.95 1.05826 0.95C0.63786 0.95 0.398175 1.43023 0.650897 1.76619L2.96672 4.84468C3.2215 5.18337 3.22111 5.64987 2.96576 5.98814L0.519527 9.22877C0.264657 9.56641 0.505513 10.05 0.928548 10.05C1.09079 10.05 1.24345 9.97317 1.34012 9.84287L3.23932 7.28298C3.61849 6.7719 4.38313 6.77086 4.76369 7.28091L6.67789 9.84645C6.77346 9.97454 6.9239 10.05 7.08373 10.05C7.50172 10.05 7.7397 9.57218 7.48787 9.23857L5.03424 5.98814C4.77889 5.64987 4.7785 5.18337 5.03328 4.84468L7.34503 1.7716C7.59943 1.43342 7.35816 0.95 6.93497 0.95C6.77234 0.95 6.61934 1.02709 6.52257 1.1578L4.75665 3.54298Z" fill="#05114F" stroke="#05114F" stroke-width="0.1"/>
</svg>
